<?xml version="1.0" standalone="no"?>
<!DOCTYPE svg PUBLIC "-//W3C//DTD SVG 20010904//EN"
 "http://www.w3.org/TR/2001/REC-SVG-20010904/DTD/svg10.dtd">
<svg version="1.0" xmlns="http://www.w3.org/2000/svg"
 width="960.000000pt" height="720.000000pt" viewBox="0 0 960.000000 720.000000"
 preserveAspectRatio="xMidYMid meet">

<g transform="translate(0.000000,720.000000) scale(0.100000,-0.100000)"
fill="#000000" stroke="none">
<path d="M3312 6680 c-40 -11 -101 -34 -135 -52 -78 -42 -190 -153 -240 -238
-70 -121 -82 -179 -147 -744 -33 -286 -62 -521 -63 -522 -2 -2 -54 141 -116
317 -63 175 -130 347 -150 381 -54 94 -160 195 -257 246 -110 56 -194 75 -314
70 -88 -4 -117 -12 -370 -97 -330 -110 -407 -148 -510 -251 -87 -86 -129 -163
-160 -293 -45 -187 -31 -250 219 -952 112 -313 250 -702 307 -863 153 -434
188 -505 297 -611 93 -90 93 -90 642 -371 221 -114 255 -134 255 -154 0 -6
-188 -112 -417 -236 -229 -124 -445 -246 -479 -273 -116 -89 -212 -235 -248
-373 -20 -79 -20 -239 0 -324 8 -36 33 -103 56 -150 78 -163 246 -295 438
-347 61 -17 241 -18 3170 -18 2969 0 3108 1 3170 18 126 35 225 92 309 175 88
88 140 173 178 287 23 69 27 97 27 205 0 110 -3 134 -27 202 -42 121 -13 76
-964 1490 l-254 378 354 437 c551 682 570 706 610 779 58 105 87 199 87 287 0
88 -28 203 -68 283 -80 159 -429 776 -465 823 -59 76 -161 159 -242 197 -131
61 -186 66 -627 62 l-393 -4 -88 -27 c-49 -15 -107 -37 -130 -49 -132 -67
-268 -190 -335 -304 -23 -39 -97 -220 -170 -414 -251 -666 -350 -897 -460
-1064 -137 -208 -459 -470 -686 -557 -86 -33 -203 -65 -211 -57 -3 2 35 150
84 329 49 178 95 353 101 389 18 94 15 237 -5 307 -41 143 -107 230 -309 407
-121 107 -260 269 -307 359 -49 93 -81 187 -99 282 -38 206 -51 259 -80 319
-36 76 -127 179 -198 225 -151 97 -405 137 -580 91z m306 -235 c127 -30 215
-94 258 -189 12 -28 32 -106 44 -173 41 -242 108 -413 219 -560 68 -89 246
-274 368 -382 94 -82 125 -129 148 -220 24 -93 10 -170 -107 -591 -84 -301
-101 -377 -102 -436 0 -108 35 -149 141 -163 127 -18 314 25 498 113 193 92
390 239 558 416 214 225 302 405 647 1315 65 171 128 331 140 355 13 25 53 75
91 112 78 77 195 140 293 157 35 7 205 11 411 11 391 0 426 -4 518 -63 29 -19
72 -55 95 -82 49 -55 454 -780 483 -863 11 -31 19 -82 19 -117 0 -116 -27
-156 -541 -790 -253 -313 -472 -587 -486 -607 -35 -51 -40 -110 -16 -173 11
-27 274 -428 585 -890 311 -462 580 -866 597 -897 98 -174 72 -381 -66 -529
-59 -63 -116 -95 -210 -119 -75 -20 -130 -20 -3114 -20 -2195 0 -3053 3 -3091
11 -214 45 -349 213 -350 434 0 133 56 248 164 335 31 25 251 150 490 279 240
129 443 245 455 260 35 40 56 124 50 193 -6 69 -40 131 -96 180 -22 18 -201
116 -398 217 -197 101 -384 202 -416 224 -62 43 -109 100 -151 186 -15 29
-147 389 -293 800 -416 1172 -377 1050 -377 1166 0 134 24 198 103 275 74 73
139 103 431 200 238 80 246 82 325 78 60 -3 94 -10 138 -30 73 -34 157 -117
194 -194 16 -32 119 -313 229 -624 216 -614 224 -630 291 -630 46 0 88 23 101
57 7 15 52 381 101 813 50 432 95 808 101 836 15 73 63 166 111 219 42 46 87
74 158 100 49 18 182 18 259 0z"/>
<path d="M3392 6287 c-45 -17 -89 -61 -119 -120 -24 -47 -32 -110 -119 -867
-52 -448 -99 -834 -105 -858 -14 -52 -77 -126 -133 -154 -26 -13 -67 -23 -113
-26 -88 -6 -143 17 -203 85 -47 53 -42 41 -286 732 -172 485 -192 538 -229
579 -46 53 -103 81 -163 82 -77 0 -528 -156 -607 -210 -59 -41 -90 -117 -82
-205 4 -45 88 -293 320 -945 173 -487 328 -913 345 -946 17 -34 48 -76 69 -93
21 -17 152 -90 293 -162 489 -252 521 -270 581 -329 34 -34 69 -82 90 -125 33
-67 34 -74 34 -180 -1 -133 -22 -198 -91 -274 -39 -43 -99 -79 -486 -288 -280
-151 -458 -253 -488 -280 -67 -60 -93 -125 -88 -217 5 -93 35 -156 97 -201 96
-70 -169 -65 3183 -65 3019 0 3026 0 3092 20 119 37 189 137 190 270 1 67 -2
81 -33 135 -19 33 -291 443 -605 910 -629 936 -623 926 -614 1055 3 42 14 85
31 120 15 31 119 169 234 311 825 1017 796 979 790 1064 -3 44 -31 102 -216
435 -180 328 -220 393 -265 436 -38 36 -67 54 -99 63 -69 17 -706 15 -772 -3
-105 -28 -216 -109 -255 -186 -10 -20 -70 -173 -133 -341 -297 -787 -396
-1005 -546 -1207 -165 -222 -445 -456 -701 -586 -191 -98 -370 -147 -535 -149
-157 -2 -260 40 -319 130 -37 56 -60 155 -53 231 4 34 52 227 107 428 55 201
104 393 109 427 15 110 -13 177 -103 247 -75 57 -329 319 -394 405 -103 137
-191 350 -227 545 -9 52 -21 118 -26 145 -14 76 -41 113 -105 142 -66 30 -198
41 -252 20z m138 -299 c43 -264 144 -512 287 -702 72 -96 336 -373 402 -421
28 -21 41 -37 41 -55 0 -14 -45 -189 -101 -390 -112 -407 -128 -492 -111 -609
34 -242 179 -404 417 -466 142 -37 387 -14 597 56 390 131 828 469 1067 824
150 223 269 495 571 1305 45 120 83 206 99 224 49 54 63 56 409 56 291 0 320
-2 334 -17 37 -42 389 -693 382 -705 -5 -7 -206 -258 -449 -558 -547 -678
-500 -617 -535 -692 -63 -135 -75 -255 -41 -390 27 -105 65 -175 206 -383 67
-99 261 -387 431 -640 169 -253 375 -559 456 -680 81 -121 148 -227 148 -237
0 -9 -7 -24 -16 -32 -14 -15 -303 -16 -3032 -16 -1659 0 -3022 4 -3028 8 -22
15 -22 40 -1 60 12 11 218 125 457 253 415 223 438 237 506 305 248 247 244
675 -10 928 -86 86 -127 110 -530 317 -224 114 -364 192 -373 206 -14 21 -623
1725 -638 1784 -8 31 -31 20 233 109 l203 69 10 -26 c5 -14 95 -269 200 -567
105 -297 207 -571 226 -608 68 -131 172 -219 306 -260 57 -17 86 -20 161 -15
149 9 260 60 358 164 77 83 116 180 132 333 3 30 44 385 91 789 47 404 85 738
85 743 0 4 9 8 19 8 16 0 21 -12 31 -72z"/>
<path d="M4845 654 c-110 -17 -269 -41 -352 -54 -84 -13 -152 -25 -150 -26 6
-6 700 -165 704 -161 2 2 2 65 1 138 l-3 135 -200 -32z"/>
</g>
</svg>
