<?xml version="1.0" standalone="no"?>
<!DOCTYPE svg PUBLIC "-//W3C//DTD SVG 20010904//EN"
 "http://www.w3.org/TR/2001/REC-SVG-20010904/DTD/svg10.dtd">
<svg version="1.0" xmlns="http://www.w3.org/2000/svg"
 width="960.000000pt" height="720.000000pt" viewBox="0 0 960.000000 720.000000"
 preserveAspectRatio="xMidYMid meet">

<g transform="translate(0.000000,720.000000) scale(0.100000,-0.100000)"
fill="#000000" stroke="none">
<path d="M3863 5716 c-135 -44 -243 -168 -260 -297 -3 -21 -11 -39 -17 -39
-37 0 -307 -45 -391 -65 -276 -66 -542 -191 -774 -365 -79 -60 -779 -696
-1071 -975 -157 -149 -293 -296 -412 -444 -110 -137 -688 -996 -723 -1076
-106 -239 -18 -560 202 -735 59 -46 174 -102 260 -126 81 -22 239 -29 315 -14
267 52 459 212 552 460 18 50 227 866 251 985 2 11 59 81 126 155 214 238 195
220 242 220 23 0 66 3 95 6 l52 7 0 -85 c0 -157 51 -282 159 -388 110 -108
215 -146 517 -185 151 -19 227 -10 330 40 154 75 262 248 304 485 6 30 14 260
20 510 6 250 14 468 18 484 8 28 20 34 235 114 125 47 230 82 234 79 3 -3 0
-228 -6 -499 -28 -1250 -35 -1817 -23 -1883 39 -211 199 -361 420 -395 114
-18 960 39 1110 75 142 34 279 133 366 263 24 37 85 148 135 248 108 216 139
251 251 285 91 27 120 23 243 -41 235 -122 476 -212 673 -250 153 -29 507 -51
1330 -80 339 -12 394 -7 514 52 134 65 252 219 281 366 31 164 -60 367 -215
476 -110 77 -405 228 -591 301 -116 46 -404 194 -1450 748 -280 148 -719 380
-974 514 -255 135 -516 268 -580 295 -185 79 -502 237 -1001 499 -256 135
-485 253 -510 263 -59 24 -182 30 -237 12z m720 -530 c313 -164 648 -334 745
-378 299 -134 387 -179 1372 -700 1434 -759 1693 -892 1835 -948 129 -51 413
-193 511 -255 87 -56 138 -139 138 -225 0 -69 -26 -121 -89 -179 -79 -73 -94
-76 -310 -74 -294 3 -1220 44 -1335 59 -218 29 -417 98 -740 257 -63 32 -140
62 -170 68 -66 12 -151 4 -240 -23 -175 -53 -266 -149 -390 -414 -94 -199
-170 -302 -252 -345 -82 -42 -225 -59 -808 -95 -295 -18 -334 -15 -413 36 -27
17 -57 48 -74 77 l-28 48 1 390 c1 215 9 770 19 1235 9 465 15 883 13 930 l-3
85 -70 8 c-42 4 -90 3 -120 -3 -93 -20 -648 -231 -677 -258 -76 -70 -85 -140
-97 -682 -11 -492 -15 -532 -71 -656 -36 -79 -89 -130 -157 -150 -46 -13 -68
-14 -146 -4 -260 33 -342 61 -411 141 -59 70 -67 111 -66 338 0 134 -3 201
-10 201 -6 0 -122 -9 -258 -21 -179 -15 -256 -25 -279 -37 -18 -9 -79 -69
-135 -133 -57 -64 -141 -157 -186 -208 -46 -51 -90 -107 -97 -125 -8 -18 -41
-147 -75 -287 -156 -650 -201 -795 -275 -885 -47 -58 -143 -120 -224 -144
-187 -59 -421 13 -524 160 -85 122 -101 284 -38 394 61 109 590 892 664 985
189 234 290 333 1027 1011 140 129 287 264 325 299 137 124 364 259 568 338
164 63 403 110 671 131 74 6 111 14 117 23 5 8 9 52 9 99 0 111 12 151 57 190
65 57 61 59 696 -274z"/>
<path d="M3988 5205 c-9 -161 -42 -203 -169 -210 -299 -18 -534 -57 -709 -121
-105 -37 -269 -121 -375 -191 -110 -73 -141 -101 -740 -654 -474 -439 -603
-569 -758 -764 -74 -93 -614 -891 -651 -962 -33 -65 -11 -170 49 -241 26 -29
53 -46 105 -66 172 -63 335 -5 410 148 22 44 67 209 153 552 68 269 133 510
145 536 13 26 80 109 149 185 69 76 153 170 187 209 73 84 125 126 186 147 41
15 472 57 580 57 50 0 111 -30 136 -67 17 -25 20 -54 24 -265 l5 -237 29 -30
c37 -38 59 -45 228 -71 167 -25 180 -21 212 52 42 96 47 139 56 583 5 237 12
457 15 490 14 135 69 260 141 324 35 31 95 56 356 153 172 64 331 122 353 129
49 17 232 17 292 0 57 -16 98 -53 119 -107 19 -51 19 -56 -12 -1711 -14 -704
-15 -918 -6 -938 7 -14 28 -33 48 -41 32 -13 64 -13 292 1 351 21 628 44 682
56 99 22 140 71 246 297 148 311 276 436 514 501 198 55 297 39 560 -89 274
-132 421 -183 605 -209 107 -16 532 -37 1188 -61 323 -12 337 -10 377 56 20
31 20 35 6 63 -9 16 -27 38 -40 49 -51 40 -348 189 -501 252 -171 70 -344 159
-1835 948 -997 527 -1078 568 -1380 705 -102 46 -427 210 -722 365 -296 155
-540 282 -542 282 -2 0 -6 -47 -8 -105z m945 -651 c83 -42 240 -116 347 -164
167 -74 534 -265 2140 -1115 289 -153 588 -309 708 -369 61 -31 112 -58 112
-59 0 -3 -58 -1 -440 19 -439 22 -535 46 -905 231 -196 98 -263 116 -425 116
-223 0 -444 -77 -604 -209 -110 -91 -185 -196 -296 -416 -55 -108 -104 -200
-109 -203 -19 -11 -718 -61 -728 -52 -3 3 5 491 16 1084 12 593 21 1108 21
1146 0 37 2 67 5 67 3 0 74 -34 158 -76z m-1854 9 c-58 -135 -78 -356 -79
-864 0 -261 -4 -302 -29 -297 -14 3 -17 28 -21 188 -5 178 -6 187 -34 248 -37
81 -131 171 -213 204 -50 20 -74 23 -186 23 l-127 -1 32 32 c109 106 353 323
407 362 62 44 248 152 263 152 4 0 -2 -21 -13 -47z m-2104 -2190 c-37 -140
-53 -163 -111 -163 -18 0 -35 4 -38 8 -4 7 171 282 180 282 1 0 -13 -57 -31
-127z"/>
<path d="M4844 4001 c3 -14 28 -172 56 -350 43 -276 60 -369 60 -325 0 5 36
162 79 349 44 187 79 340 78 341 -1 1 -64 4 -140 6 l-138 6 5 -27z"/>
</g>
</svg>
