<?xml version="1.0" standalone="no"?>
<!DOCTYPE svg PUBLIC "-//W3C//DTD SVG 20010904//EN"
 "http://www.w3.org/TR/2001/REC-SVG-20010904/DTD/svg10.dtd">
<svg version="1.0" xmlns="http://www.w3.org/2000/svg"
 width="960.000000pt" height="720.000000pt" viewBox="0 0 960.000000 720.000000"
 preserveAspectRatio="xMidYMid meet">

<g transform="translate(0.000000,720.000000) scale(0.100000,-0.100000)"
fill="#000000" stroke="none">
<path d="M8702 6950 c-93 -25 -208 -79 -401 -190 -200 -114 -810 -393 -1246
-570 -187 -76 -378 -155 -425 -175 -47 -20 -258 -102 -470 -181 -322 -120
-491 -176 -1030 -338 -766 -231 -770 -232 -1160 -336 -518 -138 -687 -199
-786 -283 -65 -57 -112 -158 -129 -279 -5 -41 -10 -48 -28 -48 -31 0 -107 -24
-158 -50 -80 -41 -126 -81 -204 -177 l-78 -95 7 -125 c12 -213 37 -258 403
-728 184 -236 218 -284 213 -305 -4 -18 -26 -37 -75 -65 -60 -35 -78 -40 -130
-40 -78 0 -120 24 -251 145 -228 208 -520 468 -573 508 -71 54 -199 117 -276
137 -77 19 -197 19 -266 -1 -83 -24 -186 -83 -389 -224 -102 -70 -284 -187
-405 -260 -462 -278 -574 -376 -627 -543 -24 -79 -24 -215 0 -295 52 -164 168
-268 531 -474 108 -61 669 -381 1246 -711 1658 -948 1638 -937 1762 -981 220
-78 419 -40 566 109 77 78 123 160 143 257 35 167 -21 356 -196 658 -50 86
-115 216 -157 315 -26 60 -33 89 -30 118 10 77 154 226 402 418 298 231 421
395 482 643 l27 107 85 56 c47 31 123 93 168 138 67 66 90 98 122 166 56 117
71 182 80 349 9 148 25 214 55 226 9 3 111 -26 228 -64 117 -39 237 -75 266
-81 75 -15 188 -14 255 4 70 18 184 74 252 125 70 52 181 172 239 261 27 41
51 76 53 78 1 2 29 -10 60 -27 134 -71 219 -76 408 -27 238 63 921 344 1022
421 74 56 146 172 593 954 156 272 304 529 330 571 166 264 196 448 105 636
-41 83 -145 193 -222 235 -108 59 -255 73 -391 38z m265 -336 c20 -17 48 -50
61 -75 42 -79 23 -152 -88 -328 -26 -42 -172 -294 -325 -561 -310 -542 -475
-821 -509 -863 -50 -62 -916 -407 -1021 -407 -50 0 -68 11 -160 99 -44 43 -95
83 -112 90 -77 31 -155 -23 -233 -159 -123 -214 -230 -335 -341 -388 -107 -51
-136 -47 -442 54 -295 98 -308 99 -416 45 -167 -85 -227 -195 -242 -441 -4
-79 -13 -167 -20 -195 -29 -122 -93 -195 -272 -309 -56 -36 -113 -79 -126 -96
-15 -21 -31 -72 -47 -148 -48 -231 -128 -341 -398 -549 -166 -128 -373 -327
-430 -414 -52 -79 -77 -152 -83 -241 -5 -63 -2 -89 18 -150 25 -75 142 -317
273 -563 125 -232 135 -319 48 -406 -92 -91 -162 -89 -359 13 -99 51 -1357
768 -2218 1263 -126 73 -354 202 -505 287 -461 259 -502 293 -502 409 0 108
52 151 537 444 115 69 286 179 380 244 231 161 262 176 350 176 76 -1 124 -19
200 -79 66 -51 341 -295 485 -430 153 -144 278 -233 371 -265 83 -29 187 -37
264 -21 75 16 287 124 335 171 41 40 83 152 102 273 14 90 34 55 -213 372
-250 322 -365 478 -390 526 -37 72 -26 141 31 192 52 47 103 59 240 60 114 1
117 0 190 -36 90 -44 240 -164 292 -233 21 -28 55 -85 75 -127 l38 -77 50 0
c28 0 88 6 134 12 l83 12 -45 60 c-79 105 -254 281 -390 393 -72 59 -153 127
-179 150 -60 56 -93 120 -85 169 17 103 49 116 670 283 398 106 533 145 1312
380 513 154 1045 342 1425 502 91 39 264 110 385 158 297 119 390 160 810 355
197 92 427 206 510 253 212 122 292 154 377 150 57 -3 72 -8 105 -34z"/>
<path d="M8710 6359 c-30 -17 -100 -57 -155 -89 -148 -87 -917 -440 -1250
-575 -159 -64 -357 -145 -440 -180 -82 -35 -325 -128 -540 -208 -517 -193
-1436 -473 -2370 -722 -137 -37 -253 -70 -257 -74 -4 -3 43 -46 103 -96 189
-154 429 -417 486 -532 33 -69 31 -170 -5 -221 -51 -71 -172 -109 -377 -119
-124 -6 -168 2 -236 45 -39 25 -53 45 -98 133 -61 120 -78 139 -184 220 -81
61 -149 91 -168 72 -7 -7 65 -107 226 -314 265 -342 310 -405 325 -457 24 -88
4 -234 -55 -399 -59 -167 -118 -223 -356 -342 -140 -69 -224 -91 -352 -91
-132 0 -258 36 -388 111 -98 56 -151 99 -336 270 -242 225 -443 399 -480 417
l-32 15 -133 -95 c-192 -137 -260 -181 -478 -313 -270 -162 -370 -226 -370
-236 0 -4 60 -42 132 -83 73 -42 563 -322 1088 -622 952 -544 1693 -966 1824
-1039 56 -31 68 -34 62 -19 -4 11 -56 109 -116 219 -110 203 -165 320 -215
455 -37 100 -46 256 -21 363 52 217 230 435 572 700 254 196 291 244 331 436
14 64 33 135 43 159 28 63 114 148 220 217 178 115 190 133 190 286 0 311 128
548 359 667 102 53 170 72 259 72 67 0 102 -9 331 -85 142 -47 265 -85 275
-85 46 0 183 170 267 330 45 85 146 188 224 226 54 26 70 29 155 29 85 0 101
-3 154 -30 32 -16 89 -58 126 -92 37 -35 73 -63 78 -63 14 0 642 251 737 295
l73 33 82 138 c45 75 215 370 378 653 162 284 313 544 335 579 22 35 38 65 35
67 -2 2 -28 -10 -58 -26z m-865 -941 c-64 -112 -122 -208 -128 -215 -11 -10
-507 -213 -522 -213 -4 0 -37 18 -73 40 -85 50 -166 79 -266 94 l-78 12 78 31
c219 86 874 358 979 406 66 30 122 53 124 51 2 -2 -49 -95 -114 -206z m-1584
-510 c-57 -56 -110 -130 -160 -223 -17 -33 -40 -71 -50 -84 l-18 -24 -168 57
c-93 32 -200 63 -238 70 l-70 11 229 69 c126 37 294 92 374 122 80 29 147 53
149 54 3 0 -19 -23 -48 -52z m-1281 -385 c-62 -47 -175 -166 -220 -233 -52
-77 -115 -214 -131 -287 -7 -29 -15 -53 -18 -53 -3 0 -19 29 -34 64 -29 65
-135 214 -210 295 l-40 44 209 58 c115 32 268 76 339 98 72 22 132 40 135 40
3 1 -11 -11 -30 -26z m-807 -1315 c-8 -24 -23 -85 -33 -137 -13 -66 -25 -100
-40 -115 l-22 -21 9 60 c4 33 8 101 8 150 0 98 3 103 61 104 l32 1 -15 -42z
m-2100 -657 c297 -275 439 -363 697 -433 99 -28 360 -31 460 -6 36 9 66 16 67
14 1 -1 -9 -33 -23 -71 -45 -123 -57 -200 -58 -357 l-1 -147 -30 19 c-16 10
-421 242 -900 515 -478 274 -872 500 -875 503 -3 2 0 7 7 9 7 3 88 55 180 117
l168 112 70 -60 c39 -32 146 -129 238 -215z"/>
<path d="M605 1663 c-38 -65 -75 -127 -82 -139 -13 -20 -4 -24 393 -163 224
-78 409 -140 410 -138 5 5 -633 557 -643 557 -5 0 -40 -53 -78 -117z"/>
</g>
</svg>
