<?xml version="1.0" standalone="no"?>
<!DOCTYPE svg PUBLIC "-//W3C//DTD SVG 20010904//EN" "http://www.w3.org/TR/2001/REC-SVG-20010904/DTD/svg10.dtd">
<svg version="1.0" xmlns="http://www.w3.org/2000/svg"
 width="960.000000pt" height="720.000000pt" viewBox="0 0 960.000000 720.000000"
 preserveAspectRatio="xMidYMid meet">

<g transform="translate(0.000000,720.000000) scale(0.100000,-0.100000)" fill="#ffffff">
<path d="M2025 6254 c-209 -29 -297 -54 -429 -122 -98 -50 -203 -125 -311
-222 -95 -85 -134 -101 -275 -110 -170 -12 -262 -53 -341 -152 -47 -60 -74
-132 -100 -267 -34 -176 -51 -225 -193 -544 -118 -266 -137 -341 -193 -747
-36 -260 -37 -436 -5 -522 38 -105 85 -160 338 -394 134 -124 244 -228 244
-230 0 -3 -34 -54 -75 -114 -92 -133 -123 -199 -133 -281 -16 -141 19 -249
113 -348 75 -79 144 -111 363 -171 473 -128 814 -183 1311 -211 215 -12 568
-3 799 21 107 11 155 4 212 -34 44 -29 62 -58 89 -146 49 -157 160 -256 316
-283 89 -15 3443 68 3575 88 132 21 222 66 315 159 89 90 140 188 162 313 8
48 13 104 11 125 -2 22 1 38 7 38 16 0 210 -48 325 -80 220 -62 341 -60 485 9
182 87 247 160 390 441 57 113 139 261 183 330 105 167 186 322 207 394 12 42
16 82 13 137 -10 177 -115 287 -449 472 -285 158 -908 482 -1014 527 -226 97
-407 140 -592 140 -153 0 -1152 -94 -1219 -114 -64 -20 -164 -84 -198 -127
-14 -19 -69 -93 -121 -166 -53 -73 -99 -134 -104 -137 -20 -13 -530 -59 -656
-60 -152 -1 -245 12 -370 51 -236 74 -496 271 -631 479 -61 93 -157 288 -228
462 -55 134 -169 366 -228 460 -67 107 -162 225 -240 297 -155 143 -562 427
-733 512 -98 49 -204 86 -308 107 -78 16 -257 28 -312 20z m210 -245 c166 -23
282 -74 501 -215 341 -220 544 -395 653 -564 70 -107 188 -343 251 -500 191
-478 397 -735 754 -938 155 -89 323 -139 541 -163 125 -13 179 -10 600 32 241
24 305 33 325 48 29 21 64 65 192 245 93 130 124 158 188 176 55 14 1034 101
1137 101 109 -1 210 -20 353 -67 155 -52 282 -115 950 -472 259 -138 313 -170
407 -239 127 -92 133 -139 43 -311 -34 -63 -85 -152 -115 -198 -65 -100 -163
-277 -242 -439 -69 -142 -124 -203 -228 -254 -97 -48 -162 -47 -360 7 -169 46
-527 130 -593 139 l-44 6 6 -44 c3 -24 11 -110 17 -191 15 -204 -3 -276 -91
-372 -49 -53 -107 -82 -190 -95 -80 -13 -3452 -97 -3504 -87 -51 10 -103 58
-116 109 -32 124 -87 210 -176 273 -121 87 -195 100 -439 77 -221 -20 -705
-23 -890 -5 -385 37 -626 78 -950 162 -283 73 -321 86 -367 128 -47 42 -60 70
-60 130 0 64 13 88 154 293 70 103 128 191 128 197 0 5 -140 139 -310 297
-199 184 -320 303 -337 332 -41 71 -41 150 2 468 52 390 59 414 210 755 97
219 129 313 164 480 45 217 66 239 242 251 173 11 275 54 404 170 147 131 226
183 356 230 140 51 296 68 434 48z"/>
<path d="M2014 5850 c-176 -25 -279 -78 -464 -240 -159 -139 -290 -196 -473
-207 -88 -5 -98 -8 -102 -27 -2 -12 -14 -68 -25 -126 -32 -155 -62 -243 -162
-469 -154 -349 -154 -349 -202 -714 -45 -336 -45 -356 -6 -401 17 -19 165
-159 330 -311 307 -285 320 -300 320 -374 -1 -55 -29 -108 -160 -297 -66 -95
-120 -182 -120 -193 0 -25 70 -48 365 -121 251 -62 422 -94 651 -119 403 -46
680 -50 1095 -15 169 14 195 14 270 0 219 -41 407 -200 471 -397 l22 -69 45 0
c217 -1 3341 82 3391 89 57 9 70 15 102 49 57 62 61 91 42 317 -9 108 -13 212
-9 231 8 45 64 101 109 110 42 7 288 -42 581 -117 351 -90 349 -90 432 -30 55
40 66 57 176 276 53 105 128 241 167 304 68 108 170 286 170 296 0 11 -140
101 -270 172 -243 133 -771 410 -891 467 -200 95 -353 136 -506 136 -48 0
-254 -16 -458 -35 -203 -19 -425 -39 -491 -44 -67 -6 -129 -14 -137 -17 -9 -3
-73 -84 -142 -179 -130 -179 -174 -225 -243 -249 -66 -24 -646 -80 -822 -80
-305 0 -551 64 -790 206 -376 224 -576 480 -800 1023 -127 307 -237 492 -369
618 -138 131 -499 386 -656 462 -138 67 -302 95 -441 75z m256 -258 c84 -29
131 -55 295 -165 282 -188 415 -301 490 -417 55 -84 151 -276 205 -410 60
-149 168 -371 233 -481 253 -430 722 -766 1200 -858 260 -50 366 -50 862 -1
355 36 385 41 473 85 89 45 168 123 276 273 49 68 94 125 100 128 23 8 894 85
962 85 88 0 210 -30 333 -83 126 -53 995 -510 1006 -528 3 -5 -26 -59 -64
-120 -38 -61 -112 -194 -163 -296 -81 -161 -96 -184 -113 -179 -114 32 -435
111 -570 140 -229 51 -322 53 -417 8 -114 -53 -193 -153 -219 -275 -9 -39 -8
-95 1 -225 7 -96 11 -176 8 -178 -2 -2 -643 -20 -1423 -39 -781 -19 -1495 -38
-1587 -41 l-167 -7 -22 44 c-96 189 -318 356 -542 407 -131 31 -181 33 -372
17 -470 -40 -877 -26 -1300 45 -115 19 -426 87 -434 95 -2 2 19 37 47 78 78
116 96 172 97 292 0 96 -2 103 -37 175 -36 73 -50 87 -338 353 -289 268 -300
279 -295 310 3 17 19 133 35 258 17 125 40 258 51 295 12 37 57 149 101 248
101 227 143 336 173 449 14 49 30 93 36 97 7 4 33 10 58 14 64 10 214 69 291
115 36 21 114 82 174 135 119 104 214 159 306 174 75 13 184 6 250 -17z"/>
<path d="M5740 1290 c-58 -10 -216 -34 -352 -55 -136 -21 -247 -40 -245 -41 6
-6 700 -165 703 -161 3 2 3 65 2 139 l-3 134 -105 -16z"/>
</g>
</svg>
