<?xml version="1.0" standalone="no"?>
<!DOCTYPE svg PUBLIC "-//W3C//DTD SVG 20010904//EN"
 "http://www.w3.org/TR/2001/REC-SVG-20010904/DTD/svg10.dtd">
<svg version="1.0" xmlns="http://www.w3.org/2000/svg"
 width="960.000000pt" height="720.000000pt" viewBox="0 0 960.000000 720.000000"
 preserveAspectRatio="xMidYMid meet">

<g transform="translate(0.000000,720.000000) scale(0.100000,-0.100000)"
fill="#000000" stroke="none">
<path d="M1065 6845 c-442 -12 -484 -16 -591 -56 -299 -112 -458 -414 -370
-701 41 -132 57 -152 739 -935 l659 -757 575 -1150 575 -1151 196 -280 c108
-154 238 -334 289 -400 187 -240 306 -416 413 -612 l108 -197 94 -47 c126 -65
211 -83 347 -76 97 5 237 38 1686 402 869 218 1817 457 2107 530 l527 133 318
147 c407 189 435 203 511 260 122 92 224 250 257 400 33 148 25 193 -145 830
-156 587 -174 645 -231 743 -50 85 -199 229 -289 279 -99 56 -235 100 -345
113 -58 6 -664 10 -1697 10 -1563 0 -1609 -1 -1723 -20 -157 -27 -299 -75
-475 -161 l-145 -71 -290 -294 c-160 -162 -298 -294 -307 -294 -9 0 -23 6 -31
14 -28 29 -497 912 -497 937 0 33 38 68 82 75 50 9 235 -21 416 -66 164 -41
354 -76 582 -107 98 -13 199 -18 370 -18 206 0 249 3 350 23 278 57 522 167
745 336 170 129 342 314 462 498 117 178 156 294 156 463 0 268 -136 477 -389
596 -44 21 -107 46 -140 54 -36 10 -465 52 -1116 110 l-1056 94 -974 181 -973
180 -170 -1 c-93 -1 -368 -8 -610 -14z m1703 -505 l977 -179 555 -55 c305 -30
773 -71 1040 -91 291 -22 510 -42 548 -52 114 -28 205 -105 247 -207 23 -55
21 -170 -4 -241 -42 -118 -177 -302 -329 -447 -221 -210 -467 -335 -767 -389
-104 -18 -144 -21 -300 -16 -263 8 -579 55 -859 127 -154 39 -344 70 -435 70
-135 0 -246 -47 -336 -141 -63 -66 -101 -141 -116 -226 -11 -67 -5 -116 23
-192 29 -78 534 -1011 564 -1042 37 -39 139 -88 211 -101 81 -15 177 2 262 45
53 27 98 70 307 292 218 232 255 266 332 313 100 60 251 122 379 155 l88 22
1665 0 1665 -1 78 -27 c132 -46 219 -114 281 -219 39 -67 327 -1151 329 -1238
2 -100 -25 -162 -103 -240 -63 -63 -74 -69 -401 -223 l-336 -158 -429 -109
c-236 -60 -1178 -297 -2094 -526 -1482 -372 -1674 -418 -1745 -418 -130 -1
-144 9 -241 188 -89 164 -205 335 -376 556 -61 80 -191 255 -287 390 l-176
245 -602 1195 -602 1195 -658 757 c-362 416 -666 773 -675 795 -44 99 -31 183
41 254 86 86 92 87 634 102 259 8 516 15 570 16 89 1 201 -18 1075 -179z"/>
<path d="M1080 6255 c-217 -7 -396 -13 -397 -14 -2 0 294 -344 658 -763 l661
-762 588 -1177 589 -1177 178 -249 c97 -136 218 -300 267 -363 152 -194 303
-410 368 -528 35 -63 70 -123 78 -134 15 -19 47 -12 2095 502 l2080 521 317
151 c175 83 328 162 340 175 16 17 22 35 21 61 -1 20 -67 281 -146 580 -136
512 -146 546 -177 577 -18 19 -56 44 -84 57 l-51 23 -1645 0 -1645 0 -85 -23
c-47 -12 -139 -49 -205 -82 l-120 -60 -245 -260 c-256 -272 -292 -303 -420
-353 -149 -59 -322 -62 -468 -8 -89 32 -198 99 -249 153 -29 31 -491 869 -574
1043 -53 110 -73 193 -72 295 3 258 156 490 397 604 107 51 163 61 326 60 156
0 294 -21 465 -69 347 -97 858 -150 1067 -111 337 64 648 274 849 574 61 91
77 144 54 178 -31 48 -54 52 -618 94 -296 22 -777 65 -1070 95 l-532 54 -945
176 -945 175 -155 -2 c-85 0 -333 -7 -550 -13z m1610 -500 l945 -175 832 -77
c457 -43 829 -81 827 -85 -9 -15 -140 -86 -206 -112 -97 -38 -196 -56 -311
-56 -170 0 -550 51 -672 90 -235 76 -499 115 -715 107 -179 -6 -264 -27 -415
-101 -243 -120 -436 -333 -521 -575 -14 -42 -29 -85 -34 -96 -6 -16 -18 1 -63
91 -53 106 -73 131 -496 626 -243 284 -441 519 -441 522 0 5 38 7 260 14 48 1
309 -43 1010 -173z m5648 -2370 c12 -12 202 -749 195 -756 -4 -4 -96 -49 -203
-99 l-195 -93 -1942 -487 -1942 -487 -57 86 c-74 111 -227 321 -319 436 -119
150 -394 543 -430 614 l-34 68 89 -34 c140 -52 218 -66 370 -66 171 1 285 28
445 108 l110 55 280 286 c258 265 285 290 350 320 146 69 16 65 1729 59 852
-2 1551 -7 1554 -10z"/>
<path d="M6555 744 c-220 -112 -392 -204 -383 -204 23 0 881 80 884 83 3 3
-90 315 -96 320 -3 2 -185 -88 -405 -199z"/>
</g>
</svg>
