<?xml version="1.0" standalone="no"?>
<svg version="1.0" xmlns="http://www.w3.org/2000/svg"
 width="960.000000pt" height="720.000000pt" viewBox="0 0 960.000000 720.000000"
 preserveAspectRatio="xMidYMid meet">

<g transform="translate(0.000000,720.000000) scale(0.100000,-0.100000)"
 fill="#ffffff" stroke="none">
<path d="M8401 6705 c-35 -8 -98 -26 -140 -39 -42 -14 -249 -77 -461 -141
-523 -158 -992 -306 -1373 -431 -369 -122 -408 -143 -493 -260 -65 -91 -94
-179 -94 -282 0 -92 14 -146 104 -386 36 -98 65 -181 62 -183 -2 -2 -158 -58
-347 -124 -686 -239 -855 -302 -929 -341 -41 -22 -188 -100 -325 -172 -138
-73 -271 -146 -297 -164 -93 -64 -163 -166 -192 -281 l-12 -45 -225 -141
c-123 -77 -254 -159 -291 -182 l-66 -42 -17 77 c-31 137 -73 220 -153 298 -53
52 -101 77 -234 124 -84 30 -119 47 -123 61 -8 24 -78 112 -119 150 -44 40
-136 86 -204 100 -34 7 -92 9 -142 6 -261 -18 -967 -268 -1464 -520 -115 -58
-151 -81 -200 -132 -115 -117 -251 -384 -381 -750 -102 -286 -115 -377 -115
-800 0 -143 -5 -304 -12 -358 -19 -156 9 -275 93 -383 42 -54 137 -127 190
-146 18 -6 145 -83 283 -171 402 -256 726 -458 801 -498 121 -65 240 -83 363
-54 169 40 313 161 388 327 55 121 156 323 195 390 38 64 54 78 388 338 192
148 372 296 401 327 60 68 136 214 210 402 l53 133 98 64 c271 175 965 601
1051 645 81 41 346 130 968 325 1527 478 3316 1047 3514 1116 l149 53 61 125
c59 122 61 127 64 221 6 146 17 108 -328 1109 -62 179 -126 352 -142 385 -38
74 -124 160 -204 202 -115 61 -223 76 -353 48z m196 -316 c64 -31 86 -64 136
-211 26 -73 114 -324 195 -558 200 -572 212 -620 176 -709 -18 -44 -43 -58
-204 -109 -52 -17 -392 -125 -755 -240 -758 -242 -1961 -622 -2660 -841 -577
-180 -848 -272 -935 -315 -120 -60 -922 -553 -1179 -724 l-103 -69 -60 -154
c-81 -211 -148 -349 -189 -388 -19 -17 -190 -153 -381 -301 -338 -263 -348
-272 -401 -352 -66 -100 -148 -255 -212 -400 -57 -128 -88 -168 -157 -202 -71
-35 -120 -34 -194 5 -70 38 -316 190 -739 458 -171 109 -336 210 -367 225 -97
46 -124 112 -98 239 9 43 13 139 11 317 -4 373 8 479 70 665 110 327 236 598
324 694 43 47 71 65 200 127 458 221 1057 433 1270 451 56 4 78 2 104 -11 44
-23 86 -94 107 -180 l17 -72 52 4 c58 5 155 -19 175 -43 7 -8 26 -15 42 -15
71 0 124 -47 148 -130 6 -19 31 -136 57 -260 25 -124 49 -229 53 -233 4 -4 34
11 67 33 47 33 73 43 119 49 68 8 49 -3 489 271 165 103 335 207 377 231 56
32 76 48 72 59 -27 69 -9 162 40 207 17 17 132 83 256 148 124 65 263 139 310
166 93 52 108 57 955 354 681 238 615 214 615 231 0 8 -56 169 -125 357 -87
239 -125 355 -125 385 0 52 30 113 67 140 51 36 1604 531 2223 708 65 18 108
17 157 -7z"/>
<path d="M8125 6064 c-831 -254 -1719 -536 -1733 -549 -2 -1 37 -112 87 -246
166 -455 178 -499 147 -572 -16 -39 -66 -83 -121 -107 -22 -10 -288 -104 -590
-210 -856 -299 -904 -317 -995 -369 -47 -27 -172 -93 -278 -147 l-193 -99 7
-30 c4 -16 9 -48 13 -71 l6 -40 130 48 c178 65 423 144 1409 453 753 236 1700
536 2583 817 290 92 292 93 286 118 -3 14 -79 234 -168 490 -89 256 -173 499
-187 540 -19 57 -29 75 -44 77 -10 0 -172 -46 -359 -103z m247 -470 c98 -278
123 -353 117 -359 -7 -6 -1512 -485 -1526 -485 -6 0 -13 30 -16 68 -5 60 -42
182 -136 445 l-20 58 23 9 c120 45 1466 460 1481 456 6 -1 40 -88 77 -192z"/>
<path d="M2205 3740 c-149 -39 -338 -105 -590 -205 -222 -88 -519 -222 -565
-255 -51 -36 -184 -329 -291 -640 l-43 -125 -7 -390 c-3 -214 -9 -400 -13
-411 -6 -16 -3 -22 11 -26 10 -3 185 -111 388 -240 431 -273 670 -421 680
-420 4 1 26 43 48 94 98 222 220 434 303 526 21 24 194 163 384 310 396 307
359 264 476 554 l71 178 -38 10 c-71 19 -98 91 -179 482 -49 235 -55 257 -76
262 -12 3 -40 21 -62 40 -40 32 -43 33 -111 28 -62 -4 -77 -1 -125 22 -65 32
-91 69 -115 164 -9 36 -21 67 -26 68 -6 2 -59 -10 -120 -26z m-4 -395 c66 -63
173 -119 261 -136 l57 -11 16 -77 c41 -194 89 -373 120 -445 l34 -79 -32 -78
-32 -79 -342 -266 c-399 -309 -438 -350 -588 -614 -27 -47 -50 -86 -51 -88 -1
-2 -142 85 -313 194 l-311 197 0 293 0 293 44 123 c52 145 93 249 148 374 l40
92 116 55 c166 78 389 170 592 243 96 35 177 63 179 64 2 0 30 -25 62 -55z"/>
<path d="M8610 4106 c-206 -45 -380 -84 -386 -87 -7 -2 12 -57 49 -146 38 -89
65 -139 72 -135 46 30 563 378 609 410 33 23 53 41 45 41 -8 -1 -183 -38 -389
-83z"/>
</g>
</svg>
