<?xml version="1.0" standalone="no"?>
<!DOCTYPE svg PUBLIC "-//W3C//DTD SVG 20010904//EN"
 "http://www.w3.org/TR/2001/REC-SVG-20010904/DTD/svg10.dtd">
<svg version="1.0" xmlns="http://www.w3.org/2000/svg"
 width="960.000000pt" height="720.000000pt" viewBox="0 0 960.000000 720.000000"
 preserveAspectRatio="xMidYMid meet">

<g transform="translate(0.000000,720.000000) scale(0.100000,-0.100000)"
fill="#000000" stroke="none">
<path d="M1425 6996 c-137 -36 -218 -79 -300 -161 -110 -109 -161 -225 -199
-450 -9 -49 -118 -850 -242 -1780 -219 -1629 -227 -1696 -228 -1860 -1 -214
-5 -196 174 -661 7 -17 -11 -41 -109 -146 -170 -183 -220 -302 -207 -486 19
-260 169 -457 401 -529 58 -17 170 -18 2850 -18 2815 0 3753 3 4430 16 408 7
425 9 625 82 244 89 407 177 501 271 138 136 202 391 153 605 -20 90 -63 173
-231 442 -122 194 -1126 1847 -1318 2169 -367 615 -766 1261 -963 1560 -126
192 -171 251 -242 321 -196 193 -363 260 -615 246 -212 -11 -395 -103 -593
-299 -147 -145 -209 -257 -420 -758 -178 -424 -196 -491 -197 -715 0 -133 4
-163 29 -260 64 -249 142 -434 235 -556 112 -147 344 -337 492 -403 31 -13
155 -54 275 -91 265 -80 345 -116 423 -190 57 -54 119 -150 106 -163 -4 -4
-238 -9 -521 -11 l-514 -3 0 86 c0 148 -35 254 -123 373 -73 98 -140 149 -842
633 -176 121 -315 229 -315 244 0 6 7 52 15 101 26 148 31 356 11 452 -51 252
-229 502 -436 612 -66 35 -287 111 -324 111 -34 0 -117 64 -316 246 -304 277
-378 355 -473 499 -143 218 -247 316 -432 405 -191 92 -374 114 -560 66z m282
-341 c150 -35 295 -143 389 -289 26 -39 63 -96 83 -126 48 -73 178 -207 386
-399 368 -340 375 -344 595 -415 97 -30 196 -68 220 -84 94 -60 199 -206 230
-322 18 -65 14 -216 -10 -367 -23 -151 -25 -228 -8 -287 21 -72 154 -187 453
-395 94 -64 280 -194 414 -287 261 -180 351 -254 382 -316 69 -134 2 -291
-148 -348 -90 -34 -180 -35 -433 -5 -591 69 -1290 147 -1528 170 -225 23 -271
25 -315 14 -84 -19 -138 -49 -197 -109 -56 -56 -168 -210 -153 -210 4 0 168
-14 363 -30 l355 -30 1884 0 c1666 0 1887 2 1907 15 74 48 99 265 48 407 -53
147 -101 227 -193 322 -154 158 -234 200 -581 306 -143 43 -260 85 -298 106
-126 70 -277 211 -346 323 -39 61 -89 197 -126 336 -46 178 -43 297 12 465 31
96 262 640 319 750 83 163 201 286 352 366 l72 39 120 0 c143 0 172 -11 278
-101 128 -109 371 -492 1442 -2274 669 -1113 820 -1361 1000 -1645 262 -414
277 -447 256 -566 -12 -72 -33 -118 -69 -152 -61 -58 -325 -175 -490 -218 -72
-19 -124 -21 -802 -28 -1524 -16 -6646 -21 -6748 -6 -27 4 -55 17 -77 36 -64
56 -94 194 -61 274 8 18 67 89 131 157 64 68 141 153 172 190 47 58 54 72 48
95 -3 16 -46 129 -95 253 -125 320 -132 346 -132 465 0 107 1 118 153 1275
102 787 121 922 240 1775 81 582 83 598 110 688 33 111 100 162 247 187 70 11
81 11 149 -5z"/>
<path d="M1574 6400 c-17 -7 -24 -23 -33 -74 -40 -229 -271 -1943 -451 -3341
-26 -205 -27 -303 -2 -375 11 -30 61 -161 113 -290 91 -231 93 -236 93 -320 0
-119 -21 -153 -246 -402 l-79 -86 2788 3 c2812 3 4143 10 4418 25 142 7 156
10 255 47 141 54 240 102 247 119 6 17 -86 179 -231 408 -134 209 -360 582
-981 1616 -1056 1757 -1302 2146 -1414 2238 -52 42 -57 44 -103 39 -60 -7
-134 -55 -211 -135 -66 -70 -114 -166 -270 -537 -151 -359 -152 -360 -151
-485 0 -86 5 -122 28 -194 55 -181 83 -234 165 -316 117 -116 170 -146 356
-202 348 -105 442 -143 581 -240 94 -64 260 -236 308 -317 44 -77 118 -246
142 -328 20 -69 22 -226 4 -323 -38 -205 -112 -305 -262 -352 -57 -17 -140
-18 -1959 -18 -1818 0 -1910 1 -2137 20 -333 28 -604 58 -644 72 -114 38 -168
157 -119 264 23 51 138 218 212 309 92 112 181 171 329 216 129 40 155 38
1427 -107 746 -84 827 -92 838 -75 9 16 -107 102 -545 401 -265 181 -442 315
-543 410 -171 162 -207 310 -152 624 9 49 17 127 18 175 2 81 0 90 -32 149
-55 101 -62 105 -306 181 -71 22 -152 54 -180 70 -72 42 -186 136 -385 319
-356 325 -470 449 -561 609 -82 144 -235 240 -325 203z m681 -1110 c208 -187
351 -300 436 -345 37 -19 121 -53 186 -74 l118 -38 -1 -39 c0 -21 -9 -104 -19
-184 -16 -125 -16 -159 -6 -247 26 -227 117 -407 279 -553 l67 -60 -35 0 c-20
0 -71 4 -115 10 -223 27 -592 60 -682 60 -161 0 -309 -37 -465 -117 -160 -82
-287 -210 -453 -457 -52 -77 -95 -132 -95 -123 0 10 77 591 170 1292 94 701
170 1280 170 1286 0 7 64 -51 143 -127 78 -77 214 -204 302 -284z m3987 -230
c151 -244 618 -1013 639 -1052 7 -13 -20 7 -59 43 -233 216 -419 306 -916 444
-50 14 -70 27 -121 78 -56 57 -63 69 -89 155 -20 66 -27 107 -24 140 3 30 49
153 127 337 68 160 128 299 133 309 12 22 51 -36 310 -454z m1442 -2379 c262
-431 475 -785 474 -786 -10 -8 -1312 -16 -3725 -21 l-2782 -7 1 114 c1 148
-10 193 -111 448 l-22 53 62 -52 c153 -127 209 -140 864 -202 l240 -23 1965 0
c1870 0 1969 1 2043 18 206 49 383 187 470 368 126 260 142 605 42 864 -5 11
-6 18 -3 15 3 -3 220 -358 482 -789z"/>
<path d="M2878 457 c-245 -40 -449 -75 -452 -77 -3 -3 197 -52 445 -109 248
-57 452 -101 453 -100 8 9 16 359 9 358 -4 0 -209 -33 -455 -72z"/>
</g>
</svg>
