<svg width="960" height="720" version="1.1" xmlns="http://www.w3.org/2000/svg" desc="Created with imagetracer.js version 1.2.6" style="background-color: #0b0b0f;">
  <path fill="rgb(30,30,35)" stroke="none" opacity="1" d="M 0 0 L 960 0 L 960 720 L 0 720 L 0 0 Z M 505 42 L 504 43 L 490 44 L 471 50 L 448 64 Q 434 75 425 92 L 383 202 L 323 349 L 252 548 L 249 549 L 227 549 L 226 550 L 204 550 L 203 551 L 181 551 L 180 552 L 156 552 L 155 553 L 117 553 L 116 554 L 99 555 Q 60 562 33 580 Q 22 588 15 600 L 9 615 Q 10 619 8 621 L 9 635 L 17 652 L 32 665 L 42 670 L 58 674 L 203 675 L 205 675 L 206 676 L 369 676 L 373 676 L 374 677 L 739 677 L 744 678 L 838 678 L 839 677 L 857 676 Q 888 669 909 652 L 923 638 L 939 615 L 946 601 L 952 578 L 952 555 L 949 540 Q 943 521 932 508 Q 920 493 903 484 L 878 474 L 861 471 L 841 471 L 824 474 Q 810 478 801 486 Q 782 501 778 531 L 738 530 L 737 529 L 714 529 L 713 528 L 691 528 L 690 527 L 670 527 L 669 526 L 648 526 L 647 525 L 627 525 L 626 523 L 644 511 Q 655 501 663 488 L 669 475 L 673 457 L 673 433 L 668 413 L 654 386 L 630 350 L 625 336 L 625 319 Q 627 307 633 300 Q 641 292 655 290 L 688 291 L 689 292 L 716 293 L 717 294 L 745 295 L 746 296 L 763 296 L 764 297 L 810 297 L 811 296 L 825 295 L 863 284 L 881 276 L 888 271 Q 903 260 907 238 L 907 219 Q 904 205 897 196 Q 884 180 863 173 L 755 144 L 751 144 L 724 137 L 715 137 L 714 136 L 690 137 L 689 138 L 682 138 L 674 140 L 667 140 L 659 142 L 652 142 L 623 147 L 608 148 L 610 138 L 610 124 L 605 102 Q 599 85 588 74 Q 575 58 556 50 L 529 43 L 505 42 Z M 336 235 L 291 306 L 295 308 L 321 318 L 336 239 L 336 235 Z " />

  <path fill="none" stroke="rgb(255,255,255)" stroke-width="2" opacity="1" d="M 466 222 L 483.5 234 L 498.5 241 L 512.5 245 L 531.5 246 L 532.5 245 L 540.5 245 L 541.5 244 L 555.5 243 L 570.5 240 L 566 245.5 Q 551.2 263.7 544 289.5 L 539 315.5 L 539 338.5 L 544 364.5 L 551 382.5 Q 566.1 411.4 585 436.5 L 588 442.5 L 588 445.5 L 574.5 455 L 539.5 446 Q 534 447.5 532.5 445 L 509.5 445 Q 483 449.5 470 467.5 L 460 487.5 L 458 498.5 L 458 508.5 L 462 528.5 L 475 565.5 Q 480.9 580.1 491 590.5 L 328 591 L 333 572.5 L 349 530.5 L 389 415.5 L 466 222 Z " />

  <path fill="rgb(129,127,130)" stroke="rgb(129,127,130)" stroke-width="1" opacity="1" d="M 522.5 74 L 525 74.5 L 522.5 75 L 522.5 74 Z " />
  <path fill="rgb(129,127,130)" stroke="rgb(129,127,130)" stroke-width="1" opacity="1" d="M 471.5 85 L 470.5 87 L 471.5 85 Z " />
  </svg>