<svg width="960" height="720" version="1.1" xmlns="http://www.w3.org/2000/svg" desc="Created with imagetracer.js version 1.2.6" ><path fill="rgb(0,0,0)" stroke="rgb(0,0,0)" stroke-width="1" opacity="0" d="M 0 0 L 960 0 L 960 720 L 0 720 L 0 0 Z M 871 74 L 870 75 L 852 77 L 849 79 L 843 79 L 831 83 L 826 83 L 814 86 L 808 89 L 803 89 L 740 112 L 687 140 L 673 150 L 666 153 L 660 158 L 643 167 L 622 181 L 620 181 L 562 219 L 560 219 L 539 234 Q 526 227 510 223 L 494 224 L 487 227 L 485 227 L 479 229 L 476 233 L 475 232 L 471 235 L 460 247 L 433 288 L 422 308 L 418 324 L 418 331 L 420 331 L 419 335 L 422 353 L 424 356 L 424 362 L 427 368 L 428 379 Q 431 380 429 382 Q 428 385 431 384 L 430 386 L 432 393 L 432 395 Q 431 398 434 397 L 433 399 Q 432 402 435 401 L 434 404 L 435 408 L 434 419 Q 436 420 433 422 L 434 425 L 430 437 L 420 450 Q 419 452 418 450 L 415 454 L 414 453 L 412 456 L 411 455 L 400 461 L 377 427 L 360 413 L 344 407 L 332 406 L 331 405 L 310 406 L 301 408 L 295 411 L 291 411 L 272 423 Q 261 432 254 443 L 226 431 L 209 427 L 187 428 L 172 434 L 170 434 L 167 435 L 164 439 L 163 438 L 161 441 L 160 440 L 156 443 Q 147 448 144 458 L 139 459 L 135 457 Q 130 456 129 458 L 126 456 L 118 456 L 117 455 L 92 453 L 91 452 L 77 452 L 76 451 L 63 452 L 46 457 L 25 472 Q 16 480 11 492 L 7 503 L 6 514 L 5 515 L 5 528 L 10 546 Q 17 562 28 575 L 43 589 L 58 599 L 84 607 L 88 606 L 91 608 L 389 607 L 390 606 L 410 606 L 411 605 L 425 604 L 449 597 L 477 585 L 493 573 Q 504 562 512 549 L 520 530 L 522 518 L 527 515 L 537 513 L 542 510 L 541 507 L 543 506 L 548 483 L 547 480 L 549 478 L 550 464 L 551 463 L 550 434 Q 548 432 549 427 L 547 425 L 548 423 L 547 411 L 546 410 L 546 400 L 545 399 L 544 353 L 543 352 Q 542 349 545 350 L 544 347 Q 543 344 546 345 Q 545 337 550 334 Q 564 339 575 348 L 578 348 L 586 352 L 590 356 L 597 358 L 621 401 Q 628 410 640 416 L 656 421 L 671 421 L 686 415 L 688 415 L 694 411 Q 711 399 715 374 L 714 358 L 707 342 L 706 336 L 702 330 L 695 313 L 689 291 L 689 289 Q 691 283 688 282 L 688 277 L 697 261 L 714 243 Q 715 240 717 242 L 719 239 L 721 239 L 722 237 L 724 237 L 726 234 L 729 233 Q 728 230 731 231 L 733 231 L 735 228 L 737 229 L 739 225 Q 749 219 763 216 L 766 217 Q 767 213 769 216 L 773 215 L 787 215 L 788 216 L 791 215 L 796 218 L 801 218 L 859 236 L 864 237 L 881 237 Q 882 233 884 236 L 901 231 L 907 227 L 909 227 L 910 225 L 912 225 L 913 223 L 915 223 L 921 218 Q 933 207 941 193 Q 948 181 951 167 L 953 165 L 955 156 L 955 134 L 953 127 L 946 109 L 939 100 Q 929 87 913 80 L 891 74 L 871 74 Z M 335 614 L 300 622 L 281 625 L 279 627 L 276 626 Q 274 629 273 627 L 270 628 Q 264 626 265 630 L 264 629 Q 259 629 259 632 L 263 634 L 266 633 L 268 635 Q 272 634 274 636 L 277 635 Q 277 638 282 637 Q 283 635 285 638 L 288 637 Q 288 640 293 639 Q 294 636 296 640 L 299 639 L 304 641 Q 305 639 307 642 L 310 641 L 313 643 L 316 642 Q 318 641 317 644 L 321 644 Q 322 641 324 645 L 327 644 Q 329 643 328 646 L 333 645 Q 335 644 334 647 L 338 646 L 339 646 L 339 616 Q 338 613 335 614 Z " /><path fill="rgb(0,0,0)" stroke="rgb(0,0,0)" stroke-width="1" opacity="0" d="M 320.5 494 L 337 521 L 290 520.5 Q 305.5 514 315 501.5 L 320.5 494 Z " /><path fill="rgb(0,0,0)" stroke="rgb(0,0,0)" stroke-width="1" opacity="0" d="M 205.5 514 L 212.5 518 L 224 521.5 L 200.5 522 L 199.5 523 L 205 516.5 L 205.5 514 Z " /><path fill="rgb(9,12,15)" stroke="rgb(9,12,15)" stroke-width="1" opacity="0.996078431372549" d="M 870.5 106 L 875.5 107 L 876.5 106 L 888.5 106 Q 899.5 108 907.5 113 L 915 120.5 L 923 138.5 L 923 140.5 L 923 150.5 L 922 151.5 L 923 154.5 Q 918.1 172.3 909 185 L 906 186.5 Q 906.8 188.8 904.5 188 L 896.5 197 L 882.5 204 L 873.5 205 L 871.5 205 L 867.5 204 L 865.5 204 L 795.5 184 L 793.5 185 L 790.5 183 L 768.5 183 L 765.5 184 L 764 183.5 Q 764.9 186.9 759.5 185 L 743.5 189 L 720.5 200 L 708.5 209 L 706 209 Q 707.1 211.7 704.5 211 L 695.5 217 L 683 228.5 Q 669.2 241.2 661 259.5 L 656 276.5 L 656 291.5 L 658 295.5 L 659 304.5 L 668 330.5 L 682 360.5 L 683 368.5 L 682 370.5 L 683 373.5 Q 680.9 381.9 674.5 386 Q 670.4 389.9 661.5 389 L 659.5 388 L 657.5 389 L 649 385 Q 650.1 382.3 647.5 383 Q 643.9 380.9 644 376 Q 641.3 377.1 642 374.5 L 620 334 L 566.5 306 L 540 295 L 538.5 298 L 532.5 302 L 530 302 L 529.5 305 L 527.5 304 L 524 308.5 L 514 336.5 L 512 346.5 L 512 371.5 Q 509.7 372.8 511 377.5 L 512 378.5 Q 510.6 387.4 513 392.5 L 512 394.5 Q 514.9 398.1 514 405.5 L 513 407.5 L 515 415.5 L 515 417.5 Q 514.1 425.9 517 430.5 L 517 432.5 L 518 438.5 L 518 440.5 L 519 456.5 L 518 459.5 L 519 462.5 L 516 479.5 L 508.5 489 L 500.5 491 L 494.5 491 L 492 490 L 491 492.5 L 491 510.5 L 490 511.5 L 491 514.5 L 487 528.5 L 479.5 540 Q 476.9 539.2 478 542.5 L 471 548.5 L 466.5 554 L 464 554 L 464 556 L 461 556 Q 462.1 558.7 459.5 558 Q 440.3 569.3 413.5 573 L 411.5 573 L 404.5 574 L 402.5 574 L 250.5 574 L 249.5 575 L 231.5 575 Q 230.3 572.8 225.5 574 L 224.5 575 L 177.5 576 L 172.5 575 L 171.5 576 L 94.5 576 L 92.5 576 L 85.5 575 L 68.5 568 L 52 553.5 Q 52.8 551.3 50.5 552 L 41 537.5 L 37 525.5 L 38 523.5 Q 35.3 521.7 37 515.5 L 41 502.5 L 55.5 488 L 64.5 484 L 80.5 483 L 84.5 485 L 86.5 484 L 93.5 486 L 96.5 485 L 102.5 487 L 103.5 486 L 110 486 L 110.5 488 Q 111.8 485.8 116.5 487 L 119.5 489 L 121.5 489 Q 127 487.5 128.5 490 L 130.5 489 L 137.5 491 Q 139 488.5 144.5 490 L 148.5 492 L 153.5 491 L 163 486 Q 168.4 472.3 180.5 464 L 194.5 459 L 196.5 459 L 201.5 460 Q 202.8 457.7 207.5 459 L 224.5 464 L 248.5 476 L 259.5 477 Q 270.6 474.6 276 466.5 L 297.5 443 L 307.5 439 L 331.5 437 L 345.5 442 L 359 455.5 L 372 479.5 L 380.5 489 L 395.5 495 Q 428.5 488.5 447 467.5 L 459 449.5 L 463 438.5 L 465 424.5 L 467 420.5 Q 464.8 419.3 466 414.5 L 467 413.5 L 467 403.5 L 451 336.5 L 451 321.5 Q 468.4 285.9 493.5 258 Q 497.9 253.9 507.5 255 L 538.5 270 L 542.5 270 L 612.5 223 L 636.5 208 L 641 207 Q 639.9 204.3 642.5 205 L 684.5 179 L 750.5 142 L 771.5 133 L 806.5 121 L 832.5 115 L 836.5 113 L 845.5 112 L 870.5 106 Z M 879 126 L 839 134 L 810 142 L 757 162 Q 756 165 760 164 L 762 164 L 763 163 L 777 163 L 778 162 L 793 163 L 795 163 L 811 166 L 872 185 L 885 180 Q 898 168 903 147 L 903 145 L 900 135 L 892 128 L 879 126 Z M 663 217 Q 612 246 566 280 Q 562 279 563 282 L 632 317 L 634 321 L 640 326 Q 639 329 642 328 L 648 339 L 650 339 L 641 317 L 636 298 L 637 295 L 636 293 L 636 274 L 636 272 L 640 255 L 648 239 L 652 234 Q 651 231 654 232 L 654 230 L 657 228 L 661 222 Q 663 223 662 220 L 664 220 L 663 217 Z M 503 276 L 471 329 L 487 399 L 487 401 L 487 423 L 486 424 L 487 426 L 486 430 L 486 432 L 478 459 L 470 472 Q 467 471 468 475 L 465 476 L 462 482 L 459 483 L 454 490 Q 450 489 451 492 Q 433 508 406 515 L 401 514 Q 399 517 393 515 L 391 515 L 382 513 L 367 505 L 355 492 L 341 466 Q 337 460 331 458 L 315 459 L 301 466 L 292 480 L 290 481 L 286 486 Q 276 497 255 498 L 253 498 L 245 497 L 213 482 L 200 479 L 188 484 L 188 487 L 183 493 Q 184 495 181 494 L 179 499 Q 170 508 156 512 L 152 511 L 150 512 L 146 511 L 144 512 L 134 510 L 126 510 L 124 510 L 117 508 L 115 509 L 100 506 L 98 507 Q 96 505 91 506 L 89 506 L 81 504 Q 69 502 64 508 L 58 516 L 58 524 L 67 540 L 81 551 L 97 556 L 102 555 L 116 555 L 117 556 L 216 555 L 217 554 L 399 554 L 400 553 L 409 553 L 413 551 L 420 551 L 443 543 L 456 536 Q 463 529 468 519 L 471 508 L 471 483 Q 472 476 478 474 Q 480 475 479 472 L 488 470 L 490 470 L 496 470 L 496 468 L 496 466 L 498 462 L 498 443 L 496 439 L 497 436 L 495 430 L 496 428 L 493 415 L 494 412 L 493 411 L 493 398 L 492 397 L 492 382 L 491 381 L 491 352 L 491 350 L 492 344 L 492 342 L 495 326 L 502 306 L 507 296 L 513 291 L 519 283 L 503 276 Z M 649 341 Q 648 345 651 344 Q 652 340 649 341 Z M 652 346 L 652 349 L 653 349 Q 654 345 652 346 Z " /><path fill="rgb(119,121,118)" stroke="rgb(119,121,118)" stroke-width="1" opacity="0.9647058823529412" d="M 873.5 106 L 876 106.5 L 873.5 107 L 873.5 106 Z " /><path fill="rgb(119,121,118)" stroke="rgb(119,121,118)" stroke-width="1" opacity="0.9647058823529412" d="M 910.5 115 L 914.5 120 L 910.5 115 Z " /><path fill="rgb(119,121,118)" stroke="rgb(119,121,118)" stroke-width="1" opacity="0.9647058823529412" d="M 915.5 121 L 916.5 123 L 915.5 121 Z " /><path fill="rgb(119,121,118)" stroke="rgb(119,121,118)" stroke-width="1" opacity="0.9647058823529412" d="M 869.5 127 L 872 127.5 L 869.5 128 L 869.5 127 Z " /><path fill="rgb(119,121,118)" stroke="rgb(119,121,118)" stroke-width="1" opacity="0.9647058823529412" d="M 922.5 139 Q 925.8 140.8 924 147.5 L 923 147.5 Q 923.6 140.8 922.5 139 Z " /><path fill="rgb(119,121,118)" stroke="rgb(119,121,118)" stroke-width="1" opacity="0.9647058823529412" d="M 902.5 146 L 903 148.5 L 902 148.5 L 902.5 146 Z " /><path fill="rgb(119,121,118)" stroke="rgb(119,121,118)" stroke-width="1" opacity="0.9647058823529412" d="M 759.5 161 L 759.5 164 Q 755.8 165 757 162 L 759.5 161 Z " /><path fill="rgb(119,121,118)" stroke="rgb(119,121,118)" stroke-width="1" opacity="0.9647058823529412" d="M 765.5 162 L 777 162.5 L 765.5 163 L 765.5 162 Z " /><path fill="rgb(119,121,118)" stroke="rgb(119,121,118)" stroke-width="1" opacity="0.9647058823529412" d="M 784.5 162 L 788 162.5 L 784.5 163 L 784.5 162 Z " /><path fill="rgb(119,121,118)" stroke="rgb(119,121,118)" stroke-width="1" opacity="0.9647058823529412" d="M 798.5 163 L 801 163.5 L 798.5 164 L 798.5 163 Z " /><path fill="rgb(119,121,118)" stroke="rgb(119,121,118)" stroke-width="1" opacity="0.9647058823529412" d="M 893.5 168 L 892.5 170 L 893.5 168 Z " /><path fill="rgb(119,121,118)" stroke="rgb(119,121,118)" stroke-width="1" opacity="0.9647058823529412" d="M 891.5 171 L 890.5 173 L 891.5 171 Z " /><path fill="rgb(119,121,118)" stroke="rgb(119,121,118)" stroke-width="1" opacity="0.9647058823529412" d="M 886.5 177 L 884.5 180 L 886.5 177 Z " /><path fill="rgb(119,121,118)" stroke="rgb(119,121,118)" stroke-width="1" opacity="0.9647058823529412" d="M 682.5 180 L 681.5 182 L 682.5 180 Z " /><path fill="rgb(119,121,118)" stroke="rgb(119,121,118)" stroke-width="1" opacity="0.9647058823529412" d="M 768.5 183 L 790.5 183 L 793 184.5 L 790.5 185 L 789.5 184 L 768.5 184 L 768.5 183 Z " /><path fill="rgb(119,121,118)" stroke="rgb(119,121,118)" stroke-width="1" opacity="0.9647058823529412" d="M 869.5 183 L 872 184.5 L 870.5 184 L 869.5 183 Z " /><path fill="rgb(119,121,118)" stroke="rgb(119,121,118)" stroke-width="1" opacity="0.9647058823529412" d="M 907.5 185 L 907 186.5 L 906.5 188 L 906 186.5 L 907.5 185 Z " /><path fill="rgb(119,121,118)" stroke="rgb(119,121,118)" stroke-width="1" opacity="0.9647058823529412" d="M 904.5 188 L 903 190.5 L 901.5 193 L 900 192.5 L 904.5 188 Z " /><path fill="rgb(119,121,118)" stroke="rgb(119,121,118)" stroke-width="1" opacity="0.9647058823529412" d="M 720.5 200 L 719.5 202 L 720.5 200 Z " /><path fill="rgb(119,121,118)" stroke="rgb(119,121,118)" stroke-width="1" opacity="0.9647058823529412" d="M 717.5 202 L 716.5 204 L 717.5 202 Z " /><path fill="rgb(119,121,118)" stroke="rgb(119,121,118)" stroke-width="1" opacity="0.9647058823529412" d="M 878.5 204 L 882 204.5 L 878.5 205 L 878.5 204 Z " /><path fill="rgb(119,121,118)" stroke="rgb(119,121,118)" stroke-width="1" opacity="0.9647058823529412" d="M 704.5 211 L 703.5 213 L 704.5 211 Z " /><path fill="rgb(119,121,118)" stroke="rgb(119,121,118)" stroke-width="1" opacity="0.9647058823529412" d="M 662.5 217 L 664 220 L 660.5 219 L 659 219.5 L 662.5 217 Z " /><path fill="rgb(119,121,118)" stroke="rgb(119,121,118)" stroke-width="1" opacity="0.9647058823529412" d="M 695.5 217 L 690.5 223 L 695.5 217 Z " /><path fill="rgb(119,121,118)" stroke="rgb(119,121,118)" stroke-width="1" opacity="0.9647058823529412" d="M 688.5 223 L 683.5 229 L 688.5 223 Z " /><path fill="rgb(119,121,118)" stroke="rgb(119,121,118)" stroke-width="1" opacity="0.9647058823529412" d="M 658.5 224 L 657.5 226 L 658.5 224 Z " /><path fill="rgb(119,121,118)" stroke="rgb(119,121,118)" stroke-width="1" opacity="0.9647058823529412" d="M 604.5 228 L 603.5 230 L 604.5 228 Z " /><path fill="rgb(119,121,118)" stroke="rgb(119,121,118)" stroke-width="1" opacity="0.9647058823529412" d="M 678.5 234 L 673.5 240 L 678.5 234 Z " /><path fill="rgb(119,121,118)" stroke="rgb(119,121,118)" stroke-width="1" opacity="0.9647058823529412" d="M 590.5 237 L 589.5 239 L 590.5 237 Z " /><path fill="rgb(119,121,118)" stroke="rgb(119,121,118)" stroke-width="1" opacity="0.9647058823529412" d="M 585.5 240 L 584.5 242 L 585.5 240 Z " /><path fill="rgb(119,121,118)" stroke="rgb(119,121,118)" stroke-width="1" opacity="0.9647058823529412" d="M 669.5 245 L 668.5 247 L 669.5 245 Z " /><path fill="rgb(119,121,118)" stroke="rgb(119,121,118)" stroke-width="1" opacity="0.9647058823529412" d="M 576.5 246 L 575.5 248 L 576.5 246 Z " /><path fill="rgb(119,121,118)" stroke="rgb(119,121,118)" stroke-width="1" opacity="0.9647058823529412" d="M 610.5 249 L 609.5 251 L 610.5 249 Z " /><path fill="rgb(119,121,118)" stroke="rgb(119,121,118)" stroke-width="1" opacity="0.9647058823529412" d="M 492.5 258 L 491.5 260 L 492.5 258 Z " /><path fill="rgb(119,121,118)" stroke="rgb(119,121,118)" stroke-width="1" opacity="0.9647058823529412" d="M 487.5 264 L 486.5 266 L 487.5 264 Z " /><path fill="rgb(119,121,118)" stroke="rgb(119,121,118)" stroke-width="1" opacity="0.9647058823529412" d="M 484.5 268 L 483.5 270 L 484.5 268 Z " /><path fill="rgb(119,121,118)" stroke="rgb(119,121,118)" stroke-width="1" opacity="0.9647058823529412" d="M 543.5 268 L 542.5 270 L 538 269.5 L 543.5 268 Z " /><path fill="rgb(119,121,118)" stroke="rgb(119,121,118)" stroke-width="1" opacity="0.9647058823529412" d="M 578.5 270 L 577.5 272 L 578.5 270 Z " /><path fill="rgb(119,121,118)" stroke="rgb(119,121,118)" stroke-width="1" opacity="0.9647058823529412" d="M 481.5 272 L 480.5 274 L 481.5 272 Z " /><path fill="rgb(119,121,118)" stroke="rgb(119,121,118)" stroke-width="1" opacity="0.9647058823529412" d="M 636.5 272 L 636 273.5 L 635.5 290 L 635 273.5 L 636.5 272 Z " /><path fill="rgb(119,121,118)" stroke="rgb(119,121,118)" stroke-width="1" opacity="0.9647058823529412" d="M 502.5 276 L 501.5 278 L 502.5 276 Z " /><path fill="rgb(119,121,118)" stroke="rgb(119,121,118)" stroke-width="1" opacity="0.9647058823529412" d="M 656.5 276 L 657 291.5 L 656 291.5 L 656.5 276 Z " /><path fill="rgb(119,121,118)" stroke="rgb(119,121,118)" stroke-width="1" opacity="0.9647058823529412" d="M 568.5 277 L 567.5 279 L 568.5 277 Z " /><path fill="rgb(119,121,118)" stroke="rgb(119,121,118)" stroke-width="1" opacity="0.9647058823529412" d="M 476.5 279 L 475.5 281 L 476.5 279 Z " /><path fill="rgb(119,121,118)" stroke="rgb(119,121,118)" stroke-width="1" opacity="0.9647058823529412" d="M 500.5 279 L 499.5 281 L 500.5 279 Z " /><path fill="rgb(119,121,118)" stroke="rgb(119,121,118)" stroke-width="1" opacity="0.9647058823529412" d="M 563.5 280 L 565 282.5 L 563 281.5 L 563.5 280 Z " /><path fill="rgb(119,121,118)" stroke="rgb(119,121,118)" stroke-width="1" opacity="0.9647058823529412" d="M 514.5 288 L 512.5 291 L 514.5 288 Z " /><path fill="rgb(119,121,118)" stroke="rgb(119,121,118)" stroke-width="1" opacity="0.9647058823529412" d="M 537.5 298 L 536.5 300 L 537.5 298 Z " /><path fill="rgb(119,121,118)" stroke="rgb(119,121,118)" stroke-width="1" opacity="0.9647058823529412" d="M 463.5 299 L 462.5 301 L 463.5 299 Z " /><path fill="rgb(119,121,118)" stroke="rgb(119,121,118)" stroke-width="1" opacity="0.9647058823529412" d="M 533.5 301 L 532.5 303 L 530.5 304 L 530 302 L 533.5 301 Z " /><path fill="rgb(119,121,118)" stroke="rgb(119,121,118)" stroke-width="1" opacity="0.9647058823529412" d="M 486.5 302 L 485.5 304 L 486.5 302 Z " /><path fill="rgb(119,121,118)" stroke="rgb(119,121,118)" stroke-width="1" opacity="0.9647058823529412" d="M 527.5 304 Q 530.1 303.3 529 306 L 524.5 309 L 526 306.5 L 527.5 304 Z " /><path fill="rgb(119,121,118)" stroke="rgb(119,121,118)" stroke-width="1" opacity="0.9647058823529412" d="M 483.5 307 L 482.5 309 L 483.5 307 Z " /><path fill="rgb(119,121,118)" stroke="rgb(119,121,118)" stroke-width="1" opacity="0.9647058823529412" d="M 634.5 320 L 637.5 324 L 634.5 320 Z " /><path fill="rgb(119,121,118)" stroke="rgb(119,121,118)" stroke-width="1" opacity="0.9647058823529412" d="M 450.5 322 L 451 330.5 L 450 330.5 L 450.5 322 Z " /><path fill="rgb(119,121,118)" stroke="rgb(119,121,118)" stroke-width="1" opacity="0.9647058823529412" d="M 471.5 328 L 473 331.5 L 472 331.5 L 471.5 328 Z " /><path fill="rgb(119,121,118)" stroke="rgb(119,121,118)" stroke-width="1" opacity="0.9647058823529412" d="M 646.5 337 L 647.5 339 L 646.5 337 Z " /><path fill="rgb(119,121,118)" stroke="rgb(119,121,118)" stroke-width="1" opacity="0.9647058823529412" d="M 623.5 340 L 624.5 342 L 623.5 340 Z " /><path fill="rgb(119,121,118)" stroke="rgb(119,121,118)" stroke-width="1" opacity="0.9647058823529412" d="M 649 341 Q 652.3 339.9 651 344 Q 647.7 345.1 649 341 Z " /><path fill="rgb(119,121,118)" stroke="rgb(119,121,118)" stroke-width="1" opacity="0.9647058823529412" d="M 512.5 346 L 513 349.5 L 512 349.5 L 512.5 346 Z " /><path fill="rgb(119,121,118)" stroke="rgb(119,121,118)" stroke-width="1" opacity="0.9647058823529412" d="M 651.5 346 Q 654.1 345.2 653 348.5 L 652 348.5 L 651.5 346 Z " /><path fill="rgb(119,121,118)" stroke="rgb(119,121,118)" stroke-width="1" opacity="0.9647058823529412" d="M 491.5 350 L 491 351.5 L 490.5 373 L 490 351.5 L 491.5 350 Z " /><path fill="rgb(119,121,118)" stroke="rgb(119,121,118)" stroke-width="1" opacity="0.9647058823529412" d="M 511.5 372 L 513 378.5 L 513 389.5 L 512 389.5 L 511.5 372 Z " /><path fill="rgb(119,121,118)" stroke="rgb(119,121,118)" stroke-width="1" opacity="0.9647058823529412" d="M 491.5 381 L 492 391.5 L 491 391.5 L 491.5 381 Z " /><path fill="rgb(119,121,118)" stroke="rgb(119,121,118)" stroke-width="1" opacity="0.9647058823529412" d="M 512.5 393 L 514 398.5 L 513 398.5 L 512.5 393 Z " /><path fill="rgb(119,121,118)" stroke="rgb(119,121,118)" stroke-width="1" opacity="0.9647058823529412" d="M 492.5 397 L 493 401.5 L 492 401.5 L 492.5 397 Z " /><path fill="rgb(119,121,118)" stroke="rgb(119,121,118)" stroke-width="1" opacity="0.9647058823529412" d="M 486.5 399 L 488 400.5 L 488 419.5 L 487 419.5 L 487 400.5 L 486.5 399 Z " /><path fill="rgb(119,121,118)" stroke="rgb(119,121,118)" stroke-width="1" opacity="0.9647058823529412" d="M 466.5 403 L 467 413.5 L 466 413.5 L 466.5 403 Z " /><path fill="rgb(119,121,118)" stroke="rgb(119,121,118)" stroke-width="1" opacity="0.9647058823529412" d="M 514.5 411 L 515 414.5 L 514 414.5 L 514.5 411 Z " /><path fill="rgb(119,121,118)" stroke="rgb(119,121,118)" stroke-width="1" opacity="0.9647058823529412" d="M 493.5 415 L 494 417.5 L 493 417.5 L 493.5 415 Z " /><path fill="rgb(119,121,118)" stroke="rgb(119,121,118)" stroke-width="1" opacity="0.9647058823529412" d="M 515.5 418 L 516 424.5 L 515 424.5 L 515.5 418 Z " /><path fill="rgb(119,121,118)" stroke="rgb(119,121,118)" stroke-width="1" opacity="0.9647058823529412" d="M 466.5 420 L 466 421.5 L 465.5 424 L 465 421.5 L 466.5 420 Z " /><path fill="rgb(119,121,118)" stroke="rgb(119,121,118)" stroke-width="1" opacity="0.9647058823529412" d="M 494.5 420 L 495 422.5 L 494 422.5 L 494.5 420 Z " /><path fill="rgb(119,121,118)" stroke="rgb(119,121,118)" stroke-width="1" opacity="0.9647058823529412" d="M 495.5 430 L 496 432.5 L 495 432.5 L 495.5 430 Z " /><path fill="rgb(119,121,118)" stroke="rgb(119,121,118)" stroke-width="1" opacity="0.9647058823529412" d="M 318.5 437 L 324 437.5 L 318.5 438 L 318.5 437 Z " /><path fill="rgb(119,121,118)" stroke="rgb(119,121,118)" stroke-width="1" opacity="0.9647058823529412" d="M 310.5 438 L 314 438.5 L 310.5 439 L 310.5 438 Z " /><path fill="rgb(119,121,118)" stroke="rgb(119,121,118)" stroke-width="1" opacity="0.9647058823529412" d="M 517.5 439 Q 520.8 440.8 519 447.5 L 518 447.5 Q 518.6 440.8 517.5 439 Z " /><path fill="rgb(119,121,118)" stroke="rgb(119,121,118)" stroke-width="1" opacity="0.9647058823529412" d="M 346.5 442 L 357.5 454 L 346.5 442 Z " /><path fill="rgb(119,121,118)" stroke="rgb(119,121,118)" stroke-width="1" opacity="0.9647058823529412" d="M 497.5 442 L 498 461.5 L 497 461.5 L 497.5 442 Z " /><path fill="rgb(119,121,118)" stroke="rgb(119,121,118)" stroke-width="1" opacity="0.9647058823529412" d="M 295.5 444 L 289.5 451 L 295.5 444 Z " /><path fill="rgb(119,121,118)" stroke="rgb(119,121,118)" stroke-width="1" opacity="0.9647058823529412" d="M 284.5 456 L 280.5 461 L 284.5 456 Z " /><path fill="rgb(119,121,118)" stroke="rgb(119,121,118)" stroke-width="1" opacity="0.9647058823529412" d="M 518.5 457 L 519 459.5 L 518 459.5 L 518.5 457 Z " /><path fill="rgb(119,121,118)" stroke="rgb(119,121,118)" stroke-width="1" opacity="0.9647058823529412" d="M 322.5 458 L 331 458.5 L 322.5 459 L 322.5 458 Z " /><path fill="rgb(119,121,118)" stroke="rgb(119,121,118)" stroke-width="1" opacity="0.9647058823529412" d="M 453.5 458 L 452.5 460 L 453.5 458 Z " /><path fill="rgb(119,121,118)" stroke="rgb(119,121,118)" stroke-width="1" opacity="0.9647058823529412" d="M 451.5 461 L 450.5 463 L 451.5 461 Z " /><path fill="rgb(119,121,118)" stroke="rgb(119,121,118)" stroke-width="1" opacity="0.9647058823529412" d="M 518.5 463 L 519 465.5 L 518 465.5 L 518.5 463 Z " /><path fill="rgb(119,121,118)" stroke="rgb(119,121,118)" stroke-width="1" opacity="0.9647058823529412" d="M 304.5 464 L 303.5 466 L 304.5 464 Z " /><path fill="rgb(119,121,118)" stroke="rgb(119,121,118)" stroke-width="1" opacity="0.9647058823529412" d="M 339.5 464 L 340.5 466 L 339.5 464 Z " /><path fill="rgb(119,121,118)" stroke="rgb(119,121,118)" stroke-width="1" opacity="0.9647058823529412" d="M 178.5 465 L 169.5 475 L 178.5 465 Z " /><path fill="rgb(119,121,118)" stroke="rgb(119,121,118)" stroke-width="1" opacity="0.9647058823529412" d="M 275.5 466 L 274.5 468 L 275.5 466 Z " /><path fill="rgb(119,121,118)" stroke="rgb(119,121,118)" stroke-width="1" opacity="0.9647058823529412" d="M 446.5 467 L 441.5 473 L 446.5 467 Z " /><path fill="rgb(119,121,118)" stroke="rgb(119,121,118)" stroke-width="1" opacity="0.9647058823529412" d="M 493.5 469 L 496 469.5 L 493.5 470 L 493.5 469 Z " /><path fill="rgb(119,121,118)" stroke="rgb(119,121,118)" stroke-width="1" opacity="0.9647058823529412" d="M 517.5 469 L 518 471.5 L 517 471.5 L 517.5 469 Z " /><path fill="rgb(119,121,118)" stroke="rgb(119,121,118)" stroke-width="1" opacity="0.9647058823529412" d="M 295.5 474 L 294.5 476 L 295.5 474 Z " /><path fill="rgb(119,121,118)" stroke="rgb(119,121,118)" stroke-width="1" opacity="0.9647058823529412" d="M 476.5 474 L 473.5 478 L 476.5 474 Z " /><path fill="rgb(119,121,118)" stroke="rgb(119,121,118)" stroke-width="1" opacity="0.9647058823529412" d="M 253.5 476 L 260 476.5 L 253.5 477 L 253.5 476 Z " /><path fill="rgb(119,121,118)" stroke="rgb(119,121,118)" stroke-width="1" opacity="0.9647058823529412" d="M 436.5 476 L 435.5 478 L 436.5 476 Z " /><path fill="rgb(119,121,118)" stroke="rgb(119,121,118)" stroke-width="1" opacity="0.9647058823529412" d="M 464.5 478 L 462.5 481 L 464.5 478 Z " /><path fill="rgb(119,121,118)" stroke="rgb(119,121,118)" stroke-width="1" opacity="0.9647058823529412" d="M 372.5 479 L 374.5 482 L 372.5 479 Z " /><path fill="rgb(119,121,118)" stroke="rgb(119,121,118)" stroke-width="1" opacity="0.9647058823529412" d="M 195.5 480 L 198 480.5 L 195.5 481 L 195.5 480 Z " /><path fill="rgb(119,121,118)" stroke="rgb(119,121,118)" stroke-width="1" opacity="0.9647058823529412" d="M 289.5 481 L 286.5 485 L 289.5 481 Z " /><path fill="rgb(119,121,118)" stroke="rgb(119,121,118)" stroke-width="1" opacity="0.9647058823529412" d="M 68.5 483 L 72 483.5 L 68.5 484 L 68.5 483 Z " /><path fill="rgb(119,121,118)" stroke="rgb(119,121,118)" stroke-width="1" opacity="0.9647058823529412" d="M 81.5 483 L 85 484.5 L 83.5 484 Q 80.5 484.5 81.5 483 Z " /><path fill="rgb(119,121,118)" stroke="rgb(119,121,118)" stroke-width="1" opacity="0.9647058823529412" d="M 375.5 483 L 380.5 489 L 375.5 483 Z " /><path fill="rgb(119,121,118)" stroke="rgb(119,121,118)" stroke-width="1" opacity="0.9647058823529412" d="M 97.5 485 L 101 485.5 L 97.5 486 L 97.5 485 Z " /><path fill="rgb(119,121,118)" stroke="rgb(119,121,118)" stroke-width="1" opacity="0.9647058823529412" d="M 470.5 485 L 471 503.5 L 470 503.5 L 470.5 485 Z " /><path fill="rgb(119,121,118)" stroke="rgb(119,121,118)" stroke-width="1" opacity="0.9647058823529412" d="M 117.5 487 L 120 488.5 L 118.5 488 L 117.5 487 Z " /><path fill="rgb(119,121,118)" stroke="rgb(119,121,118)" stroke-width="1" opacity="0.9647058823529412" d="M 187.5 487 L 186.5 489 L 187.5 487 Z " /><path fill="rgb(119,121,118)" stroke="rgb(119,121,118)" stroke-width="1" opacity="0.9647058823529412" d="M 121.5 488 Q 127.5 486.5 129 489.5 L 127.5 489 L 121.5 489 L 121.5 488 Z " /><path fill="rgb(119,121,118)" stroke="rgb(119,121,118)" stroke-width="1" opacity="0.9647058823529412" d="M 53.5 489 L 47.5 496 L 53.5 489 Z " /><path fill="rgb(119,121,118)" stroke="rgb(119,121,118)" stroke-width="1" opacity="0.9647058823529412" d="M 131.5 489 L 134 489.5 L 131.5 490 L 131.5 489 Z " /><path fill="rgb(119,121,118)" stroke="rgb(119,121,118)" stroke-width="1" opacity="0.9647058823529412" d="M 145.5 490 L 149 491.5 L 147.5 491 Q 144.5 491.5 145.5 490 Z " /><path fill="rgb(119,121,118)" stroke="rgb(119,121,118)" stroke-width="1" opacity="0.9647058823529412" d="M 151.5 490 L 154 490.5 L 151.5 491 L 151.5 490 Z " /><path fill="rgb(119,121,118)" stroke="rgb(119,121,118)" stroke-width="1" opacity="0.9647058823529412" d="M 501.5 490 L 504 490.5 L 501.5 491 L 501.5 490 Z " /><path fill="rgb(119,121,118)" stroke="rgb(119,121,118)" stroke-width="1" opacity="0.9647058823529412" d="M 184.5 491 L 183.5 493 L 184.5 491 Z " /><path fill="rgb(119,121,118)" stroke="rgb(119,121,118)" stroke-width="1" opacity="0.9647058823529412" d="M 491.5 492 L 492 507.5 L 491 507.5 L 491.5 492 Z " /><path fill="rgb(119,121,118)" stroke="rgb(119,121,118)" stroke-width="1" opacity="0.9647058823529412" d="M 356.5 493 L 359.5 497 L 356.5 493 Z " /><path fill="rgb(119,121,118)" stroke="rgb(119,121,118)" stroke-width="1" opacity="0.9647058823529412" d="M 391.5 493 Q 395.3 492.3 396 494.5 L 394.5 494 Q 390.5 494.8 391.5 493 Z " /><path fill="rgb(119,121,118)" stroke="rgb(119,121,118)" stroke-width="1" opacity="0.9647058823529412" d="M 401.5 493 L 404 493.5 L 401.5 494 L 401.5 493 Z " /><path fill="rgb(119,121,118)" stroke="rgb(119,121,118)" stroke-width="1" opacity="0.9647058823529412" d="M 448.5 493 L 450 493.5 L 442.5 499 L 444.5 496 L 448.5 493 Z " /><path fill="rgb(119,121,118)" stroke="rgb(119,121,118)" stroke-width="1" opacity="0.9647058823529412" d="M 180.5 496 L 179.5 498 L 180.5 496 Z " /><path fill="rgb(119,121,118)" stroke="rgb(119,121,118)" stroke-width="1" opacity="0.9647058823529412" d="M 260.5 497 L 263 497.5 L 260.5 498 L 260.5 497 Z " /><path fill="rgb(119,121,118)" stroke="rgb(119,121,118)" stroke-width="1" opacity="0.9647058823529412" d="M 178.5 499 L 177.5 501 L 178.5 499 Z " /><path fill="rgb(119,121,118)" stroke="rgb(119,121,118)" stroke-width="1" opacity="0.9647058823529412" d="M 440.5 499 L 439.5 501 L 440.5 499 Z " /><path fill="rgb(119,121,118)" stroke="rgb(119,121,118)" stroke-width="1" opacity="0.9647058823529412" d="M 363.5 501 L 364.5 503 L 363.5 501 Z " /><path fill="rgb(119,121,118)" stroke="rgb(119,121,118)" stroke-width="1" opacity="0.9647058823529412" d="M 71.5 504 L 74 504.5 L 71.5 505 L 71.5 504 Z " /><path fill="rgb(119,121,118)" stroke="rgb(119,121,118)" stroke-width="1" opacity="0.9647058823529412" d="M 78.5 504 L 81 504.5 L 78.5 505 L 78.5 504 Z " /><path fill="rgb(119,121,118)" stroke="rgb(119,121,118)" stroke-width="1" opacity="0.9647058823529412" d="M 84.5 505 L 87 505.5 L 84.5 506 L 84.5 505 Z " /><path fill="rgb(119,121,118)" stroke="rgb(119,121,118)" stroke-width="1" opacity="0.9647058823529412" d="M 470.5 505 L 471 507.5 L 470 507.5 L 470.5 505 Z " /><path fill="rgb(119,121,118)" stroke="rgb(119,121,118)" stroke-width="1" opacity="0.9647058823529412" d="M 93.5 506 L 97 506.5 L 93.5 507 L 93.5 506 Z " /><path fill="rgb(119,121,118)" stroke="rgb(119,121,118)" stroke-width="1" opacity="0.9647058823529412" d="M 131.5 510 L 134 510.5 L 131.5 511 L 131.5 510 Z " /><path fill="rgb(119,121,118)" stroke="rgb(119,121,118)" stroke-width="1" opacity="0.9647058823529412" d="M 400.5 514 L 399.5 516 L 396 515.5 L 400.5 514 Z " /><path fill="rgb(119,121,118)" stroke="rgb(119,121,118)" stroke-width="1" opacity="0.9647058823529412" d="M 58.5 515 L 59 523.5 L 58 523.5 L 58.5 515 Z " /><path fill="rgb(119,121,118)" stroke="rgb(119,121,118)" stroke-width="1" opacity="0.9647058823529412" d="M 458.5 532 L 455.5 536 L 458.5 532 Z " /><path fill="rgb(119,121,118)" stroke="rgb(119,121,118)" stroke-width="1" opacity="0.9647058823529412" d="M 63.5 533 L 64.5 535 L 63.5 533 Z " /><path fill="rgb(119,121,118)" stroke="rgb(119,121,118)" stroke-width="1" opacity="0.9647058823529412" d="M 67.5 539 L 69.5 542 L 67.5 539 Z " /><path fill="rgb(119,121,118)" stroke="rgb(119,121,118)" stroke-width="1" opacity="0.9647058823529412" d="M 474.5 545 L 471.5 549 L 474.5 545 Z " /><path fill="rgb(119,121,118)" stroke="rgb(119,121,118)" stroke-width="1" opacity="0.9647058823529412" d="M 46.5 546 L 48.5 549 L 46.5 546 Z " /><path fill="rgb(119,121,118)" stroke="rgb(119,121,118)" stroke-width="1" opacity="0.9647058823529412" d="M 404.5 552 L 409 552.5 L 404.5 553 L 404.5 552 Z " /><path fill="rgb(119,121,118)" stroke="rgb(119,121,118)" stroke-width="1" opacity="0.9647058823529412" d="M 232.5 553 L 399 553.5 L 232.5 554 L 232.5 553 Z " /><path fill="rgb(119,121,118)" stroke="rgb(119,121,118)" stroke-width="1" opacity="0.9647058823529412" d="M 94.5 554 L 101 555.5 L 96.5 556 L 94.5 554 Z " /><path fill="rgb(119,121,118)" stroke="rgb(119,121,118)" stroke-width="1" opacity="0.9647058823529412" d="M 181.5 554 L 216 554.5 L 181.5 555 L 181.5 554 Z " /><path fill="rgb(119,121,118)" stroke="rgb(119,121,118)" stroke-width="1" opacity="0.9647058823529412" d="M 116.5 555 L 146 555.5 L 116.5 556 L 116.5 555 Z " /><path fill="rgb(119,121,118)" stroke="rgb(119,121,118)" stroke-width="1" opacity="0.9647058823529412" d="M 147.5 555 L 156 555.5 L 147.5 556 L 147.5 555 Z " /><path fill="rgb(119,121,118)" stroke="rgb(119,121,118)" stroke-width="1" opacity="0.9647058823529412" d="M 59.5 560 L 61.5 563 L 59.5 560 Z " /><path fill="rgb(119,121,118)" stroke="rgb(119,121,118)" stroke-width="1" opacity="0.9647058823529412" d="M 417.5 572 L 420 572.5 L 417.5 573 L 417.5 572 Z " /><path fill="rgb(119,121,118)" stroke="rgb(119,121,118)" stroke-width="1" opacity="0.9647058823529412" d="M 403.5 573 L 402.5 575 L 250 574.5 L 402.5 574 L 403.5 573 Z " /><path fill="rgb(119,121,118)" stroke="rgb(119,121,118)" stroke-width="1" opacity="0.9647058823529412" d="M 225.5 574 L 231 574.5 L 224.5 576 L 196.5 576 L 196.5 575 L 224.5 575 L 225.5 574 Z " /><path fill="rgb(119,121,118)" stroke="rgb(119,121,118)" stroke-width="1" opacity="0.9647058823529412" d="M 172.5 575 L 177 575.5 L 171.5 577 L 98.5 577 L 98.5 576 L 171.5 576 L 172.5 575 Z " /><path fill="rgb(233,233,224)" stroke="rgb(233,233,224)" stroke-width="1" opacity="0.7098039215686275" d="M 870.5 74 L 890.5 74 L 912.5 80 Q 929 86.5 939 99.5 L 928.5 90 L 912.5 81 L 895.5 76 L 862.5 76 L 849.5 79 L 849.5 78 L 870.5 74 Z " /><path fill="rgb(233,233,224)" stroke="rgb(233,233,224)" stroke-width="1" opacity="0.7098039215686275" d="M 842.5 79 L 848 79.5 L 831.5 83 L 831.5 82 L 842.5 79 Z " /><path fill="rgb(233,233,224)" stroke="rgb(233,233,224)" stroke-width="1" opacity="0.7098039215686275" d="M 825.5 83 L 830 83.5 L 812.5 88 L 813.5 86 L 825.5 83 Z " /><path fill="rgb(233,233,224)" stroke="rgb(233,233,224)" stroke-width="1" opacity="0.7098039215686275" d="M 808.5 88 L 811 88.5 L 808.5 89 L 808.5 88 Z " /><path fill="rgb(233,233,224)" stroke="rgb(233,233,224)" stroke-width="1" opacity="0.7098039215686275" d="M 802.5 89 L 807 89.5 L 800.5 91 L 800.5 90 L 802.5 89 Z " /><path fill="rgb(233,233,224)" stroke="rgb(233,233,224)" stroke-width="1" opacity="0.7098039215686275" d="M 796.5 91 L 799 91.5 L 788.5 95 L 788.5 94 L 796.5 91 Z " /><path fill="rgb(233,233,224)" stroke="rgb(233,233,224)" stroke-width="1" opacity="0.7098039215686275" d="M 782.5 96 L 784 96.5 L 777.5 99 L 777.5 98 L 782.5 96 Z " /><path fill="rgb(233,233,224)" stroke="rgb(233,233,224)" stroke-width="1" opacity="0.7098039215686275" d="M 774.5 99 L 776 99.5 L 769.5 102 L 769.5 101 L 774.5 99 Z " /><path fill="rgb(233,233,224)" stroke="rgb(233,233,224)" stroke-width="1" opacity="0.7098039215686275" d="M 939.5 101 L 941.5 104 L 939.5 101 Z " /><path fill="rgb(233,233,224)" stroke="rgb(233,233,224)" stroke-width="1" opacity="0.7098039215686275" d="M 766.5 102 L 768 102.5 L 761.5 105 L 761.5 104 L 766.5 102 Z " /><path fill="rgb(233,233,224)" stroke="rgb(233,233,224)" stroke-width="1" opacity="0.7098039215686275" d="M 942.5 105 L 946 108.5 L 951 121.5 L 950 121.5 L 942.5 105 Z " /><path fill="rgb(233,233,224)" stroke="rgb(233,233,224)" stroke-width="1" opacity="0.7098039215686275" d="M 755.5 106 L 757 106.5 L 750.5 109 L 750.5 108 L 755.5 106 Z " /><path fill="rgb(233,233,224)" stroke="rgb(233,233,224)" stroke-width="1" opacity="0.7098039215686275" d="M 747.5 109 L 749 109.5 L 742.5 112 L 742.5 111 L 747.5 109 Z " /><path fill="rgb(233,233,224)" stroke="rgb(233,233,224)" stroke-width="1" opacity="0.7098039215686275" d="M 739.5 112 L 741 112.5 L 712.5 127 L 713.5 125 L 739.5 112 Z " /><path fill="rgb(233,233,224)" stroke="rgb(233,233,224)" stroke-width="1" opacity="0.7098039215686275" d="M 952.5 126 L 953 128.5 L 952 128.5 L 952.5 126 Z " /><path fill="rgb(233,233,224)" stroke="rgb(233,233,224)" stroke-width="1" opacity="0.7098039215686275" d="M 710.5 127 L 709.5 129 L 703.5 132 L 705.5 129 L 710.5 127 Z " /><path fill="rgb(233,233,224)" stroke="rgb(233,233,224)" stroke-width="1" opacity="0.7098039215686275" d="M 953.5 130 L 955 133.5 L 955 155.5 L 953 164.5 L 950.5 169 L 950 166.5 L 952 163.5 L 954 154.5 L 954 133.5 L 953.5 130 Z " /><path fill="rgb(233,233,224)" stroke="rgb(233,233,224)" stroke-width="1" opacity="0.7098039215686275" d="M 701.5 132 L 700.5 134 L 696.5 136 L 697.5 134 L 701.5 132 Z " /><path fill="rgb(233,233,224)" stroke="rgb(233,233,224)" stroke-width="1" opacity="0.7098039215686275" d="M 694.5 136 L 693.5 138 L 686.5 141 L 673.5 150 L 674.5 148 L 694.5 136 Z " /><path fill="rgb(233,233,224)" stroke="rgb(233,233,224)" stroke-width="1" opacity="0.7098039215686275" d="M 671.5 150 L 670.5 152 L 660.5 158 L 661.5 156 L 671.5 150 Z " /><path fill="rgb(233,233,224)" stroke="rgb(233,233,224)" stroke-width="1" opacity="0.7098039215686275" d="M 658.5 158 L 657.5 160 Q 595.8 195.3 538.5 235 L 540.5 232 L 619.5 181 L 621.5 181 L 658.5 158 Z " /><path fill="rgb(233,233,224)" stroke="rgb(233,233,224)" stroke-width="1" opacity="0.7098039215686275" d="M 947.5 176 L 948 177.5 L 946.5 180 L 946 178.5 L 947.5 176 Z " /><path fill="rgb(233,233,224)" stroke="rgb(233,233,224)" stroke-width="1" opacity="0.7098039215686275" d="M 945.5 181 L 946 182.5 Q 939.8 197.3 929.5 208 L 932 204.5 L 945.5 181 Z " /><path fill="rgb(233,233,224)" stroke="rgb(233,233,224)" stroke-width="1" opacity="0.7098039215686275" d="M 927 209 L 929 209.5 L 914.5 223 L 913 222.5 L 911.5 225 L 910 224.5 L 908.5 227 L 906.5 227 L 899.5 231 L 899.5 230 Q 915.7 222.7 927 210.5 L 927 209 Z " /><path fill="rgb(233,233,224)" stroke="rgb(233,233,224)" stroke-width="1" opacity="0.7098039215686275" d="M 767.5 214 L 769.5 214 L 788.5 214 L 790 215.5 L 787.5 216 L 786.5 215 L 772.5 215 L 768.5 216 Q 767 213.5 765.5 217 L 762.5 216 L 759.5 217 L 759.5 216 L 762.5 215 L 764.5 215 L 767.5 214 Z " /><path fill="rgb(233,233,224)" stroke="rgb(233,233,224)" stroke-width="1" opacity="0.7098039215686275" d="M 791.5 215 L 800 217.5 L 795.5 218 L 791.5 216 L 791.5 215 Z " /><path fill="rgb(233,233,224)" stroke="rgb(233,233,224)" stroke-width="1" opacity="0.7098039215686275" d="M 755.5 217 L 758 217.5 L 750.5 220 L 750.5 219 L 755.5 217 Z " /><path fill="rgb(233,233,224)" stroke="rgb(233,233,224)" stroke-width="1" opacity="0.7098039215686275" d="M 804.5 219 L 813 221.5 L 810.5 222 L 804.5 220 L 804.5 219 Z " /><path fill="rgb(233,233,224)" stroke="rgb(233,233,224)" stroke-width="1" opacity="0.7098039215686275" d="M 747.5 220 L 749 220.5 L 739 225 L 736.5 229 L 734.5 228 L 732.5 231 L 730.5 231 Q 728.3 230.3 729 232.5 L 726 233.5 L 723.5 237 L 722 236.5 L 720.5 239 L 719 238.5 L 716.5 242 Q 715.3 239.8 714 242.5 L 695.5 263 L 696 261.5 L 698 257.5 L 715.5 240 L 729.5 230 L 747.5 220 Z " /><path fill="rgb(233,233,224)" stroke="rgb(233,233,224)" stroke-width="1" opacity="0.7098039215686275" d="M 499.5 223 L 509.5 223 L 518 225.5 L 516.5 226 L 515.5 225 L 493.5 225 L 470 236 L 470 237.5 L 460.5 247 L 463 243.5 L 470.5 235 L 474.5 232 L 476 232.5 L 478.5 229 L 484.5 227 L 486.5 227 L 499.5 223 Z " /><path fill="rgb(233,233,224)" stroke="rgb(233,233,224)" stroke-width="1" opacity="0.7098039215686275" d="M 817.5 223 L 826 225.5 L 823.5 226 L 817.5 224 L 817.5 223 Z " /><path fill="rgb(233,233,224)" stroke="rgb(233,233,224)" stroke-width="1" opacity="0.7098039215686275" d="M 522.5 227 L 537 233.5 L 534.5 234 L 522.5 228 L 522.5 227 Z " /><path fill="rgb(233,233,224)" stroke="rgb(233,233,224)" stroke-width="1" opacity="0.7098039215686275" d="M 830.5 227 L 839 229.5 L 836.5 230 L 830.5 228 L 830.5 227 Z " /><path fill="rgb(233,233,224)" stroke="rgb(233,233,224)" stroke-width="1" opacity="0.7098039215686275" d="M 840.5 230 L 858.5 235 Q 868.6 233.4 874.5 236 Q 876 233.5 881.5 235 L 880.5 237 L 863.5 237 L 846.5 233 L 840.5 231 L 840.5 230 Z " /><path fill="rgb(233,233,224)" stroke="rgb(233,233,224)" stroke-width="1" opacity="0.7098039215686275" d="M 887.5 234 L 889 234.5 L 883.5 236 L 883.5 235 L 887.5 234 Z " /><path fill="rgb(233,233,224)" stroke="rgb(233,233,224)" stroke-width="1" opacity="0.7098039215686275" d="M 459.5 248 L 458.5 250 L 459.5 248 Z " /><path fill="rgb(233,233,224)" stroke="rgb(233,233,224)" stroke-width="1" opacity="0.7098039215686275" d="M 457.5 251 L 456.5 253 L 457.5 251 Z " /><path fill="rgb(233,233,224)" stroke="rgb(233,233,224)" stroke-width="1" opacity="0.7098039215686275" d="M 455.5 254 L 454.5 256 L 455.5 254 Z " /><path fill="rgb(233,233,224)" stroke="rgb(233,233,224)" stroke-width="1" opacity="0.7098039215686275" d="M 453.5 257 L 452.5 259 L 453.5 257 Z " /><path fill="rgb(233,233,224)" stroke="rgb(233,233,224)" stroke-width="1" opacity="0.7098039215686275" d="M 451.5 260 L 450.5 262 L 451.5 260 Z " /><path fill="rgb(233,233,224)" stroke="rgb(233,233,224)" stroke-width="1" opacity="0.7098039215686275" d="M 449.5 263 L 448.5 265 L 449.5 263 Z " /><path fill="rgb(233,233,224)" stroke="rgb(233,233,224)" stroke-width="1" opacity="0.7098039215686275" d="M 694.5 264 L 694 265.5 L 692.5 268 L 693 266.5 L 694.5 264 Z " /><path fill="rgb(233,233,224)" stroke="rgb(233,233,224)" stroke-width="1" opacity="0.7098039215686275" d="M 447.5 266 L 446.5 268 L 447.5 266 Z " /><path fill="rgb(233,233,224)" stroke="rgb(233,233,224)" stroke-width="1" opacity="0.7098039215686275" d="M 445.5 269 L 445 270.5 L 441.5 276 L 443 273.5 L 445.5 269 Z " /><path fill="rgb(233,233,224)" stroke="rgb(233,233,224)" stroke-width="1" opacity="0.7098039215686275" d="M 691.5 269 L 691 270.5 L 688.5 276 L 688 274.5 L 691.5 269 Z " /><path fill="rgb(233,233,224)" stroke="rgb(233,233,224)" stroke-width="1" opacity="0.7098039215686275" d="M 440.5 277 L 439.5 279 L 440.5 277 Z " /><path fill="rgb(233,233,224)" stroke="rgb(233,233,224)" stroke-width="1" opacity="0.7098039215686275" d="M 687.5 277 L 689 289 L 687 288.5 L 687.5 277 Z " /><path fill="rgb(233,233,224)" stroke="rgb(233,233,224)" stroke-width="1" opacity="0.7098039215686275" d="M 438.5 280 L 438 281.5 L 431.5 292 L 432 290.5 L 438.5 280 Z " /><path fill="rgb(233,233,224)" stroke="rgb(233,233,224)" stroke-width="1" opacity="0.7098039215686275" d="M 688.5 290 L 690 295.5 L 689 295.5 L 688.5 290 Z " /><path fill="rgb(233,233,224)" stroke="rgb(233,233,224)" stroke-width="1" opacity="0.7098039215686275" d="M 429.5 295 L 429 296.5 L 424.5 305 L 425 303.5 L 429.5 295 Z " /><path fill="rgb(233,233,224)" stroke="rgb(233,233,224)" stroke-width="1" opacity="0.7098039215686275" d="M 691.5 300 L 694 308.5 L 693 308.5 L 691.5 300 Z " /><path fill="rgb(233,233,224)" stroke="rgb(233,233,224)" stroke-width="1" opacity="0.7098039215686275" d="M 423.5 306 L 423 307.5 L 420 317.5 L 420 331 L 418 330.5 L 418 323.5 L 420 312.5 L 423.5 306 Z " /><path fill="rgb(233,233,224)" stroke="rgb(233,233,224)" stroke-width="1" opacity="0.7098039215686275" d="M 695.5 313 L 700 323.5 L 699 323.5 L 695.5 313 Z " /><path fill="rgb(233,233,224)" stroke="rgb(233,233,224)" stroke-width="1" opacity="0.7098039215686275" d="M 700.5 325 L 702 328.5 L 701 328.5 L 700.5 325 Z " /><path fill="rgb(233,233,224)" stroke="rgb(233,233,224)" stroke-width="1" opacity="0.7098039215686275" d="M 702.5 330 L 706 335.5 L 709 345.5 L 708 345.5 L 702 331.5 L 702.5 330 Z " /><path fill="rgb(233,233,224)" stroke="rgb(233,233,224)" stroke-width="1" opacity="0.7098039215686275" d="M 548 333 L 550.5 333 L 562 339.5 L 560.5 339 L 549.5 334 L 546.5 339 L 546 337.5 L 548 333 Z " /><path fill="rgb(233,233,224)" stroke="rgb(233,233,224)" stroke-width="1" opacity="0.7098039215686275" d="M 419.5 334 L 427 366.5 L 425 365.5 L 424 355.5 L 422 352.5 L 419 337.5 L 419.5 334 Z " /><path fill="rgb(233,233,224)" stroke="rgb(233,233,224)" stroke-width="1" opacity="0.7098039215686275" d="M 545.5 340 L 546 345 Q 543.3 346.1 544 343.5 L 545.5 340 Z " /><path fill="rgb(233,233,224)" stroke="rgb(233,233,224)" stroke-width="1" opacity="0.7098039215686275" d="M 567.5 342 L 577 347.5 L 574.5 348 L 568.5 344 L 567.5 342 Z " /><path fill="rgb(233,233,224)" stroke="rgb(233,233,224)" stroke-width="1" opacity="0.7098039215686275" d="M 543.5 346 L 545 350 Q 541.2 351.2 543.5 346 Z " /><path fill="rgb(233,233,224)" stroke="rgb(233,233,224)" stroke-width="1" opacity="0.7098039215686275" d="M 709.5 347 L 711 350.5 L 710 350.5 L 709.5 347 Z " /><path fill="rgb(233,233,224)" stroke="rgb(233,233,224)" stroke-width="1" opacity="0.7098039215686275" d="M 578.5 348 L 596.5 357 L 600 360.5 L 604 368.5 L 602 367.5 L 596.5 358 L 589.5 356 Q 585.8 350.7 578.5 349 L 578.5 348 Z " /><path fill="rgb(233,233,224)" stroke="rgb(233,233,224)" stroke-width="1" opacity="0.7098039215686275" d="M 542.5 351 L 544 352.5 L 544 383.5 L 545 384.5 L 545 398.5 L 546 399.5 L 546 409.5 L 547 410.5 L 548 422.5 L 546 423.5 L 546 421.5 L 546 414.5 L 544 405.5 L 544 384.5 L 542 375.5 L 542 353.5 L 542.5 351 Z " /><path fill="rgb(233,233,224)" stroke="rgb(233,233,224)" stroke-width="1" opacity="0.7098039215686275" d="M 711.5 352 L 715 363.5 L 715 373.5 L 710.5 388 L 710 386.5 L 713 379.5 L 713 357.5 L 711.5 352 Z " /><path fill="rgb(233,233,224)" stroke="rgb(233,233,224)" stroke-width="1" opacity="0.7098039215686275" d="M 427.5 368 L 430 379.5 L 428 378.5 L 427.5 368 Z " /><path fill="rgb(233,233,224)" stroke="rgb(233,233,224)" stroke-width="1" opacity="0.7098039215686275" d="M 604.5 370 L 611 381.5 L 609 380.5 L 604.5 370 Z " /><path fill="rgb(233,233,224)" stroke="rgb(233,233,224)" stroke-width="1" opacity="0.7098039215686275" d="M 429.5 381 L 431 384 Q 427.5 385.1 429.5 381 Z " /><path fill="rgb(233,233,224)" stroke="rgb(233,233,224)" stroke-width="1" opacity="0.7098039215686275" d="M 430.5 385 Q 433.5 387 433 392.5 L 432 392.5 L 430.5 385 Z " /><path fill="rgb(233,233,224)" stroke="rgb(233,233,224)" stroke-width="1" opacity="0.7098039215686275" d="M 612.5 385 Q 619.6 399.9 631.5 410 L 644 416.5 L 642.5 417 Q 629 411.5 621 400.5 L 612 386.5 L 612.5 385 Z " /><path fill="rgb(233,233,224)" stroke="rgb(233,233,224)" stroke-width="1" opacity="0.7098039215686275" d="M 709.5 389 L 710 390.5 Q 704.1 403.1 693.5 411 L 687.5 415 L 685.5 415 L 670.5 421 L 655.5 421 L 648 418.5 L 649.5 418 L 650.5 419 L 674.5 419 L 693.5 410 L 703 400.5 L 709.5 389 Z " /><path fill="rgb(233,233,224)" stroke="rgb(233,233,224)" stroke-width="1" opacity="0.7098039215686275" d="M 432.5 394 L 434 397 Q 430.5 398.1 432.5 394 Z " /><path fill="rgb(233,233,224)" stroke="rgb(233,233,224)" stroke-width="1" opacity="0.7098039215686275" d="M 433.5 398 L 435 401 Q 431.5 402.1 433.5 398 Z " /><path fill="rgb(233,233,224)" stroke="rgb(233,233,224)" stroke-width="1" opacity="0.7098039215686275" d="M 435.5 402 L 436 413.5 L 434.5 419 L 434 413.5 Q 436.2 412.3 435 407.5 L 434 403.5 L 435.5 402 Z " /><path fill="rgb(233,233,224)" stroke="rgb(233,233,224)" stroke-width="1" opacity="0.7098039215686275" d="M 316.5 405 L 330.5 405 L 331.5 406 L 343.5 407 L 359.5 413 L 372 422.5 L 368.5 420 L 352.5 411 L 349.5 411 L 343.5 408 L 338.5 407 L 309.5 407 L 298.5 410 L 298.5 409 L 316.5 405 Z " /><path fill="rgb(233,233,224)" stroke="rgb(233,233,224)" stroke-width="1" opacity="0.7098039215686275" d="M 290.5 411 L 294 411.5 L 275.5 421 L 254.5 442 L 260 435.5 L 271.5 423 L 290.5 411 Z " /><path fill="rgb(233,233,224)" stroke="rgb(233,233,224)" stroke-width="1" opacity="0.7098039215686275" d="M 434.5 420 L 435 422.5 L 433 423.5 L 434.5 420 Z " /><path fill="rgb(233,233,224)" stroke="rgb(233,233,224)" stroke-width="1" opacity="0.7098039215686275" d="M 374.5 424 L 383 434.5 L 380 432.5 L 374.5 424 Z " /><path fill="rgb(233,233,224)" stroke="rgb(233,233,224)" stroke-width="1" opacity="0.7098039215686275" d="M 433.5 425 L 434 428.5 L 431.5 434 L 431 432.5 L 433.5 425 Z " /><path fill="rgb(233,233,224)" stroke="rgb(233,233,224)" stroke-width="1" opacity="0.7098039215686275" d="M 547.5 425 L 549 426.5 L 550 442.5 L 551 443.5 L 551 462.5 L 550 463.5 L 549 477.5 L 547.5 479 L 547 477.5 L 549 471.5 L 549 434.5 L 547.5 425 Z " /><path fill="rgb(233,233,224)" stroke="rgb(233,233,224)" stroke-width="1" opacity="0.7098039215686275" d="M 192.5 427 L 208.5 427 L 222 430.5 L 220.5 431 L 214.5 429 L 193.5 428 L 177.5 432 L 177.5 431 L 192.5 427 Z " /><path fill="rgb(233,233,224)" stroke="rgb(233,233,224)" stroke-width="1" opacity="0.7098039215686275" d="M 223.5 431 L 228 432.5 L 226.5 433 L 223.5 432 L 223.5 431 Z " /><path fill="rgb(233,233,224)" stroke="rgb(233,233,224)" stroke-width="1" opacity="0.7098039215686275" d="M 174.5 432 L 176 432.5 L 161.5 441 L 161 439.5 L 164 438.5 L 166.5 435 L 169.5 434 L 171.5 434 L 174.5 432 Z " /><path fill="rgb(233,233,224)" stroke="rgb(233,233,224)" stroke-width="1" opacity="0.7098039215686275" d="M 229.5 433 L 238.5 437 L 241.5 437 L 252 442.5 L 250.5 443 L 229.5 434 L 229.5 433 Z " /><path fill="rgb(233,233,224)" stroke="rgb(233,233,224)" stroke-width="1" opacity="0.7098039215686275" d="M 430.5 435 L 431 436.5 L 425 446 Q 422.3 444.9 423 447.5 L 420.5 449 L 425 443.5 L 430.5 435 Z " /><path fill="rgb(233,233,224)" stroke="rgb(233,233,224)" stroke-width="1" opacity="0.7098039215686275" d="M 383.5 436 L 384.5 438 L 383.5 436 Z " /><path fill="rgb(233,233,224)" stroke="rgb(233,233,224)" stroke-width="1" opacity="0.7098039215686275" d="M 385.5 439 L 393 450.5 L 390 448.5 L 385.5 439 Z " /><path fill="rgb(233,233,224)" stroke="rgb(233,233,224)" stroke-width="1" opacity="0.7098039215686275" d="M 159.5 440 L 160 442 Q 152.4 444.4 148 451.5 L 143.5 459 L 139 458.5 L 144 458 Q 147.1 448.5 155.5 443 L 159.5 440 Z " /><path fill="rgb(233,233,224)" stroke="rgb(233,233,224)" stroke-width="1" opacity="0.7098039215686275" d="M 417.5 450 L 420 450.5 L 411.5 457 L 399.5 462 L 394 454.5 L 396 455.5 L 399.5 461 L 410.5 455 L 412 455.5 L 413.5 453 L 415 453.5 L 417.5 450 Z " /><path fill="rgb(233,233,224)" stroke="rgb(233,233,224)" stroke-width="1" opacity="0.7098039215686275" d="M 71.5 451 L 108.5 454 L 117.5 456 L 125.5 456 L 127 457.5 L 122.5 458 L 121.5 457 L 113.5 457 L 112.5 456 L 104.5 456 L 94.5 454 L 62.5 453 L 55.5 455 L 55.5 454 L 71.5 451 Z " /><path fill="rgb(233,233,224)" stroke="rgb(233,233,224)" stroke-width="1" opacity="0.7098039215686275" d="M 49.5 456 L 51 456.5 Q 36.3 461.8 26.5 472 L 30.5 467 L 43.5 458 L 49.5 456 Z " /><path fill="rgb(233,233,224)" stroke="rgb(233,233,224)" stroke-width="1" opacity="0.7098039215686275" d="M 129.5 457 Q 135.3 456.3 138 458.5 L 132.5 459 L 129.5 458 L 129.5 457 Z " /><path fill="rgb(233,233,224)" stroke="rgb(233,233,224)" stroke-width="1" opacity="0.7098039215686275" d="M 24.5 472 L 24 473.5 Q 16 481.5 11.5 493 L 11 491.5 Q 16.2 480.2 24.5 472 Z " /><path fill="rgb(233,233,224)" stroke="rgb(233,233,224)" stroke-width="1" opacity="0.7098039215686275" d="M 547.5 480 L 548 482.5 L 543 506 L 541 505.5 L 547.5 480 Z " /><path fill="rgb(233,233,224)" stroke="rgb(233,233,224)" stroke-width="1" opacity="0.7098039215686275" d="M 320.5 493 L 324 497.5 L 322 496.5 L 320.5 494 L 305.5 511 L 293.5 519 L 293.5 518 Q 305.6 511.6 314 501.5 L 320.5 493 Z " /><path fill="rgb(233,233,224)" stroke="rgb(233,233,224)" stroke-width="1" opacity="0.7098039215686275" d="M 10.5 494 L 11 495.5 L 9.5 499 L 9 496.5 L 10.5 494 Z " /><path fill="rgb(233,233,224)" stroke="rgb(233,233,224)" stroke-width="1" opacity="0.7098039215686275" d="M 324.5 499 L 330 508.5 L 329 508.5 L 324 500.5 L 324.5 499 Z " /><path fill="rgb(233,233,224)" stroke="rgb(233,233,224)" stroke-width="1" opacity="0.7098039215686275" d="M 8.5 500 L 9 501.5 L 7 507.5 L 7 533.5 L 9 538.5 L 7 537.5 L 5 527.5 L 5 514.5 L 6 513.5 L 7 502.5 L 8.5 500 Z " /><path fill="rgb(233,233,224)" stroke="rgb(233,233,224)" stroke-width="1" opacity="0.7098039215686275" d="M 540 507 Q 543 505.8 542 509.5 L 534.5 513 L 534.5 512 L 540 509.5 L 540 507 Z " /><path fill="rgb(233,233,224)" stroke="rgb(233,233,224)" stroke-width="1" opacity="0.7098039215686275" d="M 330.5 510 L 333 513.5 L 331 512.5 L 330.5 510 Z " /><path fill="rgb(233,233,224)" stroke="rgb(233,233,224)" stroke-width="1" opacity="0.7098039215686275" d="M 205.5 513 L 208 514.5 L 206.5 515 L 205 514.5 L 205 516.5 L 200 521.5 L 223.5 522 L 223.5 521 L 219 519.5 L 220.5 519 L 227 522.5 L 226.5 524 L 198.5 524 L 198.5 523 L 200 522.5 L 199 521.5 L 202 518.5 L 205.5 513 Z " /><path fill="rgb(233,233,224)" stroke="rgb(233,233,224)" stroke-width="1" opacity="0.7098039215686275" d="M 530.5 513 L 533 513.5 L 527.5 515 L 527.5 514 L 530.5 513 Z " /><path fill="rgb(233,233,224)" stroke="rgb(233,233,224)" stroke-width="1" opacity="0.7098039215686275" d="M 333.5 515 L 339 520.5 L 339 523 L 286 522.5 L 289.5 520 L 290.5 521 L 337 521 L 333.5 515 Z " /><path fill="rgb(233,233,224)" stroke="rgb(233,233,224)" stroke-width="1" opacity="0.7098039215686275" d="M 523.5 515 L 526 515.5 L 522 517.5 Q 521.8 526.3 518.5 532 L 518 530.5 L 520 525.5 L 521 516 L 523.5 515 Z " /><path fill="rgb(233,233,224)" stroke="rgb(233,233,224)" stroke-width="1" opacity="0.7098039215686275" d="M 211.5 516 L 218 518.5 L 216.5 519 L 212.5 518 L 211.5 516 Z " /><path fill="rgb(233,233,224)" stroke="rgb(233,233,224)" stroke-width="1" opacity="0.7098039215686275" d="M 516.5 536 L 517 537.5 L 508.5 553 L 509 551.5 L 516.5 536 Z " /><path fill="rgb(233,233,224)" stroke="rgb(233,233,224)" stroke-width="1" opacity="0.7098039215686275" d="M 9.5 540 Q 20 570 42.5 588 Q 52 596 65 600.5 L 63.5 601 Q 41.5 592 28 574.5 L 16 557.5 L 10 545.5 L 9.5 540 Z " /><path fill="rgb(233,233,224)" stroke="rgb(233,233,224)" stroke-width="1" opacity="0.7098039215686275" d="M 507.5 554 L 506 556.5 L 492.5 573 L 481.5 582 L 473.5 586 L 473.5 585 L 495 570 L 507.5 554 Z " /><path fill="rgb(233,233,224)" stroke="rgb(233,233,224)" stroke-width="1" opacity="0.7098039215686275" d="M 470.5 586 L 472 586.5 L 466.5 589 L 466.5 588 L 470.5 586 Z " /><path fill="rgb(233,233,224)" stroke="rgb(233,233,224)" stroke-width="1" opacity="0.7098039215686275" d="M 463.5 589 L 465 589.5 L 459.5 592 L 459.5 591 L 463.5 589 Z " /><path fill="rgb(233,233,224)" stroke="rgb(233,233,224)" stroke-width="1" opacity="0.7098039215686275" d="M 456.5 592 L 458 592.5 L 452.5 595 L 452.5 594 L 456.5 592 Z " /><path fill="rgb(233,233,224)" stroke="rgb(233,233,224)" stroke-width="1" opacity="0.7098039215686275" d="M 449.5 595 L 451 595.5 L 447.5 597 L 447.5 596 L 449.5 595 Z " /><path fill="rgb(233,233,224)" stroke="rgb(233,233,224)" stroke-width="1" opacity="0.7098039215686275" d="M 443.5 597 L 446 597.5 L 440.5 599 L 440.5 598 L 443.5 597 Z " /><path fill="rgb(233,233,224)" stroke="rgb(233,233,224)" stroke-width="1" opacity="0.7098039215686275" d="M 436.5 599 L 439 599.5 L 433.5 601 L 433.5 600 L 436.5 599 Z " /><path fill="rgb(233,233,224)" stroke="rgb(233,233,224)" stroke-width="1" opacity="0.7098039215686275" d="M 66.5 601 L 72 602.5 L 69.5 603 L 66.5 602 L 66.5 601 Z " /><path fill="rgb(233,233,224)" stroke="rgb(233,233,224)" stroke-width="1" opacity="0.7098039215686275" d="M 429.5 601 L 432 601.5 L 424.5 604 L 410.5 605 L 409.5 606 L 389.5 606 Q 388 608.5 382.5 607 L 380.5 607 L 90.5 608 L 89.5 606 Q 95 604.5 96.5 607 L 170.5 607 L 171.5 606 L 224.5 606 L 225.5 605 L 404.5 605 L 405.5 604 L 424.5 603 L 429.5 601 Z " /><path fill="rgb(233,233,224)" stroke="rgb(233,233,224)" stroke-width="1" opacity="0.7098039215686275" d="M 73.5 603 L 87 606.5 L 83.5 607 L 74.5 605 L 73.5 603 Z " /><path fill="rgb(233,233,224)" stroke="rgb(233,233,224)" stroke-width="1" opacity="0.7098039215686275" d="M 334.5 614 Q 338.3 613.3 339 615.5 L 338.5 646 L 338 634.5 L 337 633.5 L 337 615 L 279.5 627 L 280.5 625 L 299.5 622 L 334.5 614 Z " /><path fill="rgb(233,233,224)" stroke="rgb(233,233,224)" stroke-width="1" opacity="0.7098039215686275" d="M 275.5 626 L 278 626.5 L 274.5 628 L 275.5 626 Z " /><path fill="rgb(233,233,224)" stroke="rgb(233,233,224)" stroke-width="1" opacity="0.7098039215686275" d="M 270.5 627 L 273 627.5 L 271.5 629 L 265 630 Q 263.6 626.3 269.5 628 L 270.5 627 Z " /><path fill="rgb(233,233,224)" stroke="rgb(233,233,224)" stroke-width="1" opacity="0.7098039215686275" d="M 261.5 629 L 264 629.5 L 260 631.5 L 265 633.5 L 262.5 634 L 259 631.5 L 261.5 629 Z " /><path fill="rgb(233,233,224)" stroke="rgb(233,233,224)" stroke-width="1" opacity="0.7098039215686275" d="M 266.5 633 L 276 635.5 L 273.5 636 Q 272.3 633.8 267.5 635 L 266.5 633 Z " /><path fill="rgb(233,233,224)" stroke="rgb(233,233,224)" stroke-width="1" opacity="0.7098039215686275" d="M 277.5 635 L 282 636.5 L 278.5 637 L 277.5 635 Z " /><path fill="rgb(233,233,224)" stroke="rgb(233,233,224)" stroke-width="1" opacity="0.7098039215686275" d="M 283.5 636 L 287 637.5 L 284.5 638 L 283.5 636 Z " /><path fill="rgb(233,233,224)" stroke="rgb(233,233,224)" stroke-width="1" opacity="0.7098039215686275" d="M 288.5 637 L 293 638.5 L 289.5 639 L 288.5 637 Z " /><path fill="rgb(233,233,224)" stroke="rgb(233,233,224)" stroke-width="1" opacity="0.7098039215686275" d="M 294.5 638 L 298 639.5 L 295.5 640 L 294.5 638 Z " /><path fill="rgb(233,233,224)" stroke="rgb(233,233,224)" stroke-width="1" opacity="0.7098039215686275" d="M 300.5 639 L 304 640.5 L 301.5 641 L 300.5 639 Z " /><path fill="rgb(233,233,224)" stroke="rgb(233,233,224)" stroke-width="1" opacity="0.7098039215686275" d="M 305.5 640 L 308.5 641 L 310 640.5 L 306.5 642 L 305.5 640 Z " /><path fill="rgb(233,233,224)" stroke="rgb(233,233,224)" stroke-width="1" opacity="0.7098039215686275" d="M 311.5 641 L 315 642.5 L 312.5 643 L 311.5 641 Z " /><path fill="rgb(233,233,224)" stroke="rgb(233,233,224)" stroke-width="1" opacity="0.7098039215686275" d="M 317 642 L 321 643.5 L 317 644 L 317 642 Z " /><path fill="rgb(233,233,224)" stroke="rgb(233,233,224)" stroke-width="1" opacity="0.7098039215686275" d="M 322.5 643 L 325.5 644 L 327 643.5 L 323.5 645 L 322.5 643 Z " /><path fill="rgb(233,233,224)" stroke="rgb(233,233,224)" stroke-width="1" opacity="0.7098039215686275" d="M 328 644 L 332 645.5 L 328 646 L 328 644 Z " /><path fill="rgb(233,233,224)" stroke="rgb(233,233,224)" stroke-width="1" opacity="0.7098039215686275" d="M 334 645 L 337 646.5 L 334 647 L 334 645 Z " /><path fill="rgb(191,192,185)" stroke="rgb(191,192,185)" stroke-width="1" opacity="0.9450980392156862" d="M 873.5 105 L 883 105.5 L 873.5 106 L 873.5 105 Z " /><path fill="rgb(191,192,185)" stroke="rgb(191,192,185)" stroke-width="1" opacity="0.9450980392156862" d="M 908.5 113 L 909.5 115 L 908.5 113 Z " /><path fill="rgb(191,192,185)" stroke="rgb(191,192,185)" stroke-width="1" opacity="0.9450980392156862" d="M 872.5 127 L 876 127.5 L 872.5 128 L 872.5 127 Z " /><path fill="rgb(191,192,185)" stroke="rgb(191,192,185)" stroke-width="1" opacity="0.9450980392156862" d="M 923.5 148 L 924 151.5 L 923 151.5 L 923.5 148 Z " /><path fill="rgb(191,192,185)" stroke="rgb(191,192,185)" stroke-width="1" opacity="0.9450980392156862" d="M 762.5 162 L 765 162.5 L 762.5 163 L 762.5 162 Z " /><path fill="rgb(191,192,185)" stroke="rgb(191,192,185)" stroke-width="1" opacity="0.9450980392156862" d="M 788.5 162 L 792 162.5 L 788.5 163 L 788.5 162 Z " /><path fill="rgb(191,192,185)" stroke="rgb(191,192,185)" stroke-width="1" opacity="0.9450980392156862" d="M 889.5 173 L 886.5 177 L 889.5 173 Z " /><path fill="rgb(191,192,185)" stroke="rgb(191,192,185)" stroke-width="1" opacity="0.9450980392156862" d="M 884.5 178 L 882.5 181 L 884.5 178 Z " /><path fill="rgb(191,192,185)" stroke="rgb(191,192,185)" stroke-width="1" opacity="0.9450980392156862" d="M 871.5 183 L 875 183.5 L 871.5 184 L 871.5 183 Z " /><path fill="rgb(191,192,185)" stroke="rgb(191,192,185)" stroke-width="1" opacity="0.9450980392156862" d="M 905.5 188 L 903.5 191 L 905.5 188 Z " /><path fill="rgb(191,192,185)" stroke="rgb(191,192,185)" stroke-width="1" opacity="0.9450980392156862" d="M 900.5 193 L 896.5 198 L 900.5 193 Z " /><path fill="rgb(191,192,185)" stroke="rgb(191,192,185)" stroke-width="1" opacity="0.9450980392156862" d="M 640.5 205 L 639.5 207 L 640.5 205 Z " /><path fill="rgb(191,192,185)" stroke="rgb(191,192,185)" stroke-width="1" opacity="0.9450980392156862" d="M 868.5 205 L 872 205.5 L 868.5 206 L 868.5 205 Z " /><path fill="rgb(191,192,185)" stroke="rgb(191,192,185)" stroke-width="1" opacity="0.9450980392156862" d="M 707.5 209 L 705.5 212 L 707.5 209 Z " /><path fill="rgb(191,192,185)" stroke="rgb(191,192,185)" stroke-width="1" opacity="0.9450980392156862" d="M 661.5 220 L 659.5 223 L 661.5 220 Z " /><path fill="rgb(191,192,185)" stroke="rgb(191,192,185)" stroke-width="1" opacity="0.9450980392156862" d="M 689.5 223 L 679.5 234 L 689.5 223 Z " /><path fill="rgb(191,192,185)" stroke="rgb(191,192,185)" stroke-width="1" opacity="0.9450980392156862" d="M 656.5 226 L 655.5 228 L 656.5 226 Z " /><path fill="rgb(191,192,185)" stroke="rgb(191,192,185)" stroke-width="1" opacity="0.9450980392156862" d="M 653.5 230 L 652.5 232 L 653.5 230 Z " /><path fill="rgb(191,192,185)" stroke="rgb(191,192,185)" stroke-width="1" opacity="0.9450980392156862" d="M 612.5 248 L 611.5 250 L 612.5 248 Z " /><path fill="rgb(191,192,185)" stroke="rgb(191,192,185)" stroke-width="1" opacity="0.9450980392156862" d="M 504.5 254 L 507 254.5 L 504.5 255 L 504.5 254 Z " /><path fill="rgb(191,192,185)" stroke="rgb(191,192,185)" stroke-width="1" opacity="0.9450980392156862" d="M 598.5 257 L 597.5 259 L 598.5 257 Z " /><path fill="rgb(191,192,185)" stroke="rgb(191,192,185)" stroke-width="1" opacity="0.9450980392156862" d="M 490.5 260 L 489.5 262 L 490.5 260 Z " /><path fill="rgb(191,192,185)" stroke="rgb(191,192,185)" stroke-width="1" opacity="0.9450980392156862" d="M 553.5 261 L 552.5 263 L 553.5 261 Z " /><path fill="rgb(191,192,185)" stroke="rgb(191,192,185)" stroke-width="1" opacity="0.9450980392156862" d="M 550.5 263 L 549.5 265 L 550.5 263 Z " /><path fill="rgb(191,192,185)" stroke="rgb(191,192,185)" stroke-width="1" opacity="0.9450980392156862" d="M 547.5 265 L 546.5 267 L 547.5 265 Z " /><path fill="rgb(191,192,185)" stroke="rgb(191,192,185)" stroke-width="1" opacity="0.9450980392156862" d="M 570.5 276 L 569.5 278 L 570.5 276 Z " /><path fill="rgb(191,192,185)" stroke="rgb(191,192,185)" stroke-width="1" opacity="0.9450980392156862" d="M 516.5 283 L 519 284.5 L 517 285.5 L 517.5 284 L 516.5 283 Z " /><path fill="rgb(191,192,185)" stroke="rgb(191,192,185)" stroke-width="1" opacity="0.9450980392156862" d="M 635.5 290 L 636 293.5 L 635 293.5 L 635.5 290 Z " /><path fill="rgb(191,192,185)" stroke="rgb(191,192,185)" stroke-width="1" opacity="0.9450980392156862" d="M 509.5 292 L 508.5 294 L 509.5 292 Z " /><path fill="rgb(191,192,185)" stroke="rgb(191,192,185)" stroke-width="1" opacity="0.9450980392156862" d="M 541.5 295 L 540.5 297 L 541.5 295 Z " /><path fill="rgb(191,192,185)" stroke="rgb(191,192,185)" stroke-width="1" opacity="0.9450980392156862" d="M 633.5 318 L 639.5 325 L 633.5 318 Z " /><path fill="rgb(191,192,185)" stroke="rgb(191,192,185)" stroke-width="1" opacity="0.9450980392156862" d="M 472.5 325 L 473 328.5 L 472 328.5 L 472.5 325 Z " /><path fill="rgb(191,192,185)" stroke="rgb(191,192,185)" stroke-width="1" opacity="0.9450980392156862" d="M 640.5 326 L 641.5 328 L 640.5 326 Z " /><path fill="rgb(191,192,185)" stroke="rgb(191,192,185)" stroke-width="1" opacity="0.9450980392156862" d="M 450.5 331 L 451 333.5 L 450 333.5 L 450.5 331 Z " /><path fill="rgb(191,192,185)" stroke="rgb(191,192,185)" stroke-width="1" opacity="0.9450980392156862" d="M 490.5 348 L 491 350.5 L 490 350.5 L 490.5 348 Z " /><path fill="rgb(191,192,185)" stroke="rgb(191,192,185)" stroke-width="1" opacity="0.9450980392156862" d="M 512.5 350 L 513 377.5 L 512 377.5 L 512.5 350 Z " /><path fill="rgb(191,192,185)" stroke="rgb(191,192,185)" stroke-width="1" opacity="0.9450980392156862" d="M 490.5 373 L 491 381.5 L 490 381.5 L 490.5 373 Z " /><path fill="rgb(191,192,185)" stroke="rgb(191,192,185)" stroke-width="1" opacity="0.9450980392156862" d="M 679.5 381 L 678.5 383 L 679.5 381 Z " /><path fill="rgb(191,192,185)" stroke="rgb(191,192,185)" stroke-width="1" opacity="0.9450980392156862" d="M 647.5 383 L 649.5 386 L 647.5 383 Z " /><path fill="rgb(191,192,185)" stroke="rgb(191,192,185)" stroke-width="1" opacity="0.9450980392156862" d="M 676.5 384 L 675.5 386 L 676.5 384 Z " /><path fill="rgb(191,192,185)" stroke="rgb(191,192,185)" stroke-width="1" opacity="0.9450980392156862" d="M 659.5 389 L 667 389.5 L 659.5 390 L 659.5 389 Z " /><path fill="rgb(191,192,185)" stroke="rgb(191,192,185)" stroke-width="1" opacity="0.9450980392156862" d="M 513.5 390 L 514 394.5 L 513 394.5 L 513.5 390 Z " /><path fill="rgb(191,192,185)" stroke="rgb(191,192,185)" stroke-width="1" opacity="0.9450980392156862" d="M 491.5 392 L 492 397.5 L 491 397.5 L 491.5 392 Z " /><path fill="rgb(191,192,185)" stroke="rgb(191,192,185)" stroke-width="1" opacity="0.9450980392156862" d="M 492.5 402 L 493 405.5 L 492 405.5 L 492.5 402 Z " /><path fill="rgb(191,192,185)" stroke="rgb(191,192,185)" stroke-width="1" opacity="0.9450980392156862" d="M 514.5 408 L 515 410.5 L 514 410.5 L 514.5 408 Z " /><path fill="rgb(191,192,185)" stroke="rgb(191,192,185)" stroke-width="1" opacity="0.9450980392156862" d="M 515.5 415 L 516 417.5 L 515 417.5 L 515.5 415 Z " /><path fill="rgb(191,192,185)" stroke="rgb(191,192,185)" stroke-width="1" opacity="0.9450980392156862" d="M 487.5 420 L 488 423.5 L 487 423.5 L 487.5 420 Z " /><path fill="rgb(191,192,185)" stroke="rgb(191,192,185)" stroke-width="1" opacity="0.9450980392156862" d="M 327.5 436 L 330 436.5 L 327.5 437 L 327.5 436 Z " /><path fill="rgb(191,192,185)" stroke="rgb(191,192,185)" stroke-width="1" opacity="0.9450980392156862" d="M 518.5 437 L 519 439.5 L 518 439.5 L 518.5 437 Z " /><path fill="rgb(191,192,185)" stroke="rgb(191,192,185)" stroke-width="1" opacity="0.9450980392156862" d="M 496.5 440 L 497 442.5 L 496 442.5 L 496.5 440 Z " /><path fill="rgb(191,192,185)" stroke="rgb(191,192,185)" stroke-width="1" opacity="0.9450980392156862" d="M 519.5 448 L 520 461.5 L 519 461.5 L 519.5 448 Z " /><path fill="rgb(191,192,185)" stroke="rgb(191,192,185)" stroke-width="1" opacity="0.9450980392156862" d="M 288.5 451 L 286.5 454 L 288.5 451 Z " /><path fill="rgb(191,192,185)" stroke="rgb(191,192,185)" stroke-width="1" opacity="0.9450980392156862" d="M 200.5 458 L 206 458.5 L 200.5 459 L 200.5 458 Z " /><path fill="rgb(191,192,185)" stroke="rgb(191,192,185)" stroke-width="1" opacity="0.9450980392156862" d="M 279.5 461 L 277.5 464 L 279.5 461 Z " /><path fill="rgb(191,192,185)" stroke="rgb(191,192,185)" stroke-width="1" opacity="0.9450980392156862" d="M 337.5 462 L 338.5 464 L 337.5 462 Z " /><path fill="rgb(191,192,185)" stroke="rgb(191,192,185)" stroke-width="1" opacity="0.9450980392156862" d="M 449.5 463 L 448.5 465 L 449.5 463 Z " /><path fill="rgb(191,192,185)" stroke="rgb(191,192,185)" stroke-width="1" opacity="0.9450980392156862" d="M 273.5 468 L 270.5 472 L 273.5 468 Z " /><path fill="rgb(191,192,185)" stroke="rgb(191,192,185)" stroke-width="1" opacity="0.9450980392156862" d="M 300.5 468 L 299.5 470 L 300.5 468 Z " /><path fill="rgb(191,192,185)" stroke="rgb(191,192,185)" stroke-width="1" opacity="0.9450980392156862" d="M 489.5 469 L 493 469.5 L 489.5 470 L 489.5 469 Z " /><path fill="rgb(191,192,185)" stroke="rgb(191,192,185)" stroke-width="1" opacity="0.9450980392156862" d="M 297.5 472 L 296.5 474 L 297.5 472 Z " /><path fill="rgb(191,192,185)" stroke="rgb(191,192,185)" stroke-width="1" opacity="0.9450980392156862" d="M 438.5 474 L 437.5 476 L 438.5 474 Z " /><path fill="rgb(191,192,185)" stroke="rgb(191,192,185)" stroke-width="1" opacity="0.9450980392156862" d="M 466.5 476 L 465.5 478 L 466.5 476 Z " /><path fill="rgb(191,192,185)" stroke="rgb(191,192,185)" stroke-width="1" opacity="0.9450980392156862" d="M 464.5 479 L 460.5 484 L 464.5 479 Z " /><path fill="rgb(191,192,185)" stroke="rgb(191,192,185)" stroke-width="1" opacity="0.9450980392156862" d="M 202.5 480 L 205 480.5 L 202.5 481 L 202.5 480 Z " /><path fill="rgb(191,192,185)" stroke="rgb(191,192,185)" stroke-width="1" opacity="0.9450980392156862" d="M 291.5 480 L 282.5 490 L 291.5 480 Z " /><path fill="rgb(191,192,185)" stroke="rgb(191,192,185)" stroke-width="1" opacity="0.9450980392156862" d="M 375.5 482 L 377.5 485 L 375.5 482 Z " /><path fill="rgb(191,192,185)" stroke="rgb(191,192,185)" stroke-width="1" opacity="0.9450980392156862" d="M 84.5 483 L 87 483.5 L 84.5 484 L 84.5 483 Z " /><path fill="rgb(191,192,185)" stroke="rgb(191,192,185)" stroke-width="1" opacity="0.9450980392156862" d="M 89.5 484 L 92 484.5 L 89.5 485 L 89.5 484 Z " /><path fill="rgb(191,192,185)" stroke="rgb(191,192,185)" stroke-width="1" opacity="0.9450980392156862" d="M 513.5 484 L 511.5 487 L 513.5 484 Z " /><path fill="rgb(191,192,185)" stroke="rgb(191,192,185)" stroke-width="1" opacity="0.9450980392156862" d="M 458.5 485 L 454.5 490 L 458.5 485 Z " /><path fill="rgb(191,192,185)" stroke="rgb(191,192,185)" stroke-width="1" opacity="0.9450980392156862" d="M 110.5 486 L 115 486.5 L 110.5 487 L 110.5 486 Z " /><path fill="rgb(191,192,185)" stroke="rgb(191,192,185)" stroke-width="1" opacity="0.9450980392156862" d="M 128.5 488 L 131 488.5 L 128.5 489 L 128.5 488 Z " /><path fill="rgb(191,192,185)" stroke="rgb(191,192,185)" stroke-width="1" opacity="0.9450980392156862" d="M 134.5 489 L 137 489.5 L 134.5 490 L 134.5 489 Z " /><path fill="rgb(191,192,185)" stroke="rgb(191,192,185)" stroke-width="1" opacity="0.9450980392156862" d="M 148.5 490 L 151 490.5 L 148.5 491 L 148.5 490 Z " /><path fill="rgb(191,192,185)" stroke="rgb(191,192,185)" stroke-width="1" opacity="0.9450980392156862" d="M 452.5 490 L 450.5 493 L 452.5 490 Z " /><path fill="rgb(191,192,185)" stroke="rgb(191,192,185)" stroke-width="1" opacity="0.9450980392156862" d="M 395.5 493 L 401 493.5 L 395.5 494 L 395.5 493 Z " /><path fill="rgb(191,192,185)" stroke="rgb(191,192,185)" stroke-width="1" opacity="0.9450980392156862" d="M 46.5 496 L 43.5 500 L 46.5 496 Z " /><path fill="rgb(191,192,185)" stroke="rgb(191,192,185)" stroke-width="1" opacity="0.9450980392156862" d="M 359.5 497 L 362.5 501 L 359.5 497 Z " /><path fill="rgb(191,192,185)" stroke="rgb(191,192,185)" stroke-width="1" opacity="0.9450980392156862" d="M 74.5 504 L 78 504.5 L 74.5 505 L 74.5 504 Z " /><path fill="rgb(191,192,185)" stroke="rgb(191,192,185)" stroke-width="1" opacity="0.9450980392156862" d="M 81.5 505 L 84 505.5 L 81.5 506 L 81.5 505 Z " /><path fill="rgb(191,192,185)" stroke="rgb(191,192,185)" stroke-width="1" opacity="0.9450980392156862" d="M 63.5 508 L 61.5 511 L 63.5 508 Z " /><path fill="rgb(191,192,185)" stroke="rgb(191,192,185)" stroke-width="1" opacity="0.9450980392156862" d="M 491.5 508 L 492 511.5 L 491 511.5 L 491.5 508 Z " /><path fill="rgb(191,192,185)" stroke="rgb(191,192,185)" stroke-width="1" opacity="0.9450980392156862" d="M 116.5 509 L 119 509.5 L 116.5 510 L 116.5 509 Z " /><path fill="rgb(191,192,185)" stroke="rgb(191,192,185)" stroke-width="1" opacity="0.9450980392156862" d="M 128.5 510 L 131 510.5 L 128.5 511 L 128.5 510 Z " /><path fill="rgb(191,192,185)" stroke="rgb(191,192,185)" stroke-width="1" opacity="0.9450980392156862" d="M 134.5 511 L 138 511.5 L 134.5 512 L 134.5 511 Z " /><path fill="rgb(191,192,185)" stroke="rgb(191,192,185)" stroke-width="1" opacity="0.9450980392156862" d="M 150.5 512 L 153 512.5 L 150.5 513 L 150.5 512 Z " /><path fill="rgb(191,192,185)" stroke="rgb(191,192,185)" stroke-width="1" opacity="0.9450980392156862" d="M 392.5 515 L 396 515.5 L 392.5 516 L 392.5 515 Z " /><path fill="rgb(191,192,185)" stroke="rgb(191,192,185)" stroke-width="1" opacity="0.9450980392156862" d="M 400.5 515 L 403 515.5 L 400.5 516 L 400.5 515 Z " /><path fill="rgb(191,192,185)" stroke="rgb(191,192,185)" stroke-width="1" opacity="0.9450980392156862" d="M 36.5 517 L 37 525.5 L 36 525.5 L 36.5 517 Z " /><path fill="rgb(191,192,185)" stroke="rgb(191,192,185)" stroke-width="1" opacity="0.9450980392156862" d="M 461.5 528 L 459.5 531 L 461.5 528 Z " /><path fill="rgb(191,192,185)" stroke="rgb(191,192,185)" stroke-width="1" opacity="0.9450980392156862" d="M 455.5 534 L 453.5 537 L 455.5 534 Z " /><path fill="rgb(191,192,185)" stroke="rgb(191,192,185)" stroke-width="1" opacity="0.9450980392156862" d="M 480.5 539 L 478.5 542 L 480.5 539 Z " /><path fill="rgb(191,192,185)" stroke="rgb(191,192,185)" stroke-width="1" opacity="0.9450980392156862" d="M 70.5 542 L 74.5 547 L 70.5 542 Z " /><path fill="rgb(191,192,185)" stroke="rgb(191,192,185)" stroke-width="1" opacity="0.9450980392156862" d="M 475.5 545 L 469.5 552 L 475.5 545 Z " /><path fill="rgb(191,192,185)" stroke="rgb(191,192,185)" stroke-width="1" opacity="0.9450980392156862" d="M 417.5 550 L 420 550.5 L 417.5 551 L 417.5 550 Z " /><path fill="rgb(191,192,185)" stroke="rgb(191,192,185)" stroke-width="1" opacity="0.9450980392156862" d="M 49.5 551 L 55.5 558 L 49.5 551 Z " /><path fill="rgb(191,192,185)" stroke="rgb(191,192,185)" stroke-width="1" opacity="0.9450980392156862" d="M 398.5 552 L 404 552.5 L 398.5 553 L 398.5 552 Z " /><path fill="rgb(191,192,185)" stroke="rgb(191,192,185)" stroke-width="1" opacity="0.9450980392156862" d="M 212.5 553 L 232 553.5 L 212.5 554 L 212.5 553 Z " /><path fill="rgb(191,192,185)" stroke="rgb(191,192,185)" stroke-width="1" opacity="0.9450980392156862" d="M 96.5 554 L 115 554.5 L 96.5 555 L 96.5 554 Z " /><path fill="rgb(191,192,185)" stroke="rgb(191,192,185)" stroke-width="1" opacity="0.9450980392156862" d="M 150.5 554 L 181 554.5 L 150.5 555 L 150.5 554 Z " /><path fill="rgb(191,192,185)" stroke="rgb(191,192,185)" stroke-width="1" opacity="0.9450980392156862" d="M 465.5 554 L 464.5 556 L 465.5 554 Z " /><path fill="rgb(191,192,185)" stroke="rgb(191,192,185)" stroke-width="1" opacity="0.9450980392156862" d="M 462.5 556 L 461.5 558 L 462.5 556 Z " /><path fill="rgb(191,192,185)" stroke="rgb(191,192,185)" stroke-width="1" opacity="0.9450980392156862" d="M 62.5 563 L 63.5 565 L 62.5 563 Z " /><path fill="rgb(191,192,185)" stroke="rgb(191,192,185)" stroke-width="1" opacity="0.9450980392156862" d="M 409.5 573 L 412 573.5 L 409.5 574 L 409.5 573 Z " /><path fill="rgb(191,192,185)" stroke="rgb(191,192,185)" stroke-width="1" opacity="0.9450980392156862" d="M 403.5 574 L 407 574.5 L 403.5 575 L 403.5 574 Z " /><path fill="rgb(191,192,185)" stroke="rgb(191,192,185)" stroke-width="1" opacity="0.9450980392156862" d="M 225.5 575 L 250 575.5 L 225.5 576 L 225.5 575 Z " /><path fill="rgb(191,192,185)" stroke="rgb(191,192,185)" stroke-width="1" opacity="0.9450980392156862" d="M 93.5 576 L 98 576.5 L 93.5 577 L 93.5 576 Z " /><path fill="rgb(191,192,185)" stroke="rgb(191,192,185)" stroke-width="1" opacity="0.9450980392156862" d="M 172.5 576 L 196 576.5 L 172.5 577 L 172.5 576 Z " /><path fill="rgb(233,233,224)" stroke="rgb(233,233,224)" stroke-width="1" opacity="0.996078431372549" d="M 862.5 76 Q 917.6 71.4 939 100.5 Q 947.6 110.9 952 125.5 L 954 133.5 L 954 154.5 L 946 180.5 Q 938.7 196.6 929 209 Q 926.3 207.9 927 210.5 L 916.5 220 L 898.5 231 L 886.5 235 Q 877.6 233.6 872.5 236 L 871.5 235 L 858.5 235 L 846.5 232 L 806.5 219 L 796.5 217 L 793.5 215 L 788.5 214 L 769.5 214 L 766.5 215 L 763.5 216 L 761.5 216 L 747.5 220 L 729.5 230 Q 711.3 241.3 698 257.5 L 688 274.5 Q 685.6 279.6 687 288.5 L 695 314.5 L 713 357.5 L 713 379.5 Q 707.7 399.2 693.5 410 L 674.5 419 L 650.5 419 Q 632.9 414.1 623 401.5 L 613 386.5 L 600 360.5 L 596.5 357 L 550.5 333 L 548 333 L 542 351.5 L 542 353.5 L 542 375.5 L 544 384.5 L 544 405.5 L 547 422.5 L 547 424.5 L 549 434.5 L 549 471.5 L 542 504.5 L 538.5 511 L 521 516 Q 520.2 530 515 540.5 L 508 553.5 L 495 570 L 472.5 586 L 446.5 597 L 417.5 604 L 405.5 604 L 404.5 605 L 225.5 605 L 224.5 606 L 171.5 606 L 170.5 607 L 96.5 607 L 95.5 606 L 78.5 605 L 60.5 599 Q 41.4 590.1 29 574.5 Q 14.2 557.8 7 533.5 L 7 507.5 Q 11.6 485.1 25.5 472 Q 36.5 462 51.5 456 L 62.5 453 L 81.5 453 L 82.5 454 L 94.5 454 L 95.5 455 L 131.5 458 L 132.5 459 L 143.5 459 Q 147.8 449.8 155.5 444 L 176.5 432 L 186.5 429 L 201.5 428 L 202.5 429 L 219.5 430 L 243.5 439 L 250.5 443 L 253.5 443 L 275.5 421 L 291.5 412 L 309.5 407 L 338.5 407 Q 361.9 412.1 376 426.5 L 399.5 462 L 411.5 457 L 420 450.5 Q 419.3 448.3 421.5 449 L 423 446 Q 425.7 447.1 425 444.5 Q 431.4 438.4 434 428.5 L 435 414.5 L 436 413.5 L 436 402.5 L 433 394.5 L 433 389.5 L 431 385.5 L 428 368.5 L 426 364.5 L 425 355.5 L 420 337.5 L 420 317.5 L 423 307.5 L 434 287.5 L 460 247.5 L 470 237.5 L 470 236 L 493.5 225 L 515.5 225 L 538.5 235 L 586.5 203 L 680.5 146 L 686.5 141 L 741.5 112 L 802.5 90 L 806.5 90 L 817.5 86 L 862.5 76 Z M 874 105 L 839 112 L 805 121 L 754 140 Q 643 199 543 269 L 539 269 L 514 256 L 507 254 L 499 255 L 493 258 L 474 282 L 450 322 L 450 335 L 466 402 L 466 421 L 463 437 Q 458 454 448 466 Q 432 485 405 493 L 391 493 L 381 488 L 371 477 L 359 455 L 346 441 L 330 436 L 310 438 L 297 443 L 277 465 Q 272 473 262 476 L 248 475 L 222 462 L 206 458 L 192 459 L 180 464 Q 168 472 163 485 L 154 490 L 138 490 L 131 488 L 120 488 L 115 486 L 93 485 L 87 483 L 67 483 L 55 488 L 40 504 L 36 518 L 36 526 L 38 533 L 49 552 L 68 568 L 84 575 L 94 577 L 196 577 L 197 576 L 250 576 L 251 575 L 407 575 Q 412 572 422 573 L 442 567 L 468 554 Q 481 543 489 526 L 492 513 L 492 492 Q 496 490 506 491 L 510 489 L 516 482 L 520 462 L 519 438 L 516 426 L 516 416 L 514 408 L 514 391 L 513 390 L 513 345 L 517 329 L 525 309 L 542 296 L 559 303 L 620 335 L 645 382 L 650 386 L 660 390 L 667 390 L 676 386 Q 682 381 684 372 Q 682 368 683 362 L 669 332 L 660 306 L 657 292 L 657 275 L 659 267 Q 664 252 673 241 L 696 218 L 721 201 L 746 189 L 762 186 L 766 184 L 790 184 L 792 185 L 794 185 L 802 186 L 869 206 L 883 205 L 897 198 Q 917 182 924 153 L 924 139 L 916 121 Q 911 113 902 109 L 892 106 L 874 105 Z " /><path fill="rgb(233,233,224)" stroke="rgb(233,233,224)" stroke-width="1" opacity="0.996078431372549" d="M 876.5 127 L 889.5 128 L 898 132.5 Q 903.3 137.2 902 148.5 L 894 167.5 L 886 178 L 877.5 183 L 866.5 183 L 801.5 163 L 776.5 162 L 774.5 161 L 773.5 162 Q 764.6 160.6 759.5 163 L 760.5 161 L 811.5 142 L 841.5 134 L 876.5 127 Z " /><path fill="rgb(233,233,224)" stroke="rgb(233,233,224)" stroke-width="1" opacity="0.996078431372549" d="M 660.5 219 L 662 219.5 Q 648.1 233.6 640 253.5 L 635 271.5 L 635 293.5 L 636 296.5 L 639 312.5 L 649 338.5 L 646 336.5 Q 642.3 324.7 633.5 318 L 564 281.5 Q 610.2 248.2 660.5 219 Z " /><path fill="rgb(233,233,224)" stroke="rgb(233,233,224)" stroke-width="1" opacity="0.996078431372549" d="M 502.5 277 L 518 284.5 L 507 294.5 L 499 311.5 L 491 339.5 Q 493.2 340.7 492 345.5 L 490 348.5 L 490 381.5 L 491 382.5 L 491 397.5 L 493 406.5 L 493 419.5 L 495 425.5 L 495 433.5 L 497 443.5 L 497 461.5 Q 494.8 462.7 496 467.5 L 494.5 469 Q 489.8 467.7 488.5 470 L 486.5 470 L 480.5 471 L 472 478.5 L 470 483.5 L 470 507.5 Q 467.7 508.7 469 513.5 Q 465.2 526.2 456.5 534 L 443.5 542 L 421.5 550 L 409.5 551 L 408.5 552 L 398.5 552 L 397.5 553 L 212.5 553 L 211.5 554 L 115.5 555 L 114.5 554 L 90.5 554 L 84.5 552 Q 73.5 547.5 67 538.5 L 59 524.5 L 59 514.5 L 64.5 508 Q 69.3 503.3 80.5 505 L 81.5 506 L 109.5 508 L 114.5 510 L 116.5 510 L 127.5 510 L 134.5 512 Q 145.4 510.6 152.5 513 L 165.5 509 L 180 498.5 L 192.5 482 L 201.5 480 L 213.5 483 L 237.5 495 L 246.5 498 L 254.5 498 L 255.5 499 L 258.5 498 Q 281.8 495.8 292 480.5 L 301 467 L 313.5 460 L 331.5 459 L 341 466.5 L 355 492.5 L 367.5 506 L 382.5 514 L 390.5 516 L 392.5 516 L 407.5 515 L 424.5 509 Q 444.9 500.4 459 485.5 Q 458.3 483.3 460.5 484 Q 472.9 472.4 480 455.5 L 488 425.5 L 488 423.5 L 488 398.5 L 487 397.5 L 487 395.5 L 473 335.5 L 473 324.5 L 502.5 277 Z M 321 493 L 314 502 Q 303 515 286 523 L 339 523 L 339 521 L 333 515 L 321 493 Z M 206 513 L 199 523 L 199 524 L 227 524 L 227 523 L 206 513 Z " /><path fill="rgb(233,233,224)" stroke="rgb(233,233,224)" stroke-width="1" opacity="0.996078431372549" d="M 334.5 615 L 337 615.5 L 337 633.5 L 338 634.5 L 338 646 L 326.5 643 L 324.5 643 L 319.5 643 L 309.5 640 L 307.5 640 L 268.5 634 L 260 631.5 L 262.5 630 L 271.5 629 L 276.5 627 L 290.5 625 L 334.5 615 Z " /></svg>