<svg width="960" height="720" version="1.1" xmlns="http://www.w3.org/2000/svg" desc="Created with imagetracer.js version 1.2.6" ><path fill="rgb(0,0,0)" stroke="rgb(0,0,0)" stroke-width="1" opacity="0" d="M 0 0 L 960 0 L 960 720 L 0 720 L 0 0 Z M 348 7 L 347 8 L 337 8 L 324 11 L 303 22 L 288 39 L 271 78 L 205 243 L 94 511 L 87 532 L 82 558 L 82 591 L 86 610 Q 94 636 111 654 Q 131 679 163 693 L 190 701 L 202 702 L 203 703 L 212 703 L 213 704 L 233 704 L 234 705 L 276 704 L 277 703 L 289 702 Q 309 697 323 685 Q 335 674 342 659 L 347 643 L 348 631 L 349 630 L 348 604 L 335 540 L 335 535 L 327 496 L 323 467 L 335 473 L 345 475 L 358 474 L 367 471 L 431 439 L 467 425 L 506 413 L 546 404 L 570 401 L 571 400 L 596 398 L 597 397 L 606 397 L 607 396 L 619 396 L 620 395 L 640 395 L 641 394 L 675 395 L 676 396 L 698 397 L 699 398 L 712 399 L 718 402 L 709 407 L 685 415 L 654 421 L 648 421 L 628 426 Q 609 433 595 444 Q 574 458 569 487 L 570 503 L 573 513 Q 578 524 586 534 Q 610 560 646 575 L 680 586 L 702 590 L 709 590 L 710 591 L 736 591 L 737 590 L 748 589 Q 764 585 776 576 L 789 562 Q 806 524 827 490 L 862 441 L 878 416 L 886 396 L 890 374 L 889 351 L 884 330 Q 876 307 862 291 Q 842 266 807 256 L 786 252 L 773 252 L 772 251 L 725 250 L 724 249 L 696 249 L 695 248 L 668 249 L 637 257 L 614 267 L 565 298 L 551 304 L 538 307 L 515 307 Q 513 305 509 306 L 454 292 Q 444 292 438 289 L 431 289 L 430 288 L 420 288 L 419 287 L 389 287 L 388 288 L 372 289 L 354 293 Q 361 281 365 265 L 366 249 L 367 248 L 367 214 L 372 188 L 404 112 L 413 84 L 413 68 L 411 58 Q 406 41 396 30 Q 386 17 371 11 L 360 8 Q 351 10 348 7 Z M 187 225 L 145 280 L 143 284 L 168 295 L 169 294 L 185 232 L 187 228 L 187 225 Z " /><path fill="rgb(0,0,0)" stroke="rgb(0,0,0)" stroke-width="1" opacity="0" d="M 344.5 72 Q 348.5 71.5 349 74.5 L 344 89.5 L 319 146.5 L 310 171.5 L 305 193.5 L 304 208.5 L 303 209.5 L 303 243.5 L 302 244.5 L 302 253.5 L 298.5 259 L 262 271 L 331 99.5 L 340 78.5 L 344.5 72 Z " /><path fill="rgb(0,0,0)" stroke="rgb(0,0,0)" stroke-width="1" opacity="0" d="M 674.5 313 L 713.5 313 L 714.5 314 L 739.5 314 L 740.5 315 L 778.5 316 L 795.5 320 Q 807.1 324.4 814 333.5 L 823 349.5 L 825 356.5 L 826 368.5 Q 823.5 370 825 375.5 L 819 389.5 L 771 458.5 Q 751.4 490.5 736 526 L 721.5 528 L 720.5 527 L 709.5 527 L 693.5 524 L 668.5 516 Q 649.3 507.7 636 493.5 L 649.5 486 L 692.5 479 L 728.5 468 Q 752.1 459.6 767 442.5 Q 775.9 432.4 780 417.5 L 781 413.5 L 781 391.5 Q 776 364.5 757.5 351 Q 742.6 339.9 720.5 336 L 706.5 335 L 705.5 334 L 695.5 334 L 694.5 333 L 684.5 333 L 683.5 332 L 669.5 332 L 668.5 331 L 632 330.5 Q 649.8 318.3 674.5 313 Z " /><path fill="rgb(0,0,0)" stroke="rgb(0,0,0)" stroke-width="1" opacity="0" d="M 394.5 351 L 412.5 351 L 413.5 352 L 429.5 353 L 453.5 358 L 460 360.5 Q 403.1 378.1 355.5 405 L 343.5 391 Q 334.9 383.6 322.5 380 L 303.5 379 L 293.5 381 L 279.5 387 L 265 399.5 Q 251.6 415.1 254 446.5 L 255 447.5 L 255 454.5 L 256 455.5 L 261 490.5 L 263 496.5 L 264 507.5 L 266 513.5 L 267 524.5 L 269 530.5 L 269 535.5 L 284 609.5 L 285 625.5 L 283 633.5 L 278.5 638 L 273.5 640 L 257.5 640 L 256.5 641 L 224.5 641 L 223.5 640 L 204.5 639 L 188.5 635 Q 174.2 629.3 165 618.5 Q 154.6 609.9 149 596.5 L 145 579.5 L 145 567.5 L 146 566.5 L 147 554.5 L 153 534.5 L 219 374 L 221.5 374 Q 228.7 381.8 240.5 385 L 249.5 387 L 268.5 387 L 304.5 377 L 359.5 358 L 374.5 354 L 385.5 352 L 393.5 352 L 394.5 351 Z " /><path fill="rgb(44,44,52)" stroke="rgb(44,44,52)" stroke-width="1" opacity="0.8313725490196079" d="M 341.5 31 L 344 31.5 L 341.5 32 L 341.5 31 Z " /><path fill="rgb(44,44,52)" stroke="rgb(44,44,52)" stroke-width="1" opacity="0.8313725490196079" d="M 352.5 31 L 355 31.5 L 352.5 32 L 352.5 31 Z " /><path fill="rgb(44,44,52)" stroke="rgb(44,44,52)" stroke-width="1" opacity="0.8313725490196079" d="M 320.5 38 L 319.5 40 L 320.5 38 Z " /><path fill="rgb(44,44,52)" stroke="rgb(44,44,52)" stroke-width="1" opacity="0.8313725490196079" d="M 373.5 40 L 377.5 45 L 373.5 40 Z " /><path fill="rgb(44,44,52)" stroke="rgb(44,44,52)" stroke-width="1" opacity="0.8313725490196079" d="M 316.5 41 L 311.5 47 L 316.5 41 Z " /><path fill="rgb(44,44,52)" stroke="rgb(44,44,52)" stroke-width="1" opacity="0.8313725490196079" d="M 343.5 48 L 346 48.5 L 343.5 49 L 343.5 48 Z " /><path fill="rgb(44,44,52)" stroke="rgb(44,44,52)" stroke-width="1" opacity="0.8313725490196079" d="M 349.5 48 L 353 48.5 L 349.5 49 L 349.5 48 Z " /><path fill="rgb(44,44,52)" stroke="rgb(44,44,52)" stroke-width="1" opacity="0.8313725490196079" d="M 328.5 53 L 327.5 55 L 328.5 53 Z " /><path fill="rgb(44,44,52)" stroke="rgb(44,44,52)" stroke-width="1" opacity="0.8313725490196079" d="M 372.5 72 L 373 74.5 L 372 74.5 L 372.5 72 Z " /><path fill="rgb(44,44,52)" stroke="rgb(44,44,52)" stroke-width="1" opacity="0.8313725490196079" d="M 389.5 73 L 390 76.5 L 389 76.5 L 389.5 73 Z " /><path fill="rgb(44,44,52)" stroke="rgb(44,44,52)" stroke-width="1" opacity="0.8313725490196079" d="M 344.5 204 L 345 206.5 L 344 206.5 L 344.5 204 Z " /><path fill="rgb(44,44,52)" stroke="rgb(44,44,52)" stroke-width="1" opacity="0.8313725490196079" d="M 327.5 206 L 328 208.5 L 327 208.5 L 327.5 206 Z " /><path fill="rgb(44,44,52)" stroke="rgb(44,44,52)" stroke-width="1" opacity="0.8313725490196079" d="M 343.5 214 L 344 217.5 L 343 217.5 L 343.5 214 Z " /><path fill="rgb(44,44,52)" stroke="rgb(44,44,52)" stroke-width="1" opacity="0.8313725490196079" d="M 326.5 218 L 327 229.5 L 326 229.5 L 326.5 218 Z " /><path fill="rgb(44,44,52)" stroke="rgb(44,44,52)" stroke-width="1" opacity="0.8313725490196079" d="M 342.5 250 L 343 253.5 L 342 253.5 L 342.5 250 Z " /><path fill="rgb(44,44,52)" stroke="rgb(44,44,52)" stroke-width="1" opacity="0.8313725490196079" d="M 673.5 272 L 676 272.5 L 673.5 273 L 673.5 272 Z " /><path fill="rgb(44,44,52)" stroke="rgb(44,44,52)" stroke-width="1" opacity="0.8313725490196079" d="M 698.5 272 L 708 272.5 L 698.5 273 L 698.5 272 Z " /><path fill="rgb(44,44,52)" stroke="rgb(44,44,52)" stroke-width="1" opacity="0.8313725490196079" d="M 727.5 273 L 735 273.5 L 727.5 274 L 727.5 273 Z " /><path fill="rgb(44,44,52)" stroke="rgb(44,44,52)" stroke-width="1" opacity="0.8313725490196079" d="M 752.5 274 L 759 274.5 L 752.5 275 L 752.5 274 Z " /><path fill="rgb(44,44,52)" stroke="rgb(44,44,52)" stroke-width="1" opacity="0.8313725490196079" d="M 774.5 275 L 779 275.5 L 774.5 276 L 774.5 275 Z " /><path fill="rgb(44,44,52)" stroke="rgb(44,44,52)" stroke-width="1" opacity="0.8313725490196079" d="M 785.5 276 L 788 276.5 L 785.5 277 L 785.5 276 Z " /><path fill="rgb(44,44,52)" stroke="rgb(44,44,52)" stroke-width="1" opacity="0.8313725490196079" d="M 334.5 278 L 333.5 280 L 334.5 278 Z " /><path fill="rgb(44,44,52)" stroke="rgb(44,44,52)" stroke-width="1" opacity="0.8313725490196079" d="M 332.5 281 L 331.5 283 L 332.5 281 Z " /><path fill="rgb(44,44,52)" stroke="rgb(44,44,52)" stroke-width="1" opacity="0.8313725490196079" d="M 329.5 285 L 328.5 287 L 329.5 285 Z " /><path fill="rgb(44,44,52)" stroke="rgb(44,44,52)" stroke-width="1" opacity="0.8313725490196079" d="M 673.5 289 L 676 289.5 L 673.5 290 L 673.5 289 Z " /><path fill="rgb(44,44,52)" stroke="rgb(44,44,52)" stroke-width="1" opacity="0.8313725490196079" d="M 701.5 289 L 710 289.5 L 701.5 290 L 701.5 289 Z " /><path fill="rgb(44,44,52)" stroke="rgb(44,44,52)" stroke-width="1" opacity="0.8313725490196079" d="M 729.5 290 L 737 290.5 L 729.5 291 L 729.5 290 Z " /><path fill="rgb(44,44,52)" stroke="rgb(44,44,52)" stroke-width="1" opacity="0.8313725490196079" d="M 754.5 291 L 760 291.5 L 754.5 292 L 754.5 291 Z " /><path fill="rgb(44,44,52)" stroke="rgb(44,44,52)" stroke-width="1" opacity="0.8313725490196079" d="M 775.5 292 L 778 292.5 L 775.5 293 L 775.5 292 Z " /><path fill="rgb(44,44,52)" stroke="rgb(44,44,52)" stroke-width="1" opacity="0.8313725490196079" d="M 830.5 293 L 831.5 295 L 830.5 293 Z " /><path fill="rgb(44,44,52)" stroke="rgb(44,44,52)" stroke-width="1" opacity="0.8313725490196079" d="M 835.5 297 L 842.5 305 L 835.5 297 Z " /><path fill="rgb(44,44,52)" stroke="rgb(44,44,52)" stroke-width="1" opacity="0.8313725490196079" d="M 239.5 305 L 232.5 313 L 239.5 305 Z " /><path fill="rgb(44,44,52)" stroke="rgb(44,44,52)" stroke-width="1" opacity="0.8313725490196079" d="M 820.5 307 L 821.5 309 L 820.5 307 Z " /><path fill="rgb(44,44,52)" stroke="rgb(44,44,52)" stroke-width="1" opacity="0.8313725490196079" d="M 845.5 308 L 846.5 310 L 845.5 308 Z " /><path fill="rgb(44,44,52)" stroke="rgb(44,44,52)" stroke-width="1" opacity="0.8313725490196079" d="M 401.5 310 L 405 310.5 L 401.5 311 L 401.5 310 Z " /><path fill="rgb(44,44,52)" stroke="rgb(44,44,52)" stroke-width="1" opacity="0.8313725490196079" d="M 384.5 311 L 388 311.5 L 384.5 312 L 384.5 311 Z " /><path fill="rgb(44,44,52)" stroke="rgb(44,44,52)" stroke-width="1" opacity="0.8313725490196079" d="M 420.5 311 L 424 311.5 L 420.5 312 L 420.5 311 Z " /><path fill="rgb(44,44,52)" stroke="rgb(44,44,52)" stroke-width="1" opacity="0.8313725490196079" d="M 826.5 312 L 829.5 316 L 826.5 312 Z " /><path fill="rgb(44,44,52)" stroke="rgb(44,44,52)" stroke-width="1" opacity="0.8313725490196079" d="M 848.5 312 L 849.5 314 L 848.5 312 Z " /><path fill="rgb(44,44,52)" stroke="rgb(44,44,52)" stroke-width="1" opacity="0.8313725490196079" d="M 249.5 318 L 245.5 323 L 249.5 318 Z " /><path fill="rgb(44,44,52)" stroke="rgb(44,44,52)" stroke-width="1" opacity="0.8313725490196079" d="M 832.5 319 L 833.5 321 L 832.5 319 Z " /><path fill="rgb(44,44,52)" stroke="rgb(44,44,52)" stroke-width="1" opacity="0.8313725490196079" d="M 398.5 327 L 409 327.5 L 398.5 328 L 398.5 327 Z " /><path fill="rgb(44,44,52)" stroke="rgb(44,44,52)" stroke-width="1" opacity="0.8313725490196079" d="M 592.5 327 L 591.5 329 L 592.5 327 Z " /><path fill="rgb(44,44,52)" stroke="rgb(44,44,52)" stroke-width="1" opacity="0.8313725490196079" d="M 384.5 328 L 387 328.5 L 384.5 329 L 384.5 328 Z " /><path fill="rgb(44,44,52)" stroke="rgb(44,44,52)" stroke-width="1" opacity="0.8313725490196079" d="M 421.5 328 L 424 328.5 L 421.5 329 L 421.5 328 Z " /><path fill="rgb(44,44,52)" stroke="rgb(44,44,52)" stroke-width="1" opacity="0.8313725490196079" d="M 242.5 329 L 243 333.5 L 242 333.5 L 242.5 329 Z " /><path fill="rgb(44,44,52)" stroke="rgb(44,44,52)" stroke-width="1" opacity="0.8313725490196079" d="M 512.5 330 L 515 330.5 L 512.5 331 L 512.5 330 Z " /><path fill="rgb(44,44,52)" stroke="rgb(44,44,52)" stroke-width="1" opacity="0.8313725490196079" d="M 246.5 342 L 247.5 344 L 246.5 342 Z " /><path fill="rgb(44,44,52)" stroke="rgb(44,44,52)" stroke-width="1" opacity="0.8313725490196079" d="M 261.5 346 L 264 346.5 L 261.5 347 L 261.5 346 Z " /><path fill="rgb(44,44,52)" stroke="rgb(44,44,52)" stroke-width="1" opacity="0.8313725490196079" d="M 512.5 347 L 515 347.5 L 512.5 348 L 512.5 347 Z " /><path fill="rgb(44,44,52)" stroke="rgb(44,44,52)" stroke-width="1" opacity="0.8313725490196079" d="M 535.5 347 L 538 347.5 L 535.5 348 L 535.5 347 Z " /><path fill="rgb(44,44,52)" stroke="rgb(44,44,52)" stroke-width="1" opacity="0.8313725490196079" d="M 645.5 354 L 649 354.5 L 645.5 355 L 645.5 354 Z " /><path fill="rgb(44,44,52)" stroke="rgb(44,44,52)" stroke-width="1" opacity="0.8313725490196079" d="M 619.5 355 L 624 355.5 L 619.5 356 L 619.5 355 Z " /><path fill="rgb(44,44,52)" stroke="rgb(44,44,52)" stroke-width="1" opacity="0.8313725490196079" d="M 670.5 355 L 675 355.5 L 670.5 356 L 670.5 355 Z " /><path fill="rgb(44,44,52)" stroke="rgb(44,44,52)" stroke-width="1" opacity="0.8313725490196079" d="M 605.5 356 L 609 356.5 L 605.5 357 L 605.5 356 Z " /><path fill="rgb(44,44,52)" stroke="rgb(44,44,52)" stroke-width="1" opacity="0.8313725490196079" d="M 684.5 356 L 688 356.5 L 684.5 357 L 684.5 356 Z " /><path fill="rgb(44,44,52)" stroke="rgb(44,44,52)" stroke-width="1" opacity="0.8313725490196079" d="M 593.5 357 L 597 357.5 L 593.5 358 L 593.5 357 Z " /><path fill="rgb(44,44,52)" stroke="rgb(44,44,52)" stroke-width="1" opacity="0.8313725490196079" d="M 696.5 357 L 699 357.5 L 696.5 358 L 696.5 357 Z " /><path fill="rgb(44,44,52)" stroke="rgb(44,44,52)" stroke-width="1" opacity="0.8313725490196079" d="M 583.5 358 L 586 358.5 L 583.5 359 L 583.5 358 Z " /><path fill="rgb(44,44,52)" stroke="rgb(44,44,52)" stroke-width="1" opacity="0.8313725490196079" d="M 575.5 359 L 578 359.5 L 575.5 360 L 575.5 359 Z " /><path fill="rgb(44,44,52)" stroke="rgb(44,44,52)" stroke-width="1" opacity="0.8313725490196079" d="M 567.5 360 L 570 360.5 L 567.5 361 L 567.5 360 Z " /><path fill="rgb(44,44,52)" stroke="rgb(44,44,52)" stroke-width="1" opacity="0.8313725490196079" d="M 254.5 363 L 263 363.5 L 254.5 364 L 254.5 363 Z " /><path fill="rgb(44,44,52)" stroke="rgb(44,44,52)" stroke-width="1" opacity="0.8313725490196079" d="M 743.5 370 L 749.5 377 L 743.5 370 Z " /><path fill="rgb(44,44,52)" stroke="rgb(44,44,52)" stroke-width="1" opacity="0.8313725490196079" d="M 620.5 371 L 626 371.5 L 620.5 372 L 620.5 371 Z " /><path fill="rgb(44,44,52)" stroke="rgb(44,44,52)" stroke-width="1" opacity="0.8313725490196079" d="M 669.5 371 L 674 371.5 L 669.5 372 L 669.5 371 Z " /><path fill="rgb(44,44,52)" stroke="rgb(44,44,52)" stroke-width="1" opacity="0.8313725490196079" d="M 606.5 372 L 610 372.5 L 606.5 373 L 606.5 372 Z " /><path fill="rgb(44,44,52)" stroke="rgb(44,44,52)" stroke-width="1" opacity="0.8313725490196079" d="M 683.5 372 L 687 372.5 L 683.5 373 L 683.5 372 Z " /><path fill="rgb(44,44,52)" stroke="rgb(44,44,52)" stroke-width="1" opacity="0.8313725490196079" d="M 596.5 373 L 599 373.5 L 596.5 374 L 596.5 373 Z " /><path fill="rgb(44,44,52)" stroke="rgb(44,44,52)" stroke-width="1" opacity="0.8313725490196079" d="M 695.5 373 L 698 373.5 L 695.5 374 L 695.5 373 Z " /><path fill="rgb(44,44,52)" stroke="rgb(44,44,52)" stroke-width="1" opacity="0.8313725490196079" d="M 585.5 374 L 588 374.5 L 585.5 375 L 585.5 374 Z " /><path fill="rgb(44,44,52)" stroke="rgb(44,44,52)" stroke-width="1" opacity="0.8313725490196079" d="M 865.5 375 L 866 377.5 L 865 377.5 L 865.5 375 Z " /><path fill="rgb(44,44,52)" stroke="rgb(44,44,52)" stroke-width="1" opacity="0.8313725490196079" d="M 569.5 376 L 572 376.5 L 569.5 377 L 569.5 376 Z " /><path fill="rgb(44,44,52)" stroke="rgb(44,44,52)" stroke-width="1" opacity="0.8313725490196079" d="M 324.5 406 L 325.5 408 L 324.5 406 Z " /><path fill="rgb(44,44,52)" stroke="rgb(44,44,52)" stroke-width="1" opacity="0.8313725490196079" d="M 757.5 406 L 758 408.5 L 757 408.5 L 757.5 406 Z " /><path fill="rgb(44,44,52)" stroke="rgb(44,44,52)" stroke-width="1" opacity="0.8313725490196079" d="M 835.5 407 L 834.5 409 L 835.5 407 Z " /><path fill="rgb(44,44,52)" stroke="rgb(44,44,52)" stroke-width="1" opacity="0.8313725490196079" d="M 328.5 409 L 331.5 413 L 328.5 409 Z " /><path fill="rgb(44,44,52)" stroke="rgb(44,44,52)" stroke-width="1" opacity="0.8313725490196079" d="M 287.5 410 L 284.5 414 L 287.5 410 Z " /><path fill="rgb(44,44,52)" stroke="rgb(44,44,52)" stroke-width="1" opacity="0.8313725490196079" d="M 833.5 410 L 832.5 412 L 833.5 410 Z " /><path fill="rgb(44,44,52)" stroke="rgb(44,44,52)" stroke-width="1" opacity="0.8313725490196079" d="M 334.5 416 L 335.5 418 L 334.5 416 Z " /><path fill="rgb(44,44,52)" stroke="rgb(44,44,52)" stroke-width="1" opacity="0.8313725490196079" d="M 736.5 416 L 732.5 421 L 736.5 416 Z " /><path fill="rgb(44,44,52)" stroke="rgb(44,44,52)" stroke-width="1" opacity="0.8313725490196079" d="M 316.5 420 L 317.5 422 L 316.5 420 Z " /><path fill="rgb(44,44,52)" stroke="rgb(44,44,52)" stroke-width="1" opacity="0.8313725490196079" d="M 298.5 422 L 297.5 424 L 298.5 422 Z " /><path fill="rgb(44,44,52)" stroke="rgb(44,44,52)" stroke-width="1" opacity="0.8313725490196079" d="M 824.5 423 L 823.5 425 L 824.5 423 Z " /><path fill="rgb(44,44,52)" stroke="rgb(44,44,52)" stroke-width="1" opacity="0.8313725490196079" d="M 320.5 424 L 321.5 426 L 320.5 424 Z " /><path fill="rgb(44,44,52)" stroke="rgb(44,44,52)" stroke-width="1" opacity="0.8313725490196079" d="M 749.5 426 L 742.5 434 L 749.5 426 Z " /><path fill="rgb(44,44,52)" stroke="rgb(44,44,52)" stroke-width="1" opacity="0.8313725490196079" d="M 840.5 429 L 839.5 431 L 840.5 429 Z " /><path fill="rgb(44,44,52)" stroke="rgb(44,44,52)" stroke-width="1" opacity="0.8313725490196079" d="M 277.5 431 L 278 441.5 L 277 441.5 L 277.5 431 Z " /><path fill="rgb(44,44,52)" stroke="rgb(44,44,52)" stroke-width="1" opacity="0.8313725490196079" d="M 344.5 432 L 346.5 435 L 344.5 432 Z " /><path fill="rgb(44,44,52)" stroke="rgb(44,44,52)" stroke-width="1" opacity="0.8313725490196079" d="M 816.5 434 L 815.5 436 L 816.5 434 Z " /><path fill="rgb(44,44,52)" stroke="rgb(44,44,52)" stroke-width="1" opacity="0.8313725490196079" d="M 835.5 436 L 834.5 438 L 835.5 436 Z " /><path fill="rgb(44,44,52)" stroke="rgb(44,44,52)" stroke-width="1" opacity="0.8313725490196079" d="M 294.5 440 L 295 442.5 L 294 442.5 L 294.5 440 Z " /><path fill="rgb(44,44,52)" stroke="rgb(44,44,52)" stroke-width="1" opacity="0.8313725490196079" d="M 827.5 447 L 826.5 449 L 827.5 447 Z " /><path fill="rgb(44,44,52)" stroke="rgb(44,44,52)" stroke-width="1" opacity="0.8313725490196079" d="M 806.5 448 L 805.5 450 L 806.5 448 Z " /><path fill="rgb(44,44,52)" stroke="rgb(44,44,52)" stroke-width="1" opacity="0.8313725490196079" d="M 822.5 454 L 821.5 456 L 822.5 454 Z " /><path fill="rgb(44,44,52)" stroke="rgb(44,44,52)" stroke-width="1" opacity="0.8313725490196079" d="M 609.5 462 L 607.5 465 L 609.5 462 Z " /><path fill="rgb(44,44,52)" stroke="rgb(44,44,52)" stroke-width="1" opacity="0.8313725490196079" d="M 602.5 469 L 600.5 472 L 602.5 469 Z " /><path fill="rgb(44,44,52)" stroke="rgb(44,44,52)" stroke-width="1" opacity="0.8313725490196079" d="M 618.5 476 L 613.5 482 L 618.5 476 Z " /><path fill="rgb(44,44,52)" stroke="rgb(44,44,52)" stroke-width="1" opacity="0.8313725490196079" d="M 615.5 506 L 618.5 510 L 615.5 506 Z " /><path fill="rgb(44,44,52)" stroke="rgb(44,44,52)" stroke-width="1" opacity="0.8313725490196079" d="M 599.5 511 L 600.5 513 L 599.5 511 Z " /><path fill="rgb(44,44,52)" stroke="rgb(44,44,52)" stroke-width="1" opacity="0.8313725490196079" d="M 621.5 512 L 625.5 517 L 621.5 512 Z " /><path fill="rgb(44,44,52)" stroke="rgb(44,44,52)" stroke-width="1" opacity="0.8313725490196079" d="M 602.5 515 L 603.5 517 L 602.5 515 Z " /><path fill="rgb(44,44,52)" stroke="rgb(44,44,52)" stroke-width="1" opacity="0.8313725490196079" d="M 629.5 519 L 630.5 521 L 629.5 519 Z " /><path fill="rgb(44,44,52)" stroke="rgb(44,44,52)" stroke-width="1" opacity="0.8313725490196079" d="M 606.5 520 L 610.5 525 L 606.5 520 Z " /><path fill="rgb(44,44,52)" stroke="rgb(44,44,52)" stroke-width="1" opacity="0.8313725490196079" d="M 616.5 529 L 618.5 532 L 616.5 529 Z " /><path fill="rgb(44,44,52)" stroke="rgb(44,44,52)" stroke-width="1" opacity="0.8313725490196079" d="M 709.5 550 L 712 550.5 L 709.5 551 L 709.5 550 Z " /><path fill="rgb(44,44,52)" stroke="rgb(44,44,52)" stroke-width="1" opacity="0.8313725490196079" d="M 765.5 552 L 762.5 556 L 765.5 552 Z " /><path fill="rgb(44,44,52)" stroke="rgb(44,44,52)" stroke-width="1" opacity="0.8313725490196079" d="M 122.5 558 L 123 560.5 L 122 560.5 L 122.5 558 Z " /><path fill="rgb(44,44,52)" stroke="rgb(44,44,52)" stroke-width="1" opacity="0.8313725490196079" d="M 105.5 565 L 106 571.5 L 105 571.5 L 105.5 565 Z " /><path fill="rgb(44,44,52)" stroke="rgb(44,44,52)" stroke-width="1" opacity="0.8313725490196079" d="M 718.5 567 L 726 567.5 L 718.5 568 L 718.5 567 Z " /><path fill="rgb(44,44,52)" stroke="rgb(44,44,52)" stroke-width="1" opacity="0.8313725490196079" d="M 121.5 568 L 122 578.5 L 121 578.5 L 121.5 568 Z " /><path fill="rgb(44,44,52)" stroke="rgb(44,44,52)" stroke-width="1" opacity="0.8313725490196079" d="M 105.5 578 L 106 581.5 L 105 581.5 L 105.5 578 Z " /><path fill="rgb(44,44,52)" stroke="rgb(44,44,52)" stroke-width="1" opacity="0.8313725490196079" d="M 122.5 586 L 123 588.5 L 122 588.5 L 122.5 586 Z " /><path fill="rgb(44,44,52)" stroke="rgb(44,44,52)" stroke-width="1" opacity="0.8313725490196079" d="M 324.5 609 L 325 612.5 L 324 612.5 L 324.5 609 Z " /><path fill="rgb(44,44,52)" stroke="rgb(44,44,52)" stroke-width="1" opacity="0.8313725490196079" d="M 133.5 617 L 134.5 619 L 133.5 617 Z " /><path fill="rgb(44,44,52)" stroke="rgb(44,44,52)" stroke-width="1" opacity="0.8313725490196079" d="M 119.5 625 L 120.5 627 L 119.5 625 Z " /><path fill="rgb(44,44,52)" stroke="rgb(44,44,52)" stroke-width="1" opacity="0.8313725490196079" d="M 140.5 626 L 145.5 632 L 140.5 626 Z " /><path fill="rgb(44,44,52)" stroke="rgb(44,44,52)" stroke-width="1" opacity="0.8313725490196079" d="M 121.5 628 L 122.5 630 L 121.5 628 Z " /><path fill="rgb(44,44,52)" stroke="rgb(44,44,52)" stroke-width="1" opacity="0.8313725490196079" d="M 324.5 629 L 325 631.5 L 324 631.5 L 324.5 629 Z " /><path fill="rgb(44,44,52)" stroke="rgb(44,44,52)" stroke-width="1" opacity="0.8313725490196079" d="M 124.5 632 L 126.5 635 L 124.5 632 Z " /><path fill="rgb(44,44,52)" stroke="rgb(44,44,52)" stroke-width="1" opacity="0.8313725490196079" d="M 153.5 639 L 156.5 643 L 153.5 639 Z " /><path fill="rgb(44,44,52)" stroke="rgb(44,44,52)" stroke-width="1" opacity="0.8313725490196079" d="M 131.5 640 L 144.5 654 L 131.5 640 Z " /><path fill="rgb(44,44,52)" stroke="rgb(44,44,52)" stroke-width="1" opacity="0.8313725490196079" d="M 160.5 645 L 161.5 647 L 160.5 645 Z " /><path fill="rgb(44,44,52)" stroke="rgb(44,44,52)" stroke-width="1" opacity="0.8313725490196079" d="M 300.5 649 L 298.5 652 L 300.5 649 Z " /><path fill="rgb(44,44,52)" stroke="rgb(44,44,52)" stroke-width="1" opacity="0.8313725490196079" d="M 295.5 654 L 293.5 657 L 295.5 654 Z " /><path fill="rgb(44,44,52)" stroke="rgb(44,44,52)" stroke-width="1" opacity="0.8313725490196079" d="M 316.5 655 L 315.5 657 L 316.5 655 Z " /><path fill="rgb(44,44,52)" stroke="rgb(44,44,52)" stroke-width="1" opacity="0.8313725490196079" d="M 149.5 657 L 150.5 659 L 149.5 657 Z " /><path fill="rgb(44,44,52)" stroke="rgb(44,44,52)" stroke-width="1" opacity="0.8313725490196079" d="M 156.5 662 L 157.5 664 L 156.5 662 Z " /><path fill="rgb(44,44,52)" stroke="rgb(44,44,52)" stroke-width="1" opacity="0.8313725490196079" d="M 211.5 663 L 215 663.5 L 211.5 664 L 211.5 663 Z " /><path fill="rgb(44,44,52)" stroke="rgb(44,44,52)" stroke-width="1" opacity="0.8313725490196079" d="M 271.5 663 L 275 663.5 L 271.5 664 L 271.5 663 Z " /><path fill="rgb(44,44,52)" stroke="rgb(44,44,52)" stroke-width="1" opacity="0.8313725490196079" d="M 228.5 664 L 253 664.5 L 228.5 665 L 228.5 664 Z " /><path fill="rgb(44,44,52)" stroke="rgb(44,44,52)" stroke-width="1" opacity="0.8313725490196079" d="M 304.5 668 L 303.5 670 L 304.5 668 Z " /><path fill="rgb(44,44,52)" stroke="rgb(44,44,52)" stroke-width="1" opacity="0.8313725490196079" d="M 208.5 679 L 212 679.5 L 208.5 680 L 208.5 679 Z " /><path fill="rgb(44,44,52)" stroke="rgb(44,44,52)" stroke-width="1" opacity="0.8313725490196079" d="M 221.5 680 L 228 680.5 L 221.5 681 L 221.5 680 Z " /><path fill="rgb(44,44,52)" stroke="rgb(44,44,52)" stroke-width="1" opacity="0.8313725490196079" d="M 253.5 680 L 263 680.5 L 253.5 681 L 253.5 680 Z " /><path fill="rgb(21,21,30)" stroke="rgb(21,21,30)" stroke-width="1" opacity="1" d="M 347.5 7 Q 351.3 9.7 359.5 8 L 370.5 11 Q 386.1 17.4 396 29.5 Q 406.2 40.8 411 57.5 L 413 67.5 L 413 83.5 L 404 111.5 L 372 187.5 L 367 213.5 L 367 247.5 L 366 248.5 L 365 264.5 Q 361.4 281.1 354 293 L 371.5 289 L 387.5 288 L 388.5 287 L 418.5 287 L 419.5 288 L 429.5 288 L 430.5 289 L 437.5 289 Q 444 292 453.5 292 L 508.5 306 Q 513.3 304.8 514.5 307 L 537.5 307 L 550.5 304 L 564.5 298 L 613.5 267 L 636.5 257 L 667.5 249 L 694.5 248 L 695.5 249 L 723.5 249 L 724.5 250 L 771.5 251 L 772.5 252 L 785.5 252 L 806.5 256 Q 841.5 266 862 290.5 Q 876.1 306.9 884 329.5 L 889 350.5 L 890 373.5 L 886 395.5 L 878 415.5 L 862 440.5 L 827 489.5 Q 806.3 523.8 789 561.5 L 775.5 576 Q 764.2 585.2 747.5 589 L 736.5 590 L 735.5 591 L 709.5 591 L 708.5 590 L 701.5 590 L 679.5 586 L 645.5 575 Q 610 560 586 533.5 Q 578 524.5 573 512.5 L 570 502.5 L 569 486.5 Q 574.4 457.9 594.5 444 Q 608.7 432.7 627.5 426 L 647.5 421 L 653.5 421 L 684.5 415 L 708.5 407 L 718 401.5 L 711.5 399 L 698.5 398 L 697.5 397 L 675.5 396 L 674.5 395 L 640.5 394 L 639.5 395 L 606.5 396 L 605.5 397 L 596.5 397 L 595.5 398 L 586.5 398 L 585.5 399 L 574.5 400 L 572.5 400 L 530.5 407 L 484.5 419 L 430.5 439 L 366.5 471 L 357.5 474 L 344.5 475 L 334.5 473 L 323 467 L 327 495.5 L 335 534.5 L 335 539.5 L 348 603.5 L 349 629.5 L 348 630.5 L 347 642.5 L 342 658.5 Q 334.8 674.3 322.5 685 Q 309.1 697.1 288.5 702 L 276.5 703 L 275.5 704 L 233.5 705 L 232.5 704 L 212.5 704 L 211.5 703 L 202.5 703 L 201.5 702 L 189.5 701 L 162.5 693 Q 131.4 678.6 111 653.5 Q 94.4 635.6 86 609.5 L 82 590.5 L 82 557.5 L 87 531.5 L 94 510.5 L 205 242.5 L 271 77.5 L 288 38.5 L 302.5 22 L 323.5 11 L 336.5 8 L 346.5 8 L 347.5 7 Z M 342 31 L 327 35 L 317 41 L 309 50 L 297 77 Q 212 291 123 502 L 111 534 L 105 566 L 106 591 L 111 610 Q 118 628 131 641 Q 146 659 169 670 L 191 677 L 208 679 L 209 680 L 221 680 L 222 681 L 263 681 L 264 680 L 278 680 L 293 676 L 304 670 L 317 656 L 323 642 L 325 632 L 325 610 L 309 529 L 309 524 L 305 507 L 303 490 L 296 454 L 295 441 L 294 440 Q 293 431 296 426 Q 300 421 307 419 Q 315 418 319 422 L 330 441 Q 335 448 344 451 L 356 450 L 408 424 L 410 424 L 432 413 L 464 401 L 517 386 L 565 377 L 588 375 L 589 374 L 599 374 L 600 373 L 610 373 L 611 372 L 626 372 L 627 371 L 669 371 L 670 372 L 705 374 L 725 378 L 733 382 L 738 388 L 742 401 Q 742 410 738 415 Q 729 425 715 430 L 694 437 L 677 441 L 643 446 Q 623 451 610 462 Q 598 470 593 486 L 593 497 L 595 504 Q 599 513 606 521 Q 635 550 681 562 Q 685 560 684 564 L 686 563 L 708 567 L 718 567 L 719 568 L 737 567 L 746 565 Q 756 562 763 556 L 770 548 Q 787 510 808 476 L 856 407 Q 863 394 866 378 L 866 355 L 864 345 Q 857 321 843 305 Q 827 285 798 278 L 788 276 L 780 276 L 779 275 L 736 274 L 735 273 L 709 273 L 708 272 L 674 272 L 655 276 L 643 280 L 616 293 L 572 321 L 553 328 L 537 331 L 516 331 Q 514 329 509 330 L 444 314 L 425 312 L 424 311 L 406 311 L 405 310 L 378 312 L 352 318 L 275 344 L 261 347 L 250 345 L 243 337 Q 241 328 245 324 L 254 316 L 307 299 Q 319 295 329 287 Q 339 277 342 260 Q 341 255 343 254 L 343 219 L 344 218 L 344 208 L 349 183 L 356 163 L 383 101 L 389 84 Q 388 78 390 77 Q 389 56 378 45 L 363 33 L 355 31 L 342 31 Z " /><path fill="rgb(21,21,30)" stroke="rgb(21,21,30)" stroke-width="1" opacity="1" d="M 346.5 48 L 355.5 49 L 366 57.5 Q 372 64.5 373 76.5 L 362 107.5 L 334 173.5 L 327 206.5 L 327 217.5 L 326 218.5 L 326 252.5 L 323 264.5 L 314.5 277 L 294.5 286 L 246.5 301 Q 237.5 305 232 312.5 L 227 321.5 L 225 332.5 L 227 342.5 L 235 356 L 248.5 363 L 262.5 364 L 280.5 360 L 347.5 337 L 369.5 331 L 379.5 329 L 386.5 329 L 387.5 328 L 420.5 328 L 454.5 334 L 505.5 347 Q 511 345.5 512.5 348 L 537.5 348 L 558.5 344 L 577.5 337 L 628.5 305 L 645.5 297 L 669.5 290 Q 675 291.5 676.5 289 L 700.5 289 L 701.5 290 L 728.5 290 L 729.5 291 L 774.5 292 L 775.5 293 L 789.5 294 Q 817.4 299.6 832 318.5 Q 841.9 330.6 847 347.5 L 849 357.5 L 849 375.5 Q 846.5 390 840 400.5 L 795 464.5 Q 772.8 499.8 755 539.5 L 749.5 545 L 741.5 549 L 732.5 551 L 712.5 551 L 683.5 546 L 662.5 539 Q 637.4 528.1 619 510.5 L 610 497.5 L 609 489.5 Q 612.9 479.4 621.5 474 L 644.5 463 L 687.5 456 L 714.5 448 L 736.5 438 L 750 426.5 Q 759 417 758 397.5 Q 755.8 396.2 757 391.5 L 752 379.5 L 743.5 370 L 730.5 363 L 714.5 359 L 699.5 358 L 698.5 357 L 688.5 357 L 687.5 356 L 675.5 356 L 674.5 355 L 649.5 355 L 645.5 354 L 644.5 355 L 605.5 356 L 604.5 357 L 593.5 357 L 592.5 358 L 567.5 360 L 521.5 368 L 488.5 376 L 453.5 387 L 424.5 398 Q 384.3 414.8 347.5 435 Q 339.9 428.1 336 417.5 L 328.5 409 L 320.5 404 L 310.5 402 L 296.5 405 L 284 413.5 L 278 425.5 L 277 441.5 L 278 442.5 L 278 448.5 L 279 449.5 L 287 502.5 L 295 541.5 L 295 546.5 L 308 610.5 L 308 630.5 Q 305.6 645.6 296.5 654 L 282.5 662 L 271.5 663 L 270.5 664 L 215.5 664 L 214.5 663 L 205.5 663 L 189.5 660 L 175.5 655 Q 158.3 646.3 146 632.5 Q 133 620.5 126 602.5 L 122 585.5 L 122 561.5 L 126 541.5 L 136 513.5 L 230 287.5 L 308 93.5 L 322 60.5 L 326.5 55 L 335.5 50 L 346.5 48 Z M 345 72 L 340 79 L 331 100 L 262 271 L 299 259 L 302 254 L 302 245 L 303 244 L 303 210 L 304 209 L 305 194 L 310 172 L 319 147 L 344 90 L 349 75 Q 349 72 345 72 Z M 675 313 Q 650 318 632 331 L 669 331 L 670 332 L 684 332 L 685 333 L 695 333 L 696 334 L 706 334 L 707 335 L 721 336 Q 743 340 758 351 Q 776 364 781 392 L 781 414 L 780 418 Q 776 432 767 443 Q 752 460 729 468 L 693 479 L 650 486 L 636 494 Q 649 508 669 516 L 682 521 L 698 525 L 709 526 L 710 527 L 721 527 L 722 528 L 736 526 Q 751 491 771 459 L 819 390 L 825 376 Q 824 370 826 369 L 825 357 L 823 350 L 814 334 Q 807 324 796 320 L 779 316 L 741 315 L 740 314 L 715 314 L 714 313 L 675 313 Z M 395 351 L 394 352 L 386 352 L 375 354 L 360 358 L 305 377 L 269 387 L 250 387 L 241 385 Q 229 382 222 374 L 219 374 L 153 535 L 147 555 L 146 567 L 145 568 L 145 580 L 149 597 Q 155 610 165 619 Q 174 629 189 635 L 205 639 L 224 640 L 225 641 L 257 641 L 258 640 L 274 640 L 279 638 L 283 634 L 285 626 L 284 610 L 269 536 L 269 531 L 267 525 L 266 514 L 264 508 L 263 497 L 261 491 L 256 456 L 255 455 L 255 448 L 254 447 Q 252 415 265 400 L 280 387 L 294 381 L 304 379 L 323 380 Q 335 384 344 391 L 356 405 Q 403 378 460 361 L 454 358 L 430 353 L 414 352 L 413 351 L 395 351 Z " /><path fill="rgb(21,21,30)" stroke="rgb(21,21,30)" stroke-width="1" opacity="1" d="M 186.5 225 L 187 227.5 L 185 231.5 L 169 293.5 L 167.5 295 L 143 284 L 145 279.5 L 186.5 225 Z " /><path fill="rgb(197,197,199)" stroke="rgb(197,197,199)" stroke-width="1" opacity="1" d="M 344.5 31 L 352 31.5 L 344.5 32 L 344.5 31 Z " /><path fill="rgb(197,197,199)" stroke="rgb(197,197,199)" stroke-width="1" opacity="1" d="M 337.5 32 L 340 32.5 L 337.5 33 L 337.5 32 Z " /><path fill="rgb(197,197,199)" stroke="rgb(197,197,199)" stroke-width="1" opacity="1" d="M 367.5 36 L 368.5 38 L 367.5 36 Z " /><path fill="rgb(197,197,199)" stroke="rgb(197,197,199)" stroke-width="1" opacity="1" d="M 370.5 38 L 372.5 41 L 370.5 38 Z " /><path fill="rgb(197,197,199)" stroke="rgb(197,197,199)" stroke-width="1" opacity="1" d="M 318.5 40 L 317.5 42 L 318.5 40 Z " /><path fill="rgb(197,197,199)" stroke="rgb(197,197,199)" stroke-width="1" opacity="1" d="M 377.5 45 L 379.5 48 L 377.5 45 Z " /><path fill="rgb(197,197,199)" stroke="rgb(197,197,199)" stroke-width="1" opacity="1" d="M 311.5 47 L 310.5 49 L 311.5 47 Z " /><path fill="rgb(197,197,199)" stroke="rgb(197,197,199)" stroke-width="1" opacity="1" d="M 340.5 48 L 343 48.5 L 340.5 49 L 340.5 48 Z " /><path fill="rgb(197,197,199)" stroke="rgb(197,197,199)" stroke-width="1" opacity="1" d="M 356.5 49 L 359 50.5 L 357.5 50 L 356.5 49 Z " /><path fill="rgb(197,197,199)" stroke="rgb(197,197,199)" stroke-width="1" opacity="1" d="M 380.5 49 L 381.5 51 L 380.5 49 Z " /><path fill="rgb(197,197,199)" stroke="rgb(197,197,199)" stroke-width="1" opacity="1" d="M 360.5 51 L 362.5 54 L 360.5 51 Z " /><path fill="rgb(197,197,199)" stroke="rgb(197,197,199)" stroke-width="1" opacity="1" d="M 326.5 54 L 323.5 58 L 326.5 54 Z " /><path fill="rgb(197,197,199)" stroke="rgb(197,197,199)" stroke-width="1" opacity="1" d="M 364.5 55 L 366.5 58 L 364.5 55 Z " /><path fill="rgb(197,197,199)" stroke="rgb(197,197,199)" stroke-width="1" opacity="1" d="M 367.5 59 L 368.5 61 L 367.5 59 Z " /><path fill="rgb(197,197,199)" stroke="rgb(197,197,199)" stroke-width="1" opacity="1" d="M 388.5 67 L 389 70.5 L 388 70.5 L 388.5 67 Z " /><path fill="rgb(197,197,199)" stroke="rgb(197,197,199)" stroke-width="1" opacity="1" d="M 347.5 186 L 348 188.5 L 347 188.5 L 347.5 186 Z " /><path fill="rgb(197,197,199)" stroke="rgb(197,197,199)" stroke-width="1" opacity="1" d="M 330.5 189 L 331 191.5 L 330 191.5 L 330.5 189 Z " /><path fill="rgb(197,197,199)" stroke="rgb(197,197,199)" stroke-width="1" opacity="1" d="M 345.5 195 L 346 197.5 L 345 197.5 L 345.5 195 Z " /><path fill="rgb(197,197,199)" stroke="rgb(197,197,199)" stroke-width="1" opacity="1" d="M 328.5 200 L 329 203.5 L 328 203.5 L 328.5 200 Z " /><path fill="rgb(197,197,199)" stroke="rgb(197,197,199)" stroke-width="1" opacity="1" d="M 344.5 201 L 345 203.5 L 344 203.5 L 344.5 201 Z " /><path fill="rgb(197,197,199)" stroke="rgb(197,197,199)" stroke-width="1" opacity="1" d="M 343.5 208 L 344 213.5 L 343 213.5 L 343.5 208 Z " /><path fill="rgb(197,197,199)" stroke="rgb(197,197,199)" stroke-width="1" opacity="1" d="M 327.5 209 L 328 214.5 L 327 214.5 L 327.5 209 Z " /><path fill="rgb(197,197,199)" stroke="rgb(197,197,199)" stroke-width="1" opacity="1" d="M 342.5 224 L 343 249.5 L 342 249.5 L 342.5 224 Z " /><path fill="rgb(197,197,199)" stroke="rgb(197,197,199)" stroke-width="1" opacity="1" d="M 326.5 234 L 327 250.5 L 326 250.5 L 326.5 234 Z " /><path fill="rgb(197,197,199)" stroke="rgb(197,197,199)" stroke-width="1" opacity="1" d="M 325.5 255 L 326 257.5 L 325 257.5 L 325.5 255 Z " /><path fill="rgb(197,197,199)" stroke="rgb(197,197,199)" stroke-width="1" opacity="1" d="M 341.5 255 L 342 257.5 L 341 257.5 L 341.5 255 Z " /><path fill="rgb(197,197,199)" stroke="rgb(197,197,199)" stroke-width="1" opacity="1" d="M 320.5 270 L 319.5 272 L 320.5 270 Z " /><path fill="rgb(197,197,199)" stroke="rgb(197,197,199)" stroke-width="1" opacity="1" d="M 676.5 272 L 698 272.5 L 676.5 273 L 676.5 272 Z " /><path fill="rgb(197,197,199)" stroke="rgb(197,197,199)" stroke-width="1" opacity="1" d="M 318.5 273 L 317.5 275 L 318.5 273 Z " /><path fill="rgb(197,197,199)" stroke="rgb(197,197,199)" stroke-width="1" opacity="1" d="M 669.5 273 L 672 273.5 L 669.5 274 L 669.5 273 Z " /><path fill="rgb(197,197,199)" stroke="rgb(197,197,199)" stroke-width="1" opacity="1" d="M 713.5 273 L 727 273.5 L 713.5 274 L 713.5 273 Z " /><path fill="rgb(197,197,199)" stroke="rgb(197,197,199)" stroke-width="1" opacity="1" d="M 663.5 274 L 666 274.5 L 663.5 275 L 663.5 274 Z " /><path fill="rgb(197,197,199)" stroke="rgb(197,197,199)" stroke-width="1" opacity="1" d="M 740.5 274 L 752 274.5 L 740.5 275 L 740.5 274 Z " /><path fill="rgb(197,197,199)" stroke="rgb(197,197,199)" stroke-width="1" opacity="1" d="M 763.5 275 L 774 275.5 L 763.5 276 L 763.5 275 Z " /><path fill="rgb(197,197,199)" stroke="rgb(197,197,199)" stroke-width="1" opacity="1" d="M 315.5 276 L 314.5 278 L 315.5 276 Z " /><path fill="rgb(197,197,199)" stroke="rgb(197,197,199)" stroke-width="1" opacity="1" d="M 781.5 276 L 785 276.5 L 781.5 277 L 781.5 276 Z " /><path fill="rgb(197,197,199)" stroke="rgb(197,197,199)" stroke-width="1" opacity="1" d="M 789.5 277 L 792 277.5 L 789.5 278 L 789.5 277 Z " /><path fill="rgb(197,197,199)" stroke="rgb(197,197,199)" stroke-width="1" opacity="1" d="M 794.5 278 L 797 278.5 L 794.5 279 L 794.5 278 Z " /><path fill="rgb(197,197,199)" stroke="rgb(197,197,199)" stroke-width="1" opacity="1" d="M 330.5 283 L 325.5 289 L 330.5 283 Z " /><path fill="rgb(197,197,199)" stroke="rgb(197,197,199)" stroke-width="1" opacity="1" d="M 677.5 288 L 695 288.5 L 677.5 289 L 677.5 288 Z " /><path fill="rgb(197,197,199)" stroke="rgb(197,197,199)" stroke-width="1" opacity="1" d="M 323.5 289 L 322.5 291 L 323.5 289 Z " /><path fill="rgb(197,197,199)" stroke="rgb(197,197,199)" stroke-width="1" opacity="1" d="M 670.5 289 L 673 289.5 L 670.5 290 L 670.5 289 Z " /><path fill="rgb(197,197,199)" stroke="rgb(197,197,199)" stroke-width="1" opacity="1" d="M 710.5 289 L 724 289.5 L 710.5 290 L 710.5 289 Z " /><path fill="rgb(197,197,199)" stroke="rgb(197,197,199)" stroke-width="1" opacity="1" d="M 737.5 290 L 749 290.5 L 737.5 291 L 737.5 290 Z " /><path fill="rgb(197,197,199)" stroke="rgb(197,197,199)" stroke-width="1" opacity="1" d="M 825.5 290 L 826.5 292 L 825.5 290 Z " /><path fill="rgb(197,197,199)" stroke="rgb(197,197,199)" stroke-width="1" opacity="1" d="M 619.5 291 L 618.5 293 L 619.5 291 Z " /><path fill="rgb(197,197,199)" stroke="rgb(197,197,199)" stroke-width="1" opacity="1" d="M 760.5 291 L 771 291.5 L 760.5 292 L 760.5 291 Z " /><path fill="rgb(197,197,199)" stroke="rgb(197,197,199)" stroke-width="1" opacity="1" d="M 778.5 292 L 783 292.5 L 778.5 293 L 778.5 292 Z " /><path fill="rgb(197,197,199)" stroke="rgb(197,197,199)" stroke-width="1" opacity="1" d="M 828.5 292 L 829.5 294 L 828.5 292 Z " /><path fill="rgb(197,197,199)" stroke="rgb(197,197,199)" stroke-width="1" opacity="1" d="M 786.5 293 L 789 293.5 L 786.5 294 L 786.5 293 Z " /><path fill="rgb(197,197,199)" stroke="rgb(197,197,199)" stroke-width="1" opacity="1" d="M 614.5 294 L 613.5 296 L 614.5 294 Z " /><path fill="rgb(197,197,199)" stroke="rgb(197,197,199)" stroke-width="1" opacity="1" d="M 832.5 295 L 835.5 299 L 832.5 295 Z " /><path fill="rgb(197,197,199)" stroke="rgb(197,197,199)" stroke-width="1" opacity="1" d="M 609.5 297 L 608.5 299 L 609.5 297 Z " /><path fill="rgb(197,197,199)" stroke="rgb(197,197,199)" stroke-width="1" opacity="1" d="M 601.5 302 L 600.5 304 L 601.5 302 Z " /><path fill="rgb(197,197,199)" stroke="rgb(197,197,199)" stroke-width="1" opacity="1" d="M 630.5 303 L 629.5 305 L 630.5 303 Z " /><path fill="rgb(197,197,199)" stroke="rgb(197,197,199)" stroke-width="1" opacity="1" d="M 815.5 303 L 816.5 305 L 815.5 303 Z " /><path fill="rgb(197,197,199)" stroke="rgb(197,197,199)" stroke-width="1" opacity="1" d="M 241.5 304 L 240.5 306 L 241.5 304 Z " /><path fill="rgb(197,197,199)" stroke="rgb(197,197,199)" stroke-width="1" opacity="1" d="M 841.5 304 L 844.5 308 L 841.5 304 Z " /><path fill="rgb(197,197,199)" stroke="rgb(197,197,199)" stroke-width="1" opacity="1" d="M 818.5 305 L 819.5 307 L 818.5 305 Z " /><path fill="rgb(197,197,199)" stroke="rgb(197,197,199)" stroke-width="1" opacity="1" d="M 593.5 307 L 592.5 309 L 593.5 307 Z " /><path fill="rgb(197,197,199)" stroke="rgb(197,197,199)" stroke-width="1" opacity="1" d="M 623.5 307 L 622.5 309 L 623.5 307 Z " /><path fill="rgb(197,197,199)" stroke="rgb(197,197,199)" stroke-width="1" opacity="1" d="M 822.5 308 L 825.5 312 L 822.5 308 Z " /><path fill="rgb(197,197,199)" stroke="rgb(197,197,199)" stroke-width="1" opacity="1" d="M 590.5 309 L 589.5 311 L 590.5 309 Z " /><path fill="rgb(197,197,199)" stroke="rgb(197,197,199)" stroke-width="1" opacity="1" d="M 846.5 310 L 847.5 312 L 846.5 310 Z " /><path fill="rgb(197,197,199)" stroke="rgb(197,197,199)" stroke-width="1" opacity="1" d="M 388.5 311 L 395 311.5 L 388.5 312 L 388.5 311 Z " /><path fill="rgb(197,197,199)" stroke="rgb(197,197,199)" stroke-width="1" opacity="1" d="M 413.5 311 L 420 311.5 L 413.5 312 L 413.5 311 Z " /><path fill="rgb(197,197,199)" stroke="rgb(197,197,199)" stroke-width="1" opacity="1" d="M 587.5 311 L 586.5 313 L 587.5 311 Z " /><path fill="rgb(197,197,199)" stroke="rgb(197,197,199)" stroke-width="1" opacity="1" d="M 379.5 312 L 382 312.5 L 379.5 313 L 379.5 312 Z " /><path fill="rgb(197,197,199)" stroke="rgb(197,197,199)" stroke-width="1" opacity="1" d="M 426.5 312 L 430 312.5 L 426.5 313 L 426.5 312 Z " /><path fill="rgb(197,197,199)" stroke="rgb(197,197,199)" stroke-width="1" opacity="1" d="M 615.5 312 L 614.5 314 L 615.5 312 Z " /><path fill="rgb(197,197,199)" stroke="rgb(197,197,199)" stroke-width="1" opacity="1" d="M 232.5 313 L 231.5 315 L 232.5 313 Z " /><path fill="rgb(197,197,199)" stroke="rgb(197,197,199)" stroke-width="1" opacity="1" d="M 373.5 313 L 376 313.5 L 373.5 314 L 373.5 313 Z " /><path fill="rgb(197,197,199)" stroke="rgb(197,197,199)" stroke-width="1" opacity="1" d="M 368.5 314 L 371 314.5 L 368.5 315 L 368.5 314 Z " /><path fill="rgb(197,197,199)" stroke="rgb(197,197,199)" stroke-width="1" opacity="1" d="M 439.5 314 L 442 314.5 L 439.5 315 L 439.5 314 Z " /><path fill="rgb(197,197,199)" stroke="rgb(197,197,199)" stroke-width="1" opacity="1" d="M 610.5 315 L 609.5 317 L 610.5 315 Z " /><path fill="rgb(197,197,199)" stroke="rgb(197,197,199)" stroke-width="1" opacity="1" d="M 251.5 316 L 250.5 318 L 251.5 316 Z " /><path fill="rgb(197,197,199)" stroke="rgb(197,197,199)" stroke-width="1" opacity="1" d="M 830.5 316 L 832.5 319 L 830.5 316 Z " /><path fill="rgb(197,197,199)" stroke="rgb(197,197,199)" stroke-width="1" opacity="1" d="M 607.5 317 L 606.5 319 L 607.5 317 Z " /><path fill="rgb(197,197,199)" stroke="rgb(197,197,199)" stroke-width="1" opacity="1" d="M 248.5 318 L 246.5 321 L 248.5 318 Z " /><path fill="rgb(197,197,199)" stroke="rgb(197,197,199)" stroke-width="1" opacity="1" d="M 602.5 320 L 601.5 322 L 602.5 320 Z " /><path fill="rgb(197,197,199)" stroke="rgb(197,197,199)" stroke-width="1" opacity="1" d="M 834.5 321 L 835.5 323 L 834.5 321 Z " /><path fill="rgb(197,197,199)" stroke="rgb(197,197,199)" stroke-width="1" opacity="1" d="M 599.5 322 L 598.5 324 L 599.5 322 Z " /><path fill="rgb(197,197,199)" stroke="rgb(197,197,199)" stroke-width="1" opacity="1" d="M 596.5 324 L 595.5 326 L 596.5 324 Z " /><path fill="rgb(197,197,199)" stroke="rgb(197,197,199)" stroke-width="1" opacity="1" d="M 836.5 324 L 837.5 326 L 836.5 324 Z " /><path fill="rgb(197,197,199)" stroke="rgb(197,197,199)" stroke-width="1" opacity="1" d="M 226.5 326 L 227 328.5 L 226 328.5 L 226.5 326 Z " /><path fill="rgb(197,197,199)" stroke="rgb(197,197,199)" stroke-width="1" opacity="1" d="M 389.5 327 L 398 327.5 L 389.5 328 L 389.5 327 Z " /><path fill="rgb(197,197,199)" stroke="rgb(197,197,199)" stroke-width="1" opacity="1" d="M 409.5 327 L 418 327.5 L 409.5 328 L 409.5 327 Z " /><path fill="rgb(197,197,199)" stroke="rgb(197,197,199)" stroke-width="1" opacity="1" d="M 380.5 328 L 384 328.5 L 380.5 329 L 380.5 328 Z " /><path fill="rgb(197,197,199)" stroke="rgb(197,197,199)" stroke-width="1" opacity="1" d="M 424.5 328 L 428 328.5 L 424.5 329 L 424.5 328 Z " /><path fill="rgb(197,197,199)" stroke="rgb(197,197,199)" stroke-width="1" opacity="1" d="M 499.5 328 L 502 328.5 L 499.5 329 L 499.5 328 Z " /><path fill="rgb(197,197,199)" stroke="rgb(197,197,199)" stroke-width="1" opacity="1" d="M 431.5 329 L 434 329.5 L 431.5 330 L 431.5 329 Z " /><path fill="rgb(197,197,199)" stroke="rgb(197,197,199)" stroke-width="1" opacity="1" d="M 545.5 329 L 548 329.5 L 545.5 330 L 545.5 329 Z " /><path fill="rgb(197,197,199)" stroke="rgb(197,197,199)" stroke-width="1" opacity="1" d="M 839.5 329 L 840.5 331 L 839.5 329 Z " /><path fill="rgb(197,197,199)" stroke="rgb(197,197,199)" stroke-width="1" opacity="1" d="M 437.5 330 L 440 330.5 L 437.5 331 L 437.5 330 Z " /><path fill="rgb(197,197,199)" stroke="rgb(197,197,199)" stroke-width="1" opacity="1" d="M 509.5 330 L 512 330.5 L 509.5 331 L 509.5 330 Z " /><path fill="rgb(197,197,199)" stroke="rgb(197,197,199)" stroke-width="1" opacity="1" d="M 539.5 330 L 542 330.5 L 539.5 331 L 539.5 330 Z " /><path fill="rgb(197,197,199)" stroke="rgb(197,197,199)" stroke-width="1" opacity="1" d="M 516.5 331 L 534 331.5 L 516.5 332 L 516.5 331 Z " /><path fill="rgb(197,197,199)" stroke="rgb(197,197,199)" stroke-width="1" opacity="1" d="M 585.5 331 L 584.5 333 L 585.5 331 Z " /><path fill="rgb(197,197,199)" stroke="rgb(197,197,199)" stroke-width="1" opacity="1" d="M 447.5 332 L 450 332.5 L 447.5 333 L 447.5 332 Z " /><path fill="rgb(197,197,199)" stroke="rgb(197,197,199)" stroke-width="1" opacity="1" d="M 226.5 336 L 227 338.5 L 226 338.5 L 226.5 336 Z " /><path fill="rgb(197,197,199)" stroke="rgb(197,197,199)" stroke-width="1" opacity="1" d="M 244.5 340 L 245.5 342 L 244.5 340 Z " /><path fill="rgb(197,197,199)" stroke="rgb(197,197,199)" stroke-width="1" opacity="1" d="M 248.5 344 L 249.5 346 L 248.5 344 Z " /><path fill="rgb(197,197,199)" stroke="rgb(197,197,199)" stroke-width="1" opacity="1" d="M 551.5 344 L 554 344.5 L 551.5 345 L 551.5 344 Z " /><path fill="rgb(197,197,199)" stroke="rgb(197,197,199)" stroke-width="1" opacity="1" d="M 546.5 345 L 549 345.5 L 546.5 346 L 546.5 345 Z " /><path fill="rgb(197,197,199)" stroke="rgb(197,197,199)" stroke-width="1" opacity="1" d="M 264.5 346 L 267 346.5 L 264.5 347 L 264.5 346 Z " /><path fill="rgb(197,197,199)" stroke="rgb(197,197,199)" stroke-width="1" opacity="1" d="M 507.5 346 L 511 346.5 L 507.5 347 L 507.5 346 Z " /><path fill="rgb(197,197,199)" stroke="rgb(197,197,199)" stroke-width="1" opacity="1" d="M 540.5 346 L 543 346.5 L 540.5 347 L 540.5 346 Z " /><path fill="rgb(197,197,199)" stroke="rgb(197,197,199)" stroke-width="1" opacity="1" d="M 515.5 347 L 535 347.5 L 515.5 348 L 515.5 347 Z " /><path fill="rgb(197,197,199)" stroke="rgb(197,197,199)" stroke-width="1" opacity="1" d="M 864.5 350 L 865 352.5 L 864 352.5 L 864.5 350 Z " /><path fill="rgb(197,197,199)" stroke="rgb(197,197,199)" stroke-width="1" opacity="1" d="M 232.5 351 L 238.5 358 L 232.5 351 Z " /><path fill="rgb(197,197,199)" stroke="rgb(197,197,199)" stroke-width="1" opacity="1" d="M 848.5 352 L 849 354.5 L 848 354.5 L 848.5 352 Z " /><path fill="rgb(197,197,199)" stroke="rgb(197,197,199)" stroke-width="1" opacity="1" d="M 624.5 355 L 635 355.5 L 624.5 356 L 624.5 355 Z " /><path fill="rgb(197,197,199)" stroke="rgb(197,197,199)" stroke-width="1" opacity="1" d="M 660.5 355 L 670 355.5 L 660.5 356 L 660.5 355 Z " /><path fill="rgb(197,197,199)" stroke="rgb(197,197,199)" stroke-width="1" opacity="1" d="M 609.5 356 L 616 356.5 L 609.5 357 L 609.5 356 Z " /><path fill="rgb(197,197,199)" stroke="rgb(197,197,199)" stroke-width="1" opacity="1" d="M 678.5 356 L 684 356.5 L 678.5 357 L 678.5 356 Z " /><path fill="rgb(197,197,199)" stroke="rgb(197,197,199)" stroke-width="1" opacity="1" d="M 865.5 356 L 866 362.5 L 865 362.5 L 865.5 356 Z " /><path fill="rgb(197,197,199)" stroke="rgb(197,197,199)" stroke-width="1" opacity="1" d="M 597.5 357 L 602 357.5 L 597.5 358 L 597.5 357 Z " /><path fill="rgb(197,197,199)" stroke="rgb(197,197,199)" stroke-width="1" opacity="1" d="M 690.5 357 L 696 357.5 L 690.5 358 L 690.5 357 Z " /><path fill="rgb(197,197,199)" stroke="rgb(197,197,199)" stroke-width="1" opacity="1" d="M 586.5 358 L 591 358.5 L 586.5 359 L 586.5 358 Z " /><path fill="rgb(197,197,199)" stroke="rgb(197,197,199)" stroke-width="1" opacity="1" d="M 701.5 358 L 706 358.5 L 701.5 359 L 701.5 358 Z " /><path fill="rgb(197,197,199)" stroke="rgb(197,197,199)" stroke-width="1" opacity="1" d="M 242.5 359 L 245 360.5 L 243.5 361 L 242.5 359 Z " /><path fill="rgb(197,197,199)" stroke="rgb(197,197,199)" stroke-width="1" opacity="1" d="M 578.5 359 L 582 359.5 L 578.5 360 L 578.5 359 Z " /><path fill="rgb(197,197,199)" stroke="rgb(197,197,199)" stroke-width="1" opacity="1" d="M 710.5 359 L 713 359.5 L 710.5 360 L 710.5 359 Z " /><path fill="rgb(197,197,199)" stroke="rgb(197,197,199)" stroke-width="1" opacity="1" d="M 849.5 359 L 850 373.5 L 849 373.5 L 849.5 359 Z " /><path fill="rgb(197,197,199)" stroke="rgb(197,197,199)" stroke-width="1" opacity="1" d="M 570.5 360 L 574 360.5 L 570.5 361 L 570.5 360 Z " /><path fill="rgb(197,197,199)" stroke="rgb(197,197,199)" stroke-width="1" opacity="1" d="M 716.5 360 L 719 360.5 L 716.5 361 L 716.5 360 Z " /><path fill="rgb(197,197,199)" stroke="rgb(197,197,199)" stroke-width="1" opacity="1" d="M 562.5 361 L 566 361.5 L 562.5 362 L 562.5 361 Z " /><path fill="rgb(197,197,199)" stroke="rgb(197,197,199)" stroke-width="1" opacity="1" d="M 265.5 362 L 268 362.5 L 265.5 363 L 265.5 362 Z " /><path fill="rgb(197,197,199)" stroke="rgb(197,197,199)" stroke-width="1" opacity="1" d="M 556.5 362 L 559 362.5 L 556.5 363 L 556.5 362 Z " /><path fill="rgb(197,197,199)" stroke="rgb(197,197,199)" stroke-width="1" opacity="1" d="M 550.5 363 L 553 363.5 L 550.5 364 L 550.5 363 Z " /><path fill="rgb(197,197,199)" stroke="rgb(197,197,199)" stroke-width="1" opacity="1" d="M 543.5 364 L 546 364.5 L 543.5 365 L 543.5 364 Z " /><path fill="rgb(197,197,199)" stroke="rgb(197,197,199)" stroke-width="1" opacity="1" d="M 865.5 368 L 866 374.5 L 865 374.5 L 865.5 368 Z " /><path fill="rgb(197,197,199)" stroke="rgb(197,197,199)" stroke-width="1" opacity="1" d="M 741.5 369 L 743.5 372 L 741.5 369 Z " /><path fill="rgb(197,197,199)" stroke="rgb(197,197,199)" stroke-width="1" opacity="1" d="M 629.5 370 L 647 370.5 L 629.5 371 L 629.5 370 Z " /><path fill="rgb(197,197,199)" stroke="rgb(197,197,199)" stroke-width="1" opacity="1" d="M 648.5 370 L 666 370.5 L 648.5 371 L 648.5 370 Z " /><path fill="rgb(197,197,199)" stroke="rgb(197,197,199)" stroke-width="1" opacity="1" d="M 509.5 371 L 512 371.5 L 509.5 372 L 509.5 371 Z " /><path fill="rgb(197,197,199)" stroke="rgb(197,197,199)" stroke-width="1" opacity="1" d="M 613.5 371 L 620 371.5 L 613.5 372 L 613.5 371 Z " /><path fill="rgb(197,197,199)" stroke="rgb(197,197,199)" stroke-width="1" opacity="1" d="M 674.5 371 L 681 371.5 L 674.5 372 L 674.5 371 Z " /><path fill="rgb(197,197,199)" stroke="rgb(197,197,199)" stroke-width="1" opacity="1" d="M 601.5 372 L 606 372.5 L 601.5 373 L 601.5 372 Z " /><path fill="rgb(197,197,199)" stroke="rgb(197,197,199)" stroke-width="1" opacity="1" d="M 687.5 372 L 693 372.5 L 687.5 373 L 687.5 372 Z " /><path fill="rgb(197,197,199)" stroke="rgb(197,197,199)" stroke-width="1" opacity="1" d="M 590.5 373 L 596 373.5 L 590.5 374 L 590.5 373 Z " /><path fill="rgb(197,197,199)" stroke="rgb(197,197,199)" stroke-width="1" opacity="1" d="M 698.5 373 L 703 373.5 L 698.5 374 L 698.5 373 Z " /><path fill="rgb(197,197,199)" stroke="rgb(197,197,199)" stroke-width="1" opacity="1" d="M 581.5 374 L 585 374.5 L 581.5 375 L 581.5 374 Z " /><path fill="rgb(197,197,199)" stroke="rgb(197,197,199)" stroke-width="1" opacity="1" d="M 707.5 374 L 711 374.5 L 707.5 375 L 707.5 374 Z " /><path fill="rgb(197,197,199)" stroke="rgb(197,197,199)" stroke-width="1" opacity="1" d="M 573.5 375 L 577 375.5 L 573.5 376 L 573.5 375 Z " /><path fill="rgb(197,197,199)" stroke="rgb(197,197,199)" stroke-width="1" opacity="1" d="M 565.5 376 L 569 376.5 L 565.5 377 L 565.5 376 Z " /><path fill="rgb(197,197,199)" stroke="rgb(197,197,199)" stroke-width="1" opacity="1" d="M 559.5 377 L 562 377.5 L 559.5 378 L 559.5 377 Z " /><path fill="rgb(197,197,199)" stroke="rgb(197,197,199)" stroke-width="1" opacity="1" d="M 749.5 377 L 750.5 379 L 749.5 377 Z " /><path fill="rgb(197,197,199)" stroke="rgb(197,197,199)" stroke-width="1" opacity="1" d="M 848.5 377 L 849 379.5 L 848 379.5 L 848.5 377 Z " /><path fill="rgb(197,197,199)" stroke="rgb(197,197,199)" stroke-width="1" opacity="1" d="M 553.5 378 L 556 378.5 L 553.5 379 L 553.5 378 Z " /><path fill="rgb(197,197,199)" stroke="rgb(197,197,199)" stroke-width="1" opacity="1" d="M 546.5 379 L 549 379.5 L 546.5 380 L 546.5 379 Z " /><path fill="rgb(197,197,199)" stroke="rgb(197,197,199)" stroke-width="1" opacity="1" d="M 864.5 379 L 865 381.5 L 864 381.5 L 864.5 379 Z " /><path fill="rgb(197,197,199)" stroke="rgb(197,197,199)" stroke-width="1" opacity="1" d="M 541.5 380 L 544 380.5 L 541.5 381 L 541.5 380 Z " /><path fill="rgb(197,197,199)" stroke="rgb(197,197,199)" stroke-width="1" opacity="1" d="M 732.5 381 L 737.5 387 L 732.5 381 Z " /><path fill="rgb(197,197,199)" stroke="rgb(197,197,199)" stroke-width="1" opacity="1" d="M 521.5 384 L 524 384.5 L 521.5 385 L 521.5 384 Z " /><path fill="rgb(197,197,199)" stroke="rgb(197,197,199)" stroke-width="1" opacity="1" d="M 741.5 395 L 742 397.5 L 741 397.5 L 741.5 395 Z " /><path fill="rgb(197,197,199)" stroke="rgb(197,197,199)" stroke-width="1" opacity="1" d="M 757.5 399 L 758 405.5 L 757 405.5 L 757.5 399 Z " /><path fill="rgb(197,197,199)" stroke="rgb(197,197,199)" stroke-width="1" opacity="1" d="M 304.5 403 L 307 403.5 L 304.5 404 L 304.5 403 Z " /><path fill="rgb(197,197,199)" stroke="rgb(197,197,199)" stroke-width="1" opacity="1" d="M 838.5 403 L 837.5 405 L 838.5 403 Z " /><path fill="rgb(197,197,199)" stroke="rgb(197,197,199)" stroke-width="1" opacity="1" d="M 292.5 407 L 291.5 409 L 292.5 407 Z " /><path fill="rgb(197,197,199)" stroke="rgb(197,197,199)" stroke-width="1" opacity="1" d="M 326.5 408 L 327.5 410 L 326.5 408 Z " /><path fill="rgb(197,197,199)" stroke="rgb(197,197,199)" stroke-width="1" opacity="1" d="M 289.5 409 L 288.5 411 L 289.5 409 Z " /><path fill="rgb(197,197,199)" stroke="rgb(197,197,199)" stroke-width="1" opacity="1" d="M 832.5 412 L 831.5 414 L 832.5 412 Z " /><path fill="rgb(197,197,199)" stroke="rgb(197,197,199)" stroke-width="1" opacity="1" d="M 851.5 412 L 850.5 414 L 851.5 412 Z " /><path fill="rgb(197,197,199)" stroke="rgb(197,197,199)" stroke-width="1" opacity="1" d="M 331.5 413 L 333.5 416 L 331.5 413 Z " /><path fill="rgb(197,197,199)" stroke="rgb(197,197,199)" stroke-width="1" opacity="1" d="M 284.5 414 L 283.5 416 L 284.5 414 Z " /><path fill="rgb(197,197,199)" stroke="rgb(197,197,199)" stroke-width="1" opacity="1" d="M 738.5 414 L 737.5 416 L 738.5 414 Z " /><path fill="rgb(197,197,199)" stroke="rgb(197,197,199)" stroke-width="1" opacity="1" d="M 830.5 415 L 829.5 417 L 830.5 415 Z " /><path fill="rgb(197,197,199)" stroke="rgb(197,197,199)" stroke-width="1" opacity="1" d="M 849.5 415 L 848.5 417 L 849.5 415 Z " /><path fill="rgb(197,197,199)" stroke="rgb(197,197,199)" stroke-width="1" opacity="1" d="M 307.5 418 L 314 418.5 L 307.5 419 L 307.5 418 Z " /><path fill="rgb(197,197,199)" stroke="rgb(197,197,199)" stroke-width="1" opacity="1" d="M 828.5 418 L 827.5 420 L 828.5 418 Z " /><path fill="rgb(197,197,199)" stroke="rgb(197,197,199)" stroke-width="1" opacity="1" d="M 847.5 418 L 846.5 420 L 847.5 418 Z " /><path fill="rgb(197,197,199)" stroke="rgb(197,197,199)" stroke-width="1" opacity="1" d="M 317.5 420 L 320.5 424 L 317.5 420 Z " /><path fill="rgb(197,197,199)" stroke="rgb(197,197,199)" stroke-width="1" opacity="1" d="M 731.5 421 L 730.5 423 L 731.5 421 Z " /><path fill="rgb(197,197,199)" stroke="rgb(197,197,199)" stroke-width="1" opacity="1" d="M 752.5 421 L 751.5 423 L 752.5 421 Z " /><path fill="rgb(197,197,199)" stroke="rgb(197,197,199)" stroke-width="1" opacity="1" d="M 826.5 421 L 825.5 423 L 826.5 421 Z " /><path fill="rgb(197,197,199)" stroke="rgb(197,197,199)" stroke-width="1" opacity="1" d="M 845.5 421 L 844.5 423 L 845.5 421 Z " /><path fill="rgb(197,197,199)" stroke="rgb(197,197,199)" stroke-width="1" opacity="1" d="M 296.5 424 L 295.5 426 L 296.5 424 Z " /><path fill="rgb(197,197,199)" stroke="rgb(197,197,199)" stroke-width="1" opacity="1" d="M 750.5 424 L 749.5 426 L 750.5 424 Z " /><path fill="rgb(197,197,199)" stroke="rgb(197,197,199)" stroke-width="1" opacity="1" d="M 843.5 424 L 842.5 426 L 843.5 424 Z " /><path fill="rgb(197,197,199)" stroke="rgb(197,197,199)" stroke-width="1" opacity="1" d="M 339.5 425 L 340.5 427 L 339.5 425 Z " /><path fill="rgb(197,197,199)" stroke="rgb(197,197,199)" stroke-width="1" opacity="1" d="M 823.5 425 L 822.5 427 L 823.5 425 Z " /><path fill="rgb(197,197,199)" stroke="rgb(197,197,199)" stroke-width="1" opacity="1" d="M 841.5 427 L 840.5 429 L 841.5 427 Z " /><path fill="rgb(197,197,199)" stroke="rgb(197,197,199)" stroke-width="1" opacity="1" d="M 821.5 428 L 819.5 431 L 821.5 428 Z " /><path fill="rgb(197,197,199)" stroke="rgb(197,197,199)" stroke-width="1" opacity="1" d="M 342.5 430 L 343.5 432 L 342.5 430 Z " /><path fill="rgb(197,197,199)" stroke="rgb(197,197,199)" stroke-width="1" opacity="1" d="M 357.5 430 L 356.5 432 L 357.5 430 Z " /><path fill="rgb(197,197,199)" stroke="rgb(197,197,199)" stroke-width="1" opacity="1" d="M 838.5 431 L 837.5 433 L 838.5 431 Z " /><path fill="rgb(197,197,199)" stroke="rgb(197,197,199)" stroke-width="1" opacity="1" d="M 818.5 432 L 817.5 434 L 818.5 432 Z " /><path fill="rgb(197,197,199)" stroke="rgb(197,197,199)" stroke-width="1" opacity="1" d="M 293.5 433 L 294 436.5 L 293 436.5 L 293.5 433 Z " /><path fill="rgb(197,197,199)" stroke="rgb(197,197,199)" stroke-width="1" opacity="1" d="M 326.5 433 L 327.5 435 L 326.5 433 Z " /><path fill="rgb(197,197,199)" stroke="rgb(197,197,199)" stroke-width="1" opacity="1" d="M 344.5 433 L 345.5 435 L 344.5 433 Z " /><path fill="rgb(197,197,199)" stroke="rgb(197,197,199)" stroke-width="1" opacity="1" d="M 741.5 433 L 740.5 435 L 741.5 433 Z " /><path fill="rgb(197,197,199)" stroke="rgb(197,197,199)" stroke-width="1" opacity="1" d="M 836.5 434 L 835.5 436 L 836.5 434 Z " /><path fill="rgb(197,197,199)" stroke="rgb(197,197,199)" stroke-width="1" opacity="1" d="M 815.5 436 L 814.5 438 L 815.5 436 Z " /><path fill="rgb(197,197,199)" stroke="rgb(197,197,199)" stroke-width="1" opacity="1" d="M 735.5 437 L 734.5 439 L 735.5 437 Z " /><path fill="rgb(197,197,199)" stroke="rgb(197,197,199)" stroke-width="1" opacity="1" d="M 329.5 438 L 330.5 440 L 329.5 438 Z " /><path fill="rgb(197,197,199)" stroke="rgb(197,197,199)" stroke-width="1" opacity="1" d="M 833.5 438 L 832.5 440 L 833.5 438 Z " /><path fill="rgb(197,197,199)" stroke="rgb(197,197,199)" stroke-width="1" opacity="1" d="M 813.5 439 L 811.5 442 L 813.5 439 Z " /><path fill="rgb(197,197,199)" stroke="rgb(197,197,199)" stroke-width="1" opacity="1" d="M 678.5 440 L 681 440.5 L 678.5 441 L 678.5 440 Z " /><path fill="rgb(197,197,199)" stroke="rgb(197,197,199)" stroke-width="1" opacity="1" d="M 331.5 441 L 337.5 448 L 331.5 441 Z " /><path fill="rgb(197,197,199)" stroke="rgb(197,197,199)" stroke-width="1" opacity="1" d="M 673.5 441 L 676 441.5 L 673.5 442 L 673.5 441 Z " /><path fill="rgb(197,197,199)" stroke="rgb(197,197,199)" stroke-width="1" opacity="1" d="M 831.5 441 L 830.5 443 L 831.5 441 Z " /><path fill="rgb(197,197,199)" stroke="rgb(197,197,199)" stroke-width="1" opacity="1" d="M 667.5 442 L 670 442.5 L 667.5 443 L 667.5 442 Z " /><path fill="rgb(197,197,199)" stroke="rgb(197,197,199)" stroke-width="1" opacity="1" d="M 294.5 443 L 295 445.5 L 294 445.5 L 294.5 443 Z " /><path fill="rgb(197,197,199)" stroke="rgb(197,197,199)" stroke-width="1" opacity="1" d="M 661.5 443 L 664 443.5 L 661.5 444 L 661.5 443 Z " /><path fill="rgb(197,197,199)" stroke="rgb(197,197,199)" stroke-width="1" opacity="1" d="M 810.5 443 L 809.5 445 L 810.5 443 Z " /><path fill="rgb(197,197,199)" stroke="rgb(197,197,199)" stroke-width="1" opacity="1" d="M 278.5 444 L 279 446.5 L 278 446.5 L 278.5 444 Z " /><path fill="rgb(197,197,199)" stroke="rgb(197,197,199)" stroke-width="1" opacity="1" d="M 655.5 444 L 658 444.5 L 655.5 445 L 655.5 444 Z " /><path fill="rgb(197,197,199)" stroke="rgb(197,197,199)" stroke-width="1" opacity="1" d="M 649.5 445 L 652 445.5 L 649.5 446 L 649.5 445 Z " /><path fill="rgb(197,197,199)" stroke="rgb(197,197,199)" stroke-width="1" opacity="1" d="M 828.5 445 L 827.5 447 L 828.5 445 Z " /><path fill="rgb(197,197,199)" stroke="rgb(197,197,199)" stroke-width="1" opacity="1" d="M 295.5 449 L 296 451.5 L 295 451.5 L 295.5 449 Z " /><path fill="rgb(197,197,199)" stroke="rgb(197,197,199)" stroke-width="1" opacity="1" d="M 825.5 449 L 824.5 451 L 825.5 449 Z " /><path fill="rgb(197,197,199)" stroke="rgb(197,197,199)" stroke-width="1" opacity="1" d="M 279.5 450 L 280 452.5 L 279 452.5 L 279.5 450 Z " /><path fill="rgb(197,197,199)" stroke="rgb(197,197,199)" stroke-width="1" opacity="1" d="M 345.5 450 L 351 450.5 L 345.5 451 L 345.5 450 Z " /><path fill="rgb(197,197,199)" stroke="rgb(197,197,199)" stroke-width="1" opacity="1" d="M 805.5 450 L 804.5 452 L 805.5 450 Z " /><path fill="rgb(197,197,199)" stroke="rgb(197,197,199)" stroke-width="1" opacity="1" d="M 823.5 452 L 822.5 454 L 823.5 452 Z " /><path fill="rgb(197,197,199)" stroke="rgb(197,197,199)" stroke-width="1" opacity="1" d="M 803.5 453 L 802.5 455 L 803.5 453 Z " /><path fill="rgb(197,197,199)" stroke="rgb(197,197,199)" stroke-width="1" opacity="1" d="M 280.5 456 L 281 459.5 L 280 459.5 L 280.5 456 Z " /><path fill="rgb(197,197,199)" stroke="rgb(197,197,199)" stroke-width="1" opacity="1" d="M 296.5 456 L 297 458.5 L 296 458.5 L 296.5 456 Z " /><path fill="rgb(197,197,199)" stroke="rgb(197,197,199)" stroke-width="1" opacity="1" d="M 679.5 456 L 682 456.5 L 679.5 457 L 679.5 456 Z " /><path fill="rgb(197,197,199)" stroke="rgb(197,197,199)" stroke-width="1" opacity="1" d="M 801.5 456 L 800.5 458 L 801.5 456 Z " /><path fill="rgb(197,197,199)" stroke="rgb(197,197,199)" stroke-width="1" opacity="1" d="M 820.5 456 L 819.5 458 L 820.5 456 Z " /><path fill="rgb(197,197,199)" stroke="rgb(197,197,199)" stroke-width="1" opacity="1" d="M 617.5 457 L 616.5 459 L 617.5 457 Z " /><path fill="rgb(197,197,199)" stroke="rgb(197,197,199)" stroke-width="1" opacity="1" d="M 674.5 457 L 677 457.5 L 674.5 458 L 674.5 457 Z " /><path fill="rgb(197,197,199)" stroke="rgb(197,197,199)" stroke-width="1" opacity="1" d="M 668.5 458 L 671 458.5 L 668.5 459 L 668.5 458 Z " /><path fill="rgb(197,197,199)" stroke="rgb(197,197,199)" stroke-width="1" opacity="1" d="M 614.5 459 L 613.5 461 L 614.5 459 Z " /><path fill="rgb(197,197,199)" stroke="rgb(197,197,199)" stroke-width="1" opacity="1" d="M 662.5 459 L 665 459.5 L 662.5 460 L 662.5 459 Z " /><path fill="rgb(197,197,199)" stroke="rgb(197,197,199)" stroke-width="1" opacity="1" d="M 799.5 459 L 798.5 461 L 799.5 459 Z " /><path fill="rgb(197,197,199)" stroke="rgb(197,197,199)" stroke-width="1" opacity="1" d="M 818.5 459 L 817.5 461 L 818.5 459 Z " /><path fill="rgb(197,197,199)" stroke="rgb(197,197,199)" stroke-width="1" opacity="1" d="M 655.5 460 L 658 460.5 L 655.5 461 L 655.5 460 Z " /><path fill="rgb(197,197,199)" stroke="rgb(197,197,199)" stroke-width="1" opacity="1" d="M 611.5 461 L 609.5 464 L 611.5 461 Z " /><path fill="rgb(197,197,199)" stroke="rgb(197,197,199)" stroke-width="1" opacity="1" d="M 649.5 461 L 652 461.5 L 649.5 462 L 649.5 461 Z " /><path fill="rgb(197,197,199)" stroke="rgb(197,197,199)" stroke-width="1" opacity="1" d="M 297.5 462 L 298 464.5 L 297 464.5 L 297.5 462 Z " /><path fill="rgb(197,197,199)" stroke="rgb(197,197,199)" stroke-width="1" opacity="1" d="M 797.5 462 L 796.5 464 L 797.5 462 Z " /><path fill="rgb(197,197,199)" stroke="rgb(197,197,199)" stroke-width="1" opacity="1" d="M 816.5 462 L 815.5 464 L 816.5 462 Z " /><path fill="rgb(197,197,199)" stroke="rgb(197,197,199)" stroke-width="1" opacity="1" d="M 281.5 463 L 282 465.5 L 281 465.5 L 281.5 463 Z " /><path fill="rgb(197,197,199)" stroke="rgb(197,197,199)" stroke-width="1" opacity="1" d="M 606.5 465 L 603.5 469 L 606.5 465 Z " /><path fill="rgb(197,197,199)" stroke="rgb(197,197,199)" stroke-width="1" opacity="1" d="M 814.5 465 L 813.5 467 L 814.5 465 Z " /><path fill="rgb(197,197,199)" stroke="rgb(197,197,199)" stroke-width="1" opacity="1" d="M 298.5 468 L 299 470.5 L 298 470.5 L 298.5 468 Z " /><path fill="rgb(197,197,199)" stroke="rgb(197,197,199)" stroke-width="1" opacity="1" d="M 812.5 468 L 811.5 470 L 812.5 468 Z " /><path fill="rgb(197,197,199)" stroke="rgb(197,197,199)" stroke-width="1" opacity="1" d="M 282.5 469 L 283 471.5 L 282 471.5 L 282.5 469 Z " /><path fill="rgb(197,197,199)" stroke="rgb(197,197,199)" stroke-width="1" opacity="1" d="M 792.5 470 L 791.5 472 L 792.5 470 Z " /><path fill="rgb(197,197,199)" stroke="rgb(197,197,199)" stroke-width="1" opacity="1" d="M 810.5 471 L 809.5 473 L 810.5 471 Z " /><path fill="rgb(197,197,199)" stroke="rgb(197,197,199)" stroke-width="1" opacity="1" d="M 600.5 472 L 599.5 474 L 600.5 472 Z " /><path fill="rgb(197,197,199)" stroke="rgb(197,197,199)" stroke-width="1" opacity="1" d="M 299.5 474 L 300 476.5 L 299 476.5 L 299.5 474 Z " /><path fill="rgb(197,197,199)" stroke="rgb(197,197,199)" stroke-width="1" opacity="1" d="M 620.5 474 L 619.5 476 L 620.5 474 Z " /><path fill="rgb(197,197,199)" stroke="rgb(197,197,199)" stroke-width="1" opacity="1" d="M 283.5 475 L 284 477.5 L 283 477.5 L 283.5 475 Z " /><path fill="rgb(197,197,199)" stroke="rgb(197,197,199)" stroke-width="1" opacity="1" d="M 598.5 475 L 597.5 477 L 598.5 475 Z " /><path fill="rgb(197,197,199)" stroke="rgb(197,197,199)" stroke-width="1" opacity="1" d="M 789.5 475 L 788.5 477 L 789.5 475 Z " /><path fill="rgb(197,197,199)" stroke="rgb(197,197,199)" stroke-width="1" opacity="1" d="M 616.5 477 L 614.5 480 L 616.5 477 Z " /><path fill="rgb(197,197,199)" stroke="rgb(197,197,199)" stroke-width="1" opacity="1" d="M 805.5 479 L 804.5 481 L 805.5 479 Z " /><path fill="rgb(197,197,199)" stroke="rgb(197,197,199)" stroke-width="1" opacity="1" d="M 284.5 481 L 285 483.5 L 284 483.5 L 284.5 481 Z " /><path fill="rgb(197,197,199)" stroke="rgb(197,197,199)" stroke-width="1" opacity="1" d="M 612.5 482 L 611.5 484 L 612.5 482 Z " /><path fill="rgb(197,197,199)" stroke="rgb(197,197,199)" stroke-width="1" opacity="1" d="M 301.5 485 L 302 487.5 L 301 487.5 L 301.5 485 Z " /><path fill="rgb(197,197,199)" stroke="rgb(197,197,199)" stroke-width="1" opacity="1" d="M 285.5 486 L 286 488.5 L 285 488.5 L 285.5 486 Z " /><path fill="rgb(197,197,199)" stroke="rgb(197,197,199)" stroke-width="1" opacity="1" d="M 593.5 486 L 594 495.5 L 593 495.5 L 593.5 486 Z " /><path fill="rgb(197,197,199)" stroke="rgb(197,197,199)" stroke-width="1" opacity="1" d="M 781.5 489 L 780.5 491 L 781.5 489 Z " /><path fill="rgb(197,197,199)" stroke="rgb(197,197,199)" stroke-width="1" opacity="1" d="M 302.5 491 L 303 493.5 L 302 493.5 L 302.5 491 Z " /><path fill="rgb(197,197,199)" stroke="rgb(197,197,199)" stroke-width="1" opacity="1" d="M 798.5 491 L 797.5 493 L 798.5 491 Z " /><path fill="rgb(197,197,199)" stroke="rgb(197,197,199)" stroke-width="1" opacity="1" d="M 286.5 492 L 287 494.5 L 286 494.5 L 286.5 492 Z " /><path fill="rgb(197,197,199)" stroke="rgb(197,197,199)" stroke-width="1" opacity="1" d="M 303.5 497 L 304 499.5 L 303 499.5 L 303.5 497 Z " /><path fill="rgb(197,197,199)" stroke="rgb(197,197,199)" stroke-width="1" opacity="1" d="M 287.5 498 L 288 500.5 L 287 500.5 L 287.5 498 Z " /><path fill="rgb(197,197,199)" stroke="rgb(197,197,199)" stroke-width="1" opacity="1" d="M 775.5 500 L 774.5 502 L 775.5 500 Z " /><path fill="rgb(197,197,199)" stroke="rgb(197,197,199)" stroke-width="1" opacity="1" d="M 793.5 500 L 792.5 502 L 793.5 500 Z " /><path fill="rgb(197,197,199)" stroke="rgb(197,197,199)" stroke-width="1" opacity="1" d="M 611.5 501 L 612.5 503 L 611.5 501 Z " /><path fill="rgb(197,197,199)" stroke="rgb(197,197,199)" stroke-width="1" opacity="1" d="M 288.5 504 L 289 506.5 L 288 506.5 L 288.5 504 Z " /><path fill="rgb(197,197,199)" stroke="rgb(197,197,199)" stroke-width="1" opacity="1" d="M 613.5 504 L 614.5 506 L 613.5 504 Z " /><path fill="rgb(197,197,199)" stroke="rgb(197,197,199)" stroke-width="1" opacity="1" d="M 597.5 507 L 598.5 509 L 597.5 507 Z " /><path fill="rgb(197,197,199)" stroke="rgb(197,197,199)" stroke-width="1" opacity="1" d="M 305.5 508 L 306 510.5 L 305 510.5 L 305.5 508 Z " /><path fill="rgb(197,197,199)" stroke="rgb(197,197,199)" stroke-width="1" opacity="1" d="M 289.5 509 L 290 511.5 L 289 511.5 L 289.5 509 Z " /><path fill="rgb(197,197,199)" stroke="rgb(197,197,199)" stroke-width="1" opacity="1" d="M 617.5 509 L 622.5 515 L 617.5 509 Z " /><path fill="rgb(197,197,199)" stroke="rgb(197,197,199)" stroke-width="1" opacity="1" d="M 306.5 514 L 307 516.5 L 306 516.5 L 306.5 514 Z " /><path fill="rgb(197,197,199)" stroke="rgb(197,197,199)" stroke-width="1" opacity="1" d="M 290.5 515 L 291 517.5 L 290 517.5 L 290.5 515 Z " /><path fill="rgb(197,197,199)" stroke="rgb(197,197,199)" stroke-width="1" opacity="1" d="M 604.5 517 L 615.5 529 L 604.5 517 Z " /><path fill="rgb(197,197,199)" stroke="rgb(197,197,199)" stroke-width="1" opacity="1" d="M 626.5 517 L 628.5 520 L 626.5 517 Z " /><path fill="rgb(197,197,199)" stroke="rgb(197,197,199)" stroke-width="1" opacity="1" d="M 784.5 517 L 783.5 519 L 784.5 517 Z " /><path fill="rgb(197,197,199)" stroke="rgb(197,197,199)" stroke-width="1" opacity="1" d="M 307.5 519 L 308 521.5 L 307 521.5 L 307.5 519 Z " /><path fill="rgb(197,197,199)" stroke="rgb(197,197,199)" stroke-width="1" opacity="1" d="M 631.5 521 L 632.5 523 L 631.5 521 Z " /><path fill="rgb(197,197,199)" stroke="rgb(197,197,199)" stroke-width="1" opacity="1" d="M 634.5 523 L 635.5 525 L 634.5 523 Z " /><path fill="rgb(197,197,199)" stroke="rgb(197,197,199)" stroke-width="1" opacity="1" d="M 308.5 525 L 309 527.5 L 308 527.5 L 308.5 525 Z " /><path fill="rgb(197,197,199)" stroke="rgb(197,197,199)" stroke-width="1" opacity="1" d="M 637.5 525 L 638.5 527 L 637.5 525 Z " /><path fill="rgb(197,197,199)" stroke="rgb(197,197,199)" stroke-width="1" opacity="1" d="M 292.5 526 L 293 528.5 L 292 528.5 L 292.5 526 Z " /><path fill="rgb(197,197,199)" stroke="rgb(197,197,199)" stroke-width="1" opacity="1" d="M 640.5 527 L 641.5 529 L 640.5 527 Z " /><path fill="rgb(197,197,199)" stroke="rgb(197,197,199)" stroke-width="1" opacity="1" d="M 309.5 530 L 310 532.5 L 309 532.5 L 309.5 530 Z " /><path fill="rgb(197,197,199)" stroke="rgb(197,197,199)" stroke-width="1" opacity="1" d="M 645.5 530 L 646.5 532 L 645.5 530 Z " /><path fill="rgb(197,197,199)" stroke="rgb(197,197,199)" stroke-width="1" opacity="1" d="M 293.5 531 L 294 533.5 L 293 533.5 L 293.5 531 Z " /><path fill="rgb(197,197,199)" stroke="rgb(197,197,199)" stroke-width="1" opacity="1" d="M 619.5 531 L 620.5 533 L 619.5 531 Z " /><path fill="rgb(197,197,199)" stroke="rgb(197,197,199)" stroke-width="1" opacity="1" d="M 623.5 534 L 624.5 536 L 623.5 534 Z " /><path fill="rgb(197,197,199)" stroke="rgb(197,197,199)" stroke-width="1" opacity="1" d="M 626.5 536 L 627.5 538 L 626.5 536 Z " /><path fill="rgb(197,197,199)" stroke="rgb(197,197,199)" stroke-width="1" opacity="1" d="M 294.5 537 L 295 539.5 L 294 539.5 L 294.5 537 Z " /><path fill="rgb(197,197,199)" stroke="rgb(197,197,199)" stroke-width="1" opacity="1" d="M 629.5 538 L 630.5 540 L 629.5 538 Z " /><path fill="rgb(197,197,199)" stroke="rgb(197,197,199)" stroke-width="1" opacity="1" d="M 755.5 539 L 749.5 546 L 755.5 539 Z " /><path fill="rgb(197,197,199)" stroke="rgb(197,197,199)" stroke-width="1" opacity="1" d="M 311.5 541 L 312 543.5 L 311 543.5 L 311.5 541 Z " /><path fill="rgb(197,197,199)" stroke="rgb(197,197,199)" stroke-width="1" opacity="1" d="M 295.5 542 L 296 544.5 L 295 544.5 L 295.5 542 Z " /><path fill="rgb(197,197,199)" stroke="rgb(197,197,199)" stroke-width="1" opacity="1" d="M 639.5 544 L 640.5 546 L 639.5 544 Z " /><path fill="rgb(197,197,199)" stroke="rgb(197,197,199)" stroke-width="1" opacity="1" d="M 108.5 546 L 109 548.5 L 108 548.5 L 108.5 546 Z " /><path fill="rgb(197,197,199)" stroke="rgb(197,197,199)" stroke-width="1" opacity="1" d="M 312.5 546 L 313 548.5 L 312 548.5 L 312.5 546 Z " /><path fill="rgb(197,197,199)" stroke="rgb(197,197,199)" stroke-width="1" opacity="1" d="M 693.5 548 L 696 548.5 L 693.5 549 L 693.5 548 Z " /><path fill="rgb(197,197,199)" stroke="rgb(197,197,199)" stroke-width="1" opacity="1" d="M 768.5 548 L 765.5 552 L 768.5 548 Z " /><path fill="rgb(197,197,199)" stroke="rgb(197,197,199)" stroke-width="1" opacity="1" d="M 699.5 549 L 702 549.5 L 699.5 550 L 699.5 549 Z " /><path fill="rgb(197,197,199)" stroke="rgb(197,197,199)" stroke-width="1" opacity="1" d="M 705.5 550 L 709 550.5 L 705.5 551 L 705.5 550 Z " /><path fill="rgb(197,197,199)" stroke="rgb(197,197,199)" stroke-width="1" opacity="1" d="M 735.5 550 L 738 550.5 L 735.5 551 L 735.5 550 Z " /><path fill="rgb(197,197,199)" stroke="rgb(197,197,199)" stroke-width="1" opacity="1" d="M 714.5 551 L 731 551.5 L 714.5 552 L 714.5 551 Z " /><path fill="rgb(197,197,199)" stroke="rgb(197,197,199)" stroke-width="1" opacity="1" d="M 107.5 552 L 108 554.5 L 107 554.5 L 107.5 552 Z " /><path fill="rgb(197,197,199)" stroke="rgb(197,197,199)" stroke-width="1" opacity="1" d="M 122.5 555 L 123 557.5 L 122 557.5 L 122.5 555 Z " /><path fill="rgb(197,197,199)" stroke="rgb(197,197,199)" stroke-width="1" opacity="1" d="M 761.5 555 L 759.5 558 L 761.5 555 Z " /><path fill="rgb(197,197,199)" stroke="rgb(197,197,199)" stroke-width="1" opacity="1" d="M 314.5 557 L 315 559.5 L 314 559.5 L 314.5 557 Z " /><path fill="rgb(197,197,199)" stroke="rgb(197,197,199)" stroke-width="1" opacity="1" d="M 106.5 558 L 107 562.5 L 106 562.5 L 106.5 558 Z " /><path fill="rgb(197,197,199)" stroke="rgb(197,197,199)" stroke-width="1" opacity="1" d="M 298.5 558 L 299 560.5 L 298 560.5 L 298.5 558 Z " /><path fill="rgb(197,197,199)" stroke="rgb(197,197,199)" stroke-width="1" opacity="1" d="M 757.5 558 L 756.5 560 L 757.5 558 Z " /><path fill="rgb(197,197,199)" stroke="rgb(197,197,199)" stroke-width="1" opacity="1" d="M 315.5 562 L 316 564.5 L 315 564.5 L 315.5 562 Z " /><path fill="rgb(197,197,199)" stroke="rgb(197,197,199)" stroke-width="1" opacity="1" d="M 121.5 563 L 122 567.5 L 121 567.5 L 121.5 563 Z " /><path fill="rgb(197,197,199)" stroke="rgb(197,197,199)" stroke-width="1" opacity="1" d="M 299.5 563 L 300 565.5 L 299 565.5 L 299.5 563 Z " /><path fill="rgb(197,197,199)" stroke="rgb(197,197,199)" stroke-width="1" opacity="1" d="M 690.5 563 L 693 563.5 L 690.5 564 L 690.5 563 Z " /><path fill="rgb(197,197,199)" stroke="rgb(197,197,199)" stroke-width="1" opacity="1" d="M 702.5 565 L 705 565.5 L 702.5 566 L 702.5 565 Z " /><path fill="rgb(197,197,199)" stroke="rgb(197,197,199)" stroke-width="1" opacity="1" d="M 709.5 566 L 715 566.5 L 709.5 567 L 709.5 566 Z " /><path fill="rgb(197,197,199)" stroke="rgb(197,197,199)" stroke-width="1" opacity="1" d="M 731.5 566 L 735 566.5 L 731.5 567 L 731.5 566 Z " /><path fill="rgb(197,197,199)" stroke="rgb(197,197,199)" stroke-width="1" opacity="1" d="M 316.5 567 L 317 569.5 L 316 569.5 L 316.5 567 Z " /><path fill="rgb(197,197,199)" stroke="rgb(197,197,199)" stroke-width="1" opacity="1" d="M 105.5 574 L 106 577.5 L 105 577.5 L 105.5 574 Z " /><path fill="rgb(197,197,199)" stroke="rgb(197,197,199)" stroke-width="1" opacity="1" d="M 121.5 579 L 122 584.5 L 121 584.5 L 121.5 579 Z " /><path fill="rgb(197,197,199)" stroke="rgb(197,197,199)" stroke-width="1" opacity="1" d="M 303.5 584 L 304 586.5 L 303 586.5 L 303.5 584 Z " /><path fill="rgb(197,197,199)" stroke="rgb(197,197,199)" stroke-width="1" opacity="1" d="M 106.5 585 L 107 588.5 L 106 588.5 L 106.5 585 Z " /><path fill="rgb(197,197,199)" stroke="rgb(197,197,199)" stroke-width="1" opacity="1" d="M 320.5 588 L 321 590.5 L 320 590.5 L 320.5 588 Z " /><path fill="rgb(197,197,199)" stroke="rgb(197,197,199)" stroke-width="1" opacity="1" d="M 304.5 589 L 305 591.5 L 304 591.5 L 304.5 589 Z " /><path fill="rgb(197,197,199)" stroke="rgb(197,197,199)" stroke-width="1" opacity="1" d="M 107.5 592 L 108 594.5 L 107 594.5 L 107.5 592 Z " /><path fill="rgb(197,197,199)" stroke="rgb(197,197,199)" stroke-width="1" opacity="1" d="M 321.5 593 L 322 595.5 L 321 595.5 L 321.5 593 Z " /><path fill="rgb(197,197,199)" stroke="rgb(197,197,199)" stroke-width="1" opacity="1" d="M 305.5 594 L 306 596.5 L 305 596.5 L 305.5 594 Z " /><path fill="rgb(197,197,199)" stroke="rgb(197,197,199)" stroke-width="1" opacity="1" d="M 322.5 598 L 323 600.5 L 322 600.5 L 322.5 598 Z " /><path fill="rgb(197,197,199)" stroke="rgb(197,197,199)" stroke-width="1" opacity="1" d="M 307.5 605 L 308 607.5 L 307 607.5 L 307.5 605 Z " /><path fill="rgb(197,197,199)" stroke="rgb(197,197,199)" stroke-width="1" opacity="1" d="M 323.5 605 L 324 607.5 L 323 607.5 L 323.5 605 Z " /><path fill="rgb(197,197,199)" stroke="rgb(197,197,199)" stroke-width="1" opacity="1" d="M 308.5 613 L 309 620.5 L 308 620.5 L 308.5 613 Z " /><path fill="rgb(197,197,199)" stroke="rgb(197,197,199)" stroke-width="1" opacity="1" d="M 324.5 613 L 325 628.5 L 324 628.5 L 324.5 613 Z " /><path fill="rgb(197,197,199)" stroke="rgb(197,197,199)" stroke-width="1" opacity="1" d="M 134.5 619 L 135.5 621 L 134.5 619 Z " /><path fill="rgb(197,197,199)" stroke="rgb(197,197,199)" stroke-width="1" opacity="1" d="M 117.5 621 L 118.5 623 L 117.5 621 Z " /><path fill="rgb(197,197,199)" stroke="rgb(197,197,199)" stroke-width="1" opacity="1" d="M 136.5 622 L 139.5 626 L 136.5 622 Z " /><path fill="rgb(197,197,199)" stroke="rgb(197,197,199)" stroke-width="1" opacity="1" d="M 308.5 624 L 309 629.5 L 308 629.5 L 308.5 624 Z " /><path fill="rgb(197,197,199)" stroke="rgb(197,197,199)" stroke-width="1" opacity="1" d="M 123.5 630 L 124.5 632 L 123.5 630 Z " /><path fill="rgb(197,197,199)" stroke="rgb(197,197,199)" stroke-width="1" opacity="1" d="M 143.5 630 L 153.5 641 L 143.5 630 Z " /><path fill="rgb(197,197,199)" stroke="rgb(197,197,199)" stroke-width="1" opacity="1" d="M 127.5 635 L 131.5 640 L 127.5 635 Z " /><path fill="rgb(197,197,199)" stroke="rgb(197,197,199)" stroke-width="1" opacity="1" d="M 157.5 643 L 159.5 646 L 157.5 643 Z " /><path fill="rgb(197,197,199)" stroke="rgb(197,197,199)" stroke-width="1" opacity="1" d="M 162.5 647 L 163.5 649 L 162.5 647 Z " /><path fill="rgb(197,197,199)" stroke="rgb(197,197,199)" stroke-width="1" opacity="1" d="M 165.5 649 L 166.5 651 L 165.5 649 Z " /><path fill="rgb(197,197,199)" stroke="rgb(197,197,199)" stroke-width="1" opacity="1" d="M 299.5 651 L 296.5 655 L 299.5 651 Z " /><path fill="rgb(197,197,199)" stroke="rgb(197,197,199)" stroke-width="1" opacity="1" d="M 144.5 652 L 148.5 657 L 144.5 652 Z " /><path fill="rgb(197,197,199)" stroke="rgb(197,197,199)" stroke-width="1" opacity="1" d="M 170.5 652 L 173 653.5 L 171.5 654 L 170.5 652 Z " /><path fill="rgb(197,197,199)" stroke="rgb(197,197,199)" stroke-width="1" opacity="1" d="M 151.5 658 L 152.5 660 L 151.5 658 Z " /><path fill="rgb(197,197,199)" stroke="rgb(197,197,199)" stroke-width="1" opacity="1" d="M 290.5 658 L 289.5 660 L 290.5 658 Z " /><path fill="rgb(197,197,199)" stroke="rgb(197,197,199)" stroke-width="1" opacity="1" d="M 312.5 660 L 305.5 668 L 312.5 660 Z " /><path fill="rgb(197,197,199)" stroke="rgb(197,197,199)" stroke-width="1" opacity="1" d="M 194.5 661 L 197 661.5 L 194.5 662 L 194.5 661 Z " /><path fill="rgb(197,197,199)" stroke="rgb(197,197,199)" stroke-width="1" opacity="1" d="M 200.5 662 L 203 662.5 L 200.5 663 L 200.5 662 Z " /><path fill="rgb(197,197,199)" stroke="rgb(197,197,199)" stroke-width="1" opacity="1" d="M 207.5 663 L 211 663.5 L 207.5 664 L 207.5 663 Z " /><path fill="rgb(197,197,199)" stroke="rgb(197,197,199)" stroke-width="1" opacity="1" d="M 275.5 663 L 278 663.5 L 275.5 664 L 275.5 663 Z " /><path fill="rgb(197,197,199)" stroke="rgb(197,197,199)" stroke-width="1" opacity="1" d="M 160.5 664 L 161.5 666 L 160.5 664 Z " /><path fill="rgb(197,197,199)" stroke="rgb(197,197,199)" stroke-width="1" opacity="1" d="M 218.5 664 L 228 664.5 L 218.5 665 L 218.5 664 Z " /><path fill="rgb(197,197,199)" stroke="rgb(197,197,199)" stroke-width="1" opacity="1" d="M 253.5 664 L 267 664.5 L 253.5 665 L 253.5 664 Z " /><path fill="rgb(197,197,199)" stroke="rgb(197,197,199)" stroke-width="1" opacity="1" d="M 302.5 669 L 301.5 671 L 302.5 669 Z " /><path fill="rgb(197,197,199)" stroke="rgb(197,197,199)" stroke-width="1" opacity="1" d="M 297.5 672 L 296.5 674 L 295 673.5 L 297.5 672 Z " /><path fill="rgb(197,197,199)" stroke="rgb(197,197,199)" stroke-width="1" opacity="1" d="M 191.5 676 L 194 676.5 L 191.5 677 L 191.5 676 Z " /><path fill="rgb(197,197,199)" stroke="rgb(197,197,199)" stroke-width="1" opacity="1" d="M 196.5 677 L 199 677.5 L 196.5 678 L 196.5 677 Z " /><path fill="rgb(197,197,199)" stroke="rgb(197,197,199)" stroke-width="1" opacity="1" d="M 203.5 678 L 207 678.5 L 203.5 679 L 203.5 678 Z " /><path fill="rgb(197,197,199)" stroke="rgb(197,197,199)" stroke-width="1" opacity="1" d="M 279.5 678 L 282 678.5 L 279.5 679 L 279.5 678 Z " /><path fill="rgb(197,197,199)" stroke="rgb(197,197,199)" stroke-width="1" opacity="1" d="M 212.5 679 L 218 679.5 L 212.5 680 L 212.5 679 Z " /><path fill="rgb(197,197,199)" stroke="rgb(197,197,199)" stroke-width="1" opacity="1" d="M 268.5 679 L 276 679.5 L 268.5 680 L 268.5 679 Z " /><path fill="rgb(197,197,199)" stroke="rgb(197,197,199)" stroke-width="1" opacity="1" d="M 228.5 680 L 253 680.5 L 228.5 681 L 228.5 680 Z " /><path fill="rgb(254,254,254)" stroke="rgb(254,254,254)" stroke-width="1" opacity="1" d="M 340.5 32 Q 354.2 30.3 362.5 34 L 377 44.5 Q 388.7 56.3 389 79.5 L 381 103.5 L 349 179.5 L 343 208.5 L 342 254.5 Q 339.7 255.8 341 260.5 Q 337.1 279.1 324.5 289 L 304.5 299 L 253.5 315 L 246 320.5 L 242 327.5 L 242 335.5 Q 243.8 342.7 249.5 346 Q 255.7 348.8 266.5 347 L 347.5 320 L 366.5 315 L 382.5 312 L 412.5 311 L 413.5 312 L 425.5 312 L 426.5 313 L 433.5 313 Q 440 316 449.5 316 L 509.5 331 L 533.5 332 L 534.5 331 L 547.5 330 L 564.5 325 L 578.5 318 L 620.5 291 L 650.5 278 L 672.5 273 L 712.5 273 L 713.5 274 L 739.5 274 L 740.5 275 L 780.5 276 L 781.5 277 L 788.5 277 L 798.5 279 Q 825.2 285.8 841 303.5 Q 853 316.5 860 334.5 L 865 353.5 L 866 367.5 L 865 368.5 L 865 378.5 L 863 387.5 L 854 408.5 L 804 480.5 L 783 518.5 L 772 542.5 L 762.5 555 L 746.5 564 L 730.5 567 L 715.5 567 L 714.5 566 L 705.5 566 L 683.5 562 L 653.5 552 L 622.5 534 L 602 514.5 L 595 501.5 Q 592.7 494.8 594 484.5 Q 598.6 471.6 608.5 464 Q 621.2 453.7 638.5 448 L 680.5 441 L 711.5 432 L 730.5 423 L 739 414.5 Q 744.2 408.7 742 395.5 Q 739.6 385.9 732.5 381 L 720.5 376 L 710.5 374 L 703.5 374 L 702.5 373 L 681.5 372 L 680.5 371 L 666.5 371 L 665.5 370 L 629.5 370 L 628.5 371 L 613.5 371 L 612.5 372 L 601.5 372 L 600.5 373 L 590.5 373 L 589.5 374 L 565.5 376 L 521.5 384 L 493.5 391 Q 459.9 400.4 429.5 413 Q 390.6 429.1 355.5 449 L 343.5 450 Q 334.9 447.6 331 440.5 Q 325.8 428.8 317.5 420 Q 314.5 417 307.5 418 Q 299 419.5 295 425.5 L 293 436.5 L 294 437.5 L 294 445.5 L 295 446.5 L 303 499.5 L 305 505.5 L 306 516.5 L 323 601.5 Q 321.5 607 324 608.5 L 324 633.5 Q 319.7 657.2 303.5 669 L 290.5 676 L 278.5 679 L 268.5 679 L 267.5 680 L 218.5 680 L 217.5 679 L 207.5 679 L 206.5 678 L 199.5 678 L 189.5 676 L 170.5 670 Q 147.5 659 132 640.5 Q 118.5 627 111 607.5 L 106 584.5 L 106 563.5 L 111 536.5 L 121 508.5 Q 211 295.5 297 78.5 L 310 49.5 L 316.5 42 L 328.5 35 L 340.5 32 Z M 341 48 L 327 54 Q 321 58 319 66 L 308 92 L 239 264 L 136 512 L 126 539 L 121 564 L 121 585 L 123 596 Q 129 617 143 631 Q 155 644 172 654 L 195 662 L 207 663 L 208 664 L 218 664 L 219 665 L 267 665 L 268 664 L 278 664 Q 289 662 297 655 L 306 642 L 309 630 L 308 606 L 291 521 L 290 510 L 288 504 L 279 445 L 278 444 L 278 430 Q 280 420 285 414 L 294 407 L 308 403 Q 322 403 329 410 L 335 418 L 346 435 L 351 435 Q 386 414 427 398 L 485 378 L 521 369 L 560 362 L 591 359 L 592 358 L 616 357 L 617 356 L 635 356 L 636 355 L 660 355 L 661 356 L 678 356 L 679 357 L 710 359 L 734 365 L 745 372 Q 754 380 757 396 Q 758 406 756 414 L 749 427 Q 738 439 721 445 L 684 456 L 646 462 Q 628 467 617 477 L 608 490 L 610 500 L 617 510 Q 635 528 661 539 L 685 547 L 706 551 L 714 551 L 715 552 L 738 551 L 750 546 L 756 540 Q 773 502 794 468 L 842 399 L 848 384 L 850 374 L 850 360 L 848 349 Q 843 331 833 319 Q 819 301 794 294 L 783 292 L 772 292 L 771 291 L 725 290 L 724 289 L 696 289 L 695 288 L 671 289 L 649 295 L 624 307 L 576 337 L 556 344 L 540 347 L 512 347 Q 510 345 505 346 L 450 332 L 428 328 L 419 328 L 418 327 L 390 327 L 389 328 L 381 328 L 371 330 L 336 340 L 275 361 L 265 363 L 253 363 L 240 358 Q 229 351 226 336 Q 226 320 233 313 Q 239 305 249 301 L 300 285 L 315 278 Q 323 271 326 258 Q 325 252 327 251 L 327 216 L 328 215 L 328 205 L 334 177 L 373 81 Q 374 65 367 58 L 358 49 Q 351 46 341 48 Z " /></svg>