<?xml version="1.0" standalone="no"?>
<!DOCTYPE svg PUBLIC "-//W3C//DTD SVG 20010904//EN"
 "http://www.w3.org/TR/2001/REC-SVG-20010904/DTD/svg10.dtd">
<svg version="1.0" xmlns="http://www.w3.org/2000/svg"
 width="960.000000pt" height="720.000000pt" viewBox="0 0 960.000000 720.000000"
 preserveAspectRatio="xMidYMid meet">

<g transform="translate(0.000000,720.000000) scale(0.100000,-0.100000)"
fill="#000000" stroke="none">
<path d="M8783 6355 c-80 -22 -112 -41 -458 -270 -176 -117 -394 -259 -485
-315 -375 -233 -496 -325 -1132 -861 -199 -169 -504 -425 -677 -570 -327 -275
-371 -320 -404 -419 l-15 -45 -83 -17 c-136 -29 -221 -70 -556 -270 -175 -104
-369 -214 -431 -244 -193 -93 -261 -184 -270 -361 -6 -122 -15 -130 -117 -103
-86 23 -227 25 -312 5 -90 -21 -175 -63 -276 -136 -153 -109 -262 -248 -282
-361 -7 -35 -10 -38 -79 -63 l-73 -27 -58 56 c-101 96 -243 156 -370 156 -33
0 -107 -12 -165 -26 -80 -19 -149 -27 -290 -33 -312 -15 -418 -49 -1110 -356
-190 -84 -409 -180 -486 -214 -164 -72 -247 -134 -312 -230 -61 -92 -87 -177
-87 -291 0 -147 44 -255 146 -365 151 -161 388 -206 630 -119 157 57 263 143
395 321 91 122 157 182 249 223 101 46 154 54 284 44 181 -14 376 -10 454 9
l68 17 62 -52 c188 -157 411 -179 719 -72 123 43 257 109 356 176 41 27 165
138 276 246 133 130 225 210 266 234 35 21 127 59 204 84 223 74 358 148 522
285 92 76 134 124 257 290 98 131 147 180 248 245 168 109 340 169 574 200
135 18 205 39 276 85 102 65 197 202 230 329 13 51 16 55 106 115 l93 62 112
-13 c62 -8 172 -21 243 -31 189 -25 413 -23 538 5 220 49 362 111 565 249 482
327 724 587 926 993 86 174 131 306 225 661 77 287 83 339 56 444 -22 81 -60
148 -121 209 -117 117 -278 162 -431 121z m192 -244 c78 -35 134 -117 135
-194 0 -45 -114 -481 -171 -651 -97 -292 -271 -568 -496 -787 -183 -178 -554
-441 -707 -500 -213 -82 -393 -104 -626 -75 -405 51 -468 56 -511 41 -58 -21
-252 -150 -293 -195 -26 -29 -43 -65 -65 -138 -24 -78 -40 -109 -72 -146 -58
-65 -102 -85 -232 -102 -279 -36 -475 -107 -693 -248 -113 -74 -193 -156 -321
-328 -183 -243 -342 -359 -627 -453 -157 -52 -257 -98 -333 -156 -28 -21 -141
-125 -250 -231 -218 -211 -281 -257 -458 -329 -309 -128 -494 -104 -630 81
-21 29 -48 53 -62 57 -17 4 -61 -6 -127 -28 l-101 -34 -165 4 c-427 9 -450 6
-608 -69 -141 -67 -212 -131 -344 -310 -101 -136 -197 -207 -318 -234 -130
-30 -232 -12 -312 54 -114 94 -127 290 -27 403 50 57 69 67 639 318 702 309
783 336 1065 349 161 8 225 16 360 50 119 29 191 4 305 -106 97 -94 142 -118
198 -108 62 12 314 112 338 135 14 14 27 43 34 78 17 85 28 115 61 165 37 55
169 158 259 199 83 40 197 48 286 22 124 -37 237 -15 317 63 63 60 79 102 86
224 6 100 8 109 34 136 16 17 50 38 75 47 56 21 275 145 532 301 319 193 360
208 575 219 72 4 147 11 169 16 l39 10 -38 39 c-33 34 -39 47 -42 92 -3 40 1
60 16 84 11 18 158 148 328 290 169 142 479 402 688 579 627 528 673 562 1165
875 124 79 343 221 487 317 144 96 275 178 290 183 47 14 106 10 148 -9z"/>
<path d="M8670 5832 c-113 -76 -306 -202 -430 -281 -585 -374 -636 -411 -1105
-807 -143 -121 -452 -381 -688 -578 l-427 -358 28 -36 c15 -20 33 -48 39 -62
7 -14 12 -18 12 -10 2 30 50 119 88 161 58 65 293 215 375 240 l68 21 188 -21
c103 -12 246 -28 317 -37 284 -35 489 13 727 168 157 103 322 226 418 312 216
194 404 477 500 751 31 90 170 597 170 622 0 19 -37 53 -57 53 -10 0 -110 -62
-223 -138z m-110 -442 c-70 -209 -215 -444 -375 -605 -131 -133 -452 -368
-579 -425 -133 -60 -255 -78 -417 -61 -208 22 -222 -11 118 276 374 316 468
389 678 526 296 194 600 387 603 384 2 -2 -11 -44 -28 -95z"/>
<path d="M4920 3093 c-41 -25 -114 -65 -161 -89 l-86 -44 -6 -85 c-4 -52 -14
-103 -27 -131 -11 -26 -20 -49 -20 -52 0 -18 104 100 190 213 54 72 120 154
147 183 27 28 47 52 44 51 -3 0 -40 -21 -81 -46z"/>
<path d="M3908 2486 c-44 -16 -72 -33 -151 -93 -65 -51 -80 -74 -97 -158 -22
-110 -54 -161 -128 -207 -54 -33 -311 -127 -382 -140 -59 -10 -73 -9 -140 11
-69 21 -80 29 -155 105 -109 110 -123 115 -239 88 -129 -31 -215 -42 -338 -42
-234 0 -324 -31 -1143 -394 -278 -124 -430 -196 -448 -215 -57 -56 -40 -156
33 -194 27 -14 48 -17 95 -13 110 11 201 73 285 196 142 206 319 338 546 406
96 29 166 32 524 23 141 -3 147 -2 237 29 101 35 164 40 219 17 49 -20 73 -41
134 -114 29 -35 67 -69 86 -77 75 -31 224 -4 388 70 127 58 203 116 376 287
237 233 320 296 484 364 l69 29 -69 18 c-82 21 -135 22 -186 4z"/>
<path d="M6792 5325 c-127 -151 -229 -275 -226 -275 3 0 147 75 320 166 279
148 313 168 302 183 -12 15 -144 177 -157 193 -4 4 -111 -116 -239 -267z"/>
</g>
</svg>
