<?xml version="1.0" standalone="no"?>
<!DOCTYPE svg PUBLIC "-//W3C//DTD SVG 20010904//EN"
 "http://www.w3.org/TR/2001/REC-SVG-20010904/DTD/svg10.dtd">
<svg version="1.0" xmlns="http://www.w3.org/2000/svg"
 width="960.000000pt" height="720.000000pt" viewBox="0 0 960.000000 720.000000"
 preserveAspectRatio="xMidYMid meet">

<g transform="translate(0.000000,720.000000) scale(0.100000,-0.100000)"
fill="#000000" stroke="none">
<path d="M7438 6579 c-106 -25 -233 -119 -303 -225 -65 -97 -84 -167 -112
-408 -42 -370 -27 -487 107 -821 108 -269 156 -401 179 -490 19 -77 44 -285
34 -295 -6 -6 -2009 118 -2102 130 -131 18 -64 -18 -1236 675 -280 166 -532
309 -560 318 -163 51 -331 13 -460 -105 -55 -50 -249 -308 -388 -516 l-70
-104 -81 80 c-154 151 -330 282 -465 346 -63 29 -72 31 -186 31 l-120 0 -85
-41 c-169 -83 -325 -238 -430 -429 -330 -604 -818 -1488 -837 -1518 -13 -21
-57 -83 -97 -137 -82 -109 -104 -162 -112 -265 -7 -87 10 -165 70 -315 51
-127 107 -211 198 -296 64 -60 224 -176 284 -207 29 -15 32 -21 39 -83 15
-146 77 -298 158 -390 22 -25 143 -129 270 -231 189 -153 236 -196 266 -244
105 -169 140 -217 196 -262 93 -75 147 -92 290 -92 113 1 124 2 187 32 113 53
206 156 241 268 16 49 46 202 87 440 11 66 61 354 110 640 60 350 102 567 129
665 48 171 214 625 229 625 6 0 146 -110 312 -245 316 -256 363 -290 470 -344
141 -71 230 -91 477 -106 98 -6 602 -38 1120 -70 519 -33 959 -60 979 -60 29
0 37 -4 42 -22 3 -13 25 -63 50 -111 82 -164 234 -285 417 -332 38 -10 191
-23 425 -35 403 -22 830 -47 1015 -59 139 -9 229 -1 304 29 74 29 156 85 197
134 45 54 303 451 322 496 43 101 60 252 43 370 -6 41 -22 158 -36 260 -150
1101 -255 1876 -301 2215 -31 232 -64 439 -75 477 -51 164 -190 295 -350 329
-33 7 -90 9 -149 5 l-95 -6 -35 56 c-70 113 -197 205 -327 239 -62 16 -176 18
-235 4z m176 -283 c66 -20 111 -58 162 -136 49 -77 90 -115 152 -142 36 -16
63 -19 175 -16 124 2 135 1 170 -21 20 -12 49 -43 64 -68 25 -43 37 -125 228
-1527 179 -1307 201 -1489 194 -1548 -10 -83 -11 -85 -167 -326 -135 -207
-170 -243 -251 -258 -20 -4 -155 0 -301 9 -146 10 -474 28 -730 42 -380 21
-477 29 -531 45 -154 46 -247 175 -253 354 l-3 81 -34 7 c-19 4 -547 39 -1174
78 -1412 86 -1364 82 -1462 118 -116 43 -169 79 -420 282 -536 436 -696 561
-703 553 -11 -12 -315 -847 -344 -943 -49 -166 -77 -300 -151 -740 -167 -986
-185 -1077 -223 -1122 -72 -86 -213 -74 -279 23 -16 24 -49 76 -72 116 -64
109 -102 146 -347 343 -124 100 -239 200 -255 223 -43 60 -65 145 -79 307 -7
80 -17 148 -23 151 -5 4 -28 10 -51 13 -49 8 -116 45 -229 125 -137 98 -188
162 -243 308 -57 152 -53 181 43 308 86 114 106 148 563 980 226 412 425 768
441 790 41 56 195 182 246 201 65 25 119 15 207 -40 176 -110 325 -245 522
-476 l128 -150 76 148 c41 81 106 194 144 252 91 140 311 447 350 488 48 52
100 75 161 70 46 -4 119 -44 775 -433 808 -478 869 -512 990 -550 82 -26 120
-29 1200 -97 965 -61 1124 -69 1183 -59 71 12 159 44 176 65 12 14 -21 439
-39 522 -23 102 -56 197 -166 481 -156 399 -165 445 -139 693 33 317 46 363
123 430 66 59 115 70 196 46z"/>
<path d="M7538 6103 c-23 -26 -25 -38 -48 -251 -29 -265 -28 -271 117 -641
172 -441 189 -510 218 -889 16 -204 14 -237 -24 -299 -43 -69 -177 -133 -323
-154 -74 -11 -198 -5 -1208 59 -1074 67 -1129 72 -1215 97 -49 14 -124 41
-166 59 -62 26 -604 343 -1474 859 -60 36 -113 63 -117 61 -13 -8 -303 -416
-359 -504 -29 -47 -90 -157 -135 -245 -88 -175 -121 -211 -200 -222 -71 -9
-101 13 -239 174 -218 252 -409 428 -562 516 -15 9 -145 -95 -176 -142 -13
-20 -201 -358 -417 -751 -452 -823 -489 -889 -565 -989 -30 -41 -55 -79 -54
-85 1 -26 58 -151 83 -183 31 -38 168 -144 226 -173 19 -10 61 -23 93 -29 72
-13 110 -33 138 -72 20 -28 24 -54 36 -213 10 -130 19 -192 32 -222 16 -34 59
-74 242 -221 247 -198 296 -247 371 -370 46 -75 68 -99 68 -74 0 5 24 148 54
318 30 169 84 486 121 703 65 391 108 589 165 766 58 181 362 989 378 1007 50
55 149 62 219 15 22 -14 241 -189 489 -389 494 -400 518 -418 601 -449 69 -26
129 -31 778 -71 1496 -90 1887 -118 1923 -136 77 -39 112 -118 112 -257 0 -82
29 -133 90 -163 42 -20 80 -24 520 -48 261 -14 576 -32 700 -40 124 -8 239
-15 256 -15 29 0 38 11 158 195 148 230 142 199 101 492 -13 98 -38 279 -55
403 -17 124 -39 288 -50 365 -42 311 -150 1098 -196 1440 -19 143 -41 307 -49
364 -8 58 -15 106 -15 107 0 1 -60 4 -132 6 -129 3 -135 4 -208 39 -91 44
-169 112 -213 186 -17 31 -41 62 -53 69 -18 12 -23 12 -36 -3z m339 -565 c48
-10 53 -14 58 -42 3 -17 19 -130 35 -251 16 -121 32 -236 35 -255 4 -28 1 -25
-16 20 -12 30 -64 162 -115 293 -52 132 -94 243 -94 249 0 6 10 8 23 4 12 -4
46 -12 74 -18z m-3871 -1274 c340 -201 659 -386 708 -411 115 -58 267 -108
386 -128 105 -17 2112 -145 2281 -145 174 0 285 27 449 108 144 71 251 209
281 362 l13 65 82 -600 81 -599 -60 -94 -60 -94 -56 6 c-31 3 -274 17 -541 31
-267 14 -504 28 -527 31 l-41 5 -12 67 c-35 207 -195 363 -400 392 -41 6 -545
40 -1120 76 -575 36 -1135 70 -1245 77 -173 11 -207 16 -244 35 -23 12 -172
127 -329 255 -158 128 -345 279 -417 336 -71 57 -136 109 -143 116 -11 10 -9
22 13 66 48 94 259 409 275 409 4 0 285 -165 626 -366z m-2061 -16 c39 -40
124 -135 188 -210 l118 -137 -141 -381 c-78 -210 -152 -416 -165 -459 -56
-178 -100 -382 -171 -801 -41 -245 -77 -447 -79 -449 -5 -5 -2 -7 -131 98
-113 91 -114 93 -114 220 0 280 -129 459 -371 515 -52 13 -85 30 -157 82 -2 1
21 43 51 93 30 49 234 416 453 815 l398 724 26 -18 c14 -10 57 -51 95 -92z"/>
<path d="M9092 4313 c-24 -208 -43 -387 -42 -399 0 -20 1 -20 197 8 108 16
198 30 200 31 3 4 -297 720 -306 730 -4 4 -26 -163 -49 -370z"/>
</g>
</svg>
