<svg version="1.1" xmlns="http://www.w3.org/2000/svg" xmlns:xlink="http://www.w3.org/1999/xlink" x="0px" y="0px" viewBox="0 0 500 385" class="f1-svg-track" style="enable-background:new 0 0 500 375;" xml:space="preserve" width="500" height="375">
<g>
	<g>
		<g>
			<path class="f1-svg-track__outline" d="M24.3,368C24.3,368,24.3,368,24.3,368c-14.8,0-23.3-2.7-26.7-8.6c-2.4-4.1-2-9.2,1.3-15.1c1.5-2.6,4.4-5.3,9.1-8.5
				c5.3-3.4,11.5-7.9,18.5-13.6c8.1-6.6,10.9-11.1,11.8-13.7c0.7-2,1.2-7.5-3.5-21c-4-11.5-6.4-19.7-7.4-25
				c-1.1-5.6-1.4-10.2-1-14.1c0.4-3.5,5.7-39.9,16.2-111.3C53.1,65.7,58.5,29.5,59.1,26.5c0.6-2.9,2.5-6.9,7.9-9.4
				c1.6-0.7,3.3-1.1,5-1.1c3.1,0,6.1,1.2,9,3.6c1.2,1,3.9,2.7,6.7,4.5c4.6,2.9,9.7,6.2,13.3,9.2c11,9.3,17.7,16.6,21.7,23.6
				c5.6,9.8,9.6,17,13.2,24.6c7.6,16,10.6,18.8,17.4,22.5c4,2.2,8,3.8,11.5,5.3c4.4,1.8,8.2,3.3,11.3,5.7c6,4.7,8.6,13.4,7.7,25.8
				c-0.8,10.7-0.4,19.9,1.1,27.5c0.9,4.7,6.7,13.3,28.5,27.5c18.6,12.1,31.3,20.7,38,25.5c6.8,5,11.3,8.5,13.8,10.8
				c3.8,3.5,4.3,8.1,1.5,12.5c-2.5,3.7-7,6.2-13.8,7.7c-1.4,0.3-3.4,0.5-6.1,0.5h0c-9.6,0-28.4-2-57.4-6.1
				c-30.6-4.4-50.2-6.6-58.3-6.6c-1.4,0-2.1,0.1-2.5,0.1c-2.6,0.4-9.1,3.3-23.5,18.7c-8.8,9.5-8.1,12.8-8,13.2
				c0.3,0.8,1.9,1.7,4.3,2.1c10.3,2,23.3,3.2,38.6,3.4c3.7,0.1,8.6,0.1,14.6,0.1c19.2,0,50.8-0.3,93.8-0.8
				c25.1-0.3,46.8-0.5,64.3-0.5c22,0,38.2,0.2,48.3,0.7c4.3,0.2,8.3,0.3,11.9,0.3c13.6,0,18.1-1.5,19.6-2.5
				c3.3-2.1,5.8-6.7,7.3-13.5c1.6-7.2-0.3-17.1-5.4-29.5c-5.1-12.4-13.1-21.8-23.8-28c-11.1-6.5-19.8-10.5-25.9-11.9
				c-7-1.6-18.9-6.2-36.4-14.3c-18.9-8.7-27.4-20.9-25.1-36.2c1.9-12.6,4.1-21.8,6.8-27.9c2.6-5.8,5.2-11.4,7.7-16.8
				c2.5-5.4,5.1-10.6,7.7-15.5c2.5-4.7,5.2-10.3,7.9-16.5c2.6-5.9,6.2-11.1,10.7-15.4c1.7-1.5,3.5-2.5,5.6-2.8c2-0.5,4-1,5.9-1.5
				c0.2,0,0.3-0.1,0.5-0.1c5.2-0.8,10,0.7,14.2,4.3c3.3,3,6.6,6.2,9.8,9.8c3.1,3.4,7,7.8,11.6,12.9c4.7,5.3,8.9,11.3,12.5,17.9
				c0,0,0,0.1,0.1,0.1c14.6,29,26.6,52.6,35.8,70.4c10.3,20,26.4,52.1,47.9,95.4c26.7,53.7,33.1,66.5,33.9,67.8
				c1.5,2.5,2.2,5.4,2.1,8.5c-0.2,3.2-2,7.2-5.7,12.5c-3.3,4.7-6.9,9.4-10.6,14.2c-4.7,5.9-15.1,8.5-33.1,8.3L24.3,368z M72,24
				c-0.5,0-1.1,0.1-1.7,0.4c-2.6,1.2-3.2,2.6-3.4,3.8c-0.4,1.9-3.6,22.6-16.4,110.2C40.2,208.7,34.8,246,34.4,249.4
				c-0.3,3-0.1,6.9,0.9,11.6c1,4.9,3.4,12.9,7.2,23.9c4.3,12.4,5.4,20.7,3.5,26.2c-1.9,5.4-6.6,11-14.4,17.3
				c-7.3,5.8-13.7,10.6-19.2,14.1c-4.6,3.1-6,4.9-6.5,5.7c-1.2,2.2-2.5,5.3-1.4,7.2c0.8,1.4,4.4,4.6,19.8,4.6l430.3-1
				c0.6,0,1.2,0,1.7,0c18.1,0,23.5-3.3,25-5.3c3.7-4.6,7.2-9.3,10.3-13.8c3.9-5.5,4.3-7.7,4.3-8.3c0.1-1.5-0.3-2.8-1-4.1
				c-0.8-1.3-5.1-9.8-34.1-68.3C439.4,216.1,423.3,184,413,164c-9.2-17.7-21.2-41.4-35.8-70.4c-3.3-6-7.1-11.5-11.4-16.3
				c-4.5-5.1-8.4-9.4-11.5-12.8c-3-3.3-6.1-6.4-9.2-9.2c-2.3-2-4.7-2.8-7.5-2.4c-2,0.5-4,1.1-6.1,1.5c-0.1,0-0.2,0-0.3,0
				c-0.6,0.1-1.1,0.4-1.6,0.8c-3.7,3.5-6.7,7.8-8.9,12.8c-2.8,6.4-5.6,12.2-8.2,17.1c-2.6,4.7-5.1,9.8-7.5,15.1
				c-2.5,5.4-5.1,11-7.7,16.7c-2.4,5.4-4.5,14.1-6.2,25.8c-1.7,11.6,5,20.6,20.5,27.8c16.8,7.7,28.5,12.4,34.8,13.8
				c7,1.5,16.3,5.7,28.2,12.8c12.2,7.1,21.3,17.9,27.1,31.9c5.8,14.1,7.7,25.3,5.8,34.2c-2,9-5.6,15.3-10.8,18.6
				c-4.1,2.5-11.6,3.7-23.8,3.7c-3.7,0-7.8-0.1-12.2-0.3c-10-0.5-26.1-0.7-47.9-0.7c-17.5,0-39.1,0.2-64.2,0.5
				c-43.1,0.5-74.6,0.8-93.9,0.8c-6,0-11,0-14.7-0.1c-15.8-0.2-29.2-1.4-40.1-3.5c-5.7-1.1-9.1-3.7-10.4-7.5
				c-1.7-5.4,1.4-12.1,9.7-21.1c12.6-13.5,21.5-20.2,28.2-21.2c0.9-0.1,2.1-0.2,3.6-0.2c8.6,0,28.1,2.2,59.5,6.6
				c28.2,4,47.2,6,56.3,6h0c2.7,0,3.9-0.2,4.3-0.3c5.8-1.3,8-3,8.8-4.3c0.7-1.1,0.6-1.4-0.2-2.2c-2.3-2.1-6.7-5.6-13.1-10.3
				c-6.5-4.8-19.2-13.3-37.6-25.3c-19.7-12.8-30.2-23.5-32-32.6c-1.7-8.3-2.1-18.3-1.2-29.7c0.7-9.6-0.8-16-4.6-18.9
				c-2.2-1.7-5.5-3-9.4-4.6c-3.7-1.5-7.9-3.2-12.4-5.7c-8.7-4.8-12.7-9.1-20.8-26.1c-3.5-7.4-7.2-14.1-12.9-24
				c-3.5-6.1-9.8-12.9-20-21.5c-3.2-2.7-8.3-5.9-12.4-8.6c-3.1-2-5.9-3.7-7.4-5C74.5,24.6,73.2,24,72,24z"></path>
		</g>
	</g>
</g>
</svg>