<svg class="f1-svg-track" xmlns="http://www.w3.org/2000/svg" viewBox="0 0 500 375">
    <path class="f1-svg-track__outline" d="M22.73,314.17a17.22,17.22,0,0,1-4.39-.56c-7.41-1.9-11.44-7.22-11.36-15a17.8,17.8,0,0,1,8.71-14.89l2.11-1.23c2.45-1.08,59.93-26.3,65-28.1a36.81,36.81,0,0,1,14.32-2.66,49,49,0,0,1,5.53.37,28.64,28.64,0,0,0,11.28-.56,24.31,24.31,0,0,0,6.18-2.39c2.83-1.48,5.51-2.87,11.22-1.19,2.37.69,4.65,2.86,7.28,5.38a48.41,48.41,0,0,0,5,4.37q.7.5,1.32,1c2.86,2.1,3.63,2.66,9.88,1.23,10.95-2.5,17.29-4.57,18.85-6.15.51-9.32,3.37-15.74,8.51-19.11,7.2-4.72,14.65-9.6,24.72-7.23,13.59,3.2,17.21.86,18.15-.82a36.87,36.87,0,0,0,3-7.13,43.13,43.13,0,0,1,3.82-8.92c2.89-4.9,11.73-15.35,20-18.5,4.9-1.85,14.8-8.42,21.35-12.77,2.66-1.77,4.76-3.16,6.09-4,2.11-1.26,13.9-5.06,18.41-3.57,2.51.84,4,.65,4.56.23a1,1,0,0,0,.32-.86c-.34-4.18,2.18-15.14,12.21-22.38,8.81-6.36,45.7-36.81,46.07-37.12l.1-.07c2.5-1.92,61.34-47.24,71.73-52.81,8.15-4.37,27.29-17.63,34.5-22.62,2.1-1.46,3-2.06,3.28-2.25,6.39-4.05,12.47-4.49,16.25-1.2,6.07,5.3,4.29,18.25-5.44,39.61-17.49,38.38-33.55,53.53-35.25,55.06-2,2.11-26.46,27.19-44.74,28.23-15,.86-46.35,2.65-55.1,7.14-1.89,1-3.78,1.88-5.62,2.76-5.77,2.79-12.32,5.94-13.1,8.8-.2.72-.4,1.63-.63,2.67-1.42,6.39-4.06,18.28-14.89,19.39a72.55,72.55,0,0,1-8.93.1c-9.11-.26-19.44-.54-27,6.68-4.47,4.28-10.34,10.84-16,17.17-9.35,10.43-18.18,20.28-23.6,23.56-4.22,2.56-10.74,2.71-17.63,2.86-8.24.18-17.59.39-21.54,4.93-1.46,1.66-3,3.52-4.58,5.48-7.75,9.47-17.4,21.25-30.64,24.84l-3.61,1c-15.35,4.22-27.48,7.56-31.24-.66-1.9-4.13-4.33-6.72-6.85-7.29-.9-.21-2.29.17-8,1.81l-.5.14c-4.52,1.29-11.24,1-17.75.8a89.87,89.87,0,0,0-12.28.06c-8.42,1.05-20.28,3.25-26.13,10.16-1,1.15-2.12,2.62-3.34,4.17C45.27,301.1,35,314.17,22.73,314.17Zm-1.91-25.34-1.53.92A10.71,10.71,0,0,0,14,298.7c-.05,4.53,1.84,7,6.1,8.13,9.83,2.54,20-10.43,26.71-19,1.26-1.61,2.44-3.12,3.5-4.37,7.44-8.78,21-11.39,30.61-12.59a90.62,90.62,0,0,1,13.41-.1c6,.22,12.12.45,15.57-.54l.49-.14c7.12-2,8.81-2.52,11.49-1.91,3.32.76,8,3.31,11.66,11.21,1.28,2.8,14.89-.94,23-3.18l3.63-1c11.09-3,19.58-13.38,27.07-22.53,1.64-2,3.19-3.89,4.71-5.64,6-6.87,17-7.11,26.66-7.33,5.68-.12,11.54-.25,14.17-1.84,4.52-2.75,13.81-13.11,22-22.25,5.77-6.44,11.74-13.09,16.41-17.55,9.66-9.25,22.59-8.89,32-8.63a67.47,67.47,0,0,0,8-.06c5.37-.55,7.22-6.91,8.77-13.95.25-1.08.47-2.11.71-3,1.62-5.94,8.67-9.34,16.83-13.26,1.79-.87,3.64-1.76,5.45-2.69,9.29-4.77,34.76-6.58,57.9-7.9,13.23-.76,33.48-19.15,40.17-26.17l.22-.21c.16-.14,16.24-14.66,33.63-52.83,11.95-26.23,7.73-31,7.21-31.42-1.2-1.05-4.6-.26-7.9,1.83-.24.15-1.54,1.05-3.05,2.09-8,5.53-26.67,18.48-35.17,23-7.9,4.24-49.69,35.94-70.72,52.15-2.08,1.71-37.48,30.91-46.39,37.35-7.59,5.48-9.52,13.86-9.33,16.12a8,8,0,0,1-3,7c-1.88,1.48-5.33,2.84-11.1.92-2-.44-10.88,2-12.62,2.94-1.17.7-3.32,2.12-5.8,3.77-7.22,4.79-17.11,11.35-22.74,13.49-6.2,2.35-14,11.34-16.47,15.5a36.61,36.61,0,0,0-3.22,7.58,44,44,0,0,1-3.5,8.37c-4.59,8.12-16.95,6.28-25.85,4.18-6.8-1.6-11.76,1.34-19.28,6.27-3.19,2.09-5,6.71-5.36,13.72a5.69,5.69,0,0,1-.24,1.7c-1.6,4.87-9.35,7.46-24,10.82-8.94,2-11.62.49-15.58-2.42-.38-.28-.78-.58-1.22-.88a54.08,54.08,0,0,1-5.8-5c-1.44-1.37-3.61-3.44-4.43-3.73-3-.88-3.7-.51-6,.69a30.68,30.68,0,0,1-7.8,3,35.33,35.33,0,0,1-13.64.71,42.38,42.38,0,0,0-4.78-.33,30.29,30.29,0,0,0-12,2.26C81.29,262.37,41.51,279.75,20.82,288.83Z"></path>
</svg>