<svg xmlns="http://www.w3.org/2000/svg" width="500" height="500" viewBox="0 0 500 500" class="f1-svg-track">
  <g>
    <path class="f1-svg-track__outline" d="M199.2,324.01c-7.17,0-37.34-.59-56.82-10.03-9.33-4.53-17.55-8.55-24.98-12.2-9.49-4.65-17.69-8.67-25.27-12.28-7.12-3.39-28.68-15.59-46.9-26.18-9.89-5.75-18.94-11.1-25.47-15.07-12.77-7.76-12.77-8-12.77-10.25,0-1.51,.54-4.33,.71-5.18,.8-4.18,1.49-7.78,2.08-10.89,3.9-20.52,3.97-20.91,7.4-23.52,.58-.44,1.19-.9,2.05-1.81l.13-.14c7.1-7.45,12.24-12.83,29.17-17.57,16.03-4.49,31.69-14.92,34.24-17.47,1.08-1.08,10.58-11.13,10.58-30.39s.03-56.09,.03-56.09v-22.04c-.14-1.62,.3-3.93,2.03-5.56,1.84-1.74,4.51-2.27,7.92-1.59,5.67,1.13,19.16,3.32,21.92,3.76,.25-.14,.67-.59,1.01-1.64,1.18-3.6,5.39-9.18,20.29-5.98,8.92,1.91,25.44,7.98,30.75,18.61,4.64,9.28,7.46,16.23,7.46,34.43v26.48c.38,.57,1.84,1.6,5.52,1.6,10.17,0,64.5-.64,65.05-.64l88.26-1.93,60.47-.64c5.56-.54,20.7-2.9,26.3-7.57,8.81-7.45,11.17-10.53,9.79-16.5l-.04-.21c-1.18-7.11-4.85-11.5-8.4-15.75-1.73-2.07-3.36-4.02-4.68-6.23-.36-.61-.7-1.15-1.01-1.65-3.48-5.65-3.95-7.35-3.36-20.93,.54-12.36,2.45-15.15,4.44-16.32,.54-.32,1.12-.51,1.71-.57,.41-.09,.85-.13,1.29-.1,2.33,.15,4.75,1.99,7.85,5.98,4.49,5.77,23.12,31.23,23.91,32.31,7.82,10.56,26.18,35.5,27.49,38.79,1.45,3.63,2.16,7.46,2.83,28.9,.61,29.43,.07,41.04,0,42.39l.29,29.96v38.17c0,.52-.93,44.34-.93,47.49,0,.53,.05,1.07,.1,1.64,.21,2.41,.61,6.88-5.07,8.77-3.8,1.27-3.81,1.33-4.1,3.06-1.17,7.05-1.61,8.98-2.91,10.28-1.07,1.07-2.08,2.07-19.31,1.67h-33.66s-109.32,.64-109.32,.64h-116.58c-.15,0-.68,.01-1.52,.01ZM14.17,236.48c9.45,6.43,67.51,40.29,80.97,46.7,7.62,3.63,15.83,7.65,25.34,12.32,7.42,3.64,15.63,7.66,24.95,12.18,20.25,9.82,54.87,9.31,55.22,9.32h116.62s109.32-.64,109.32-.64h33.76c5.23,.12,11.38,.09,14.15-.15,.36-1.54,.78-4.1,1.09-5.95,.99-5.95,4.78-7.21,8.79-8.55,.17-.06,.3-.11,.39-.15,0-.35-.04-.92-.08-1.36-.06-.67-.12-1.42-.12-2.25,0-3.22,.89-45.76,.93-47.56v-38.06s-.29-30.16-.29-30.16v-.12c.01-.11,.63-11.57,0-41.93-.6-19.3-1.18-23.62-2.33-26.49-1.09-2.31-14.54-20.92-26.63-37.24-.21-.28-19.37-26.47-23.8-32.16-.73-.94-1.33-1.62-1.8-2.12-.35,1.59-.76,4.39-.96,9.14-.54,12.32-.27,12.76,2.32,16.95,.32,.52,.67,1.09,1.05,1.72,1.04,1.74,2.51,3.49,4.05,5.34,3.74,4.48,8.4,10.06,9.92,18.98,2.48,10.97-4.62,16.98-12.13,23.33-8.35,6.96-28.07,8.98-30.29,9.19l-.29,.02-60.58,.64-88.26,1.93c-.58,0-54.96,.65-65.17,.65-11.29,0-12.44-7.21-12.49-7.52l-.04-.49v-27.07c0-17-2.55-22.97-6.72-31.3-3.84-7.67-17.63-13.11-25.96-14.9-6.67-1.43-11.44-.91-12.17,1.32-1.78,5.43-5.84,6.63-7.96,6.49l-.31-.04c-.66-.11-16.25-2.6-22.69-3.89-.78-.16-1.28-.17-1.56-.14l.03,.14-.05,.1v22.24s-.03,37.35-.03,56.08c0,21.62-10.52,33.24-12.63,35.34-3.66,3.66-20.77,14.63-37.3,19.26-15.08,4.22-19.19,8.53-25.99,15.66l-.13,.14c-1.25,1.31-2.2,2.03-2.88,2.55-1.2,.91-1.29,.98-4.76,19.25-.59,3.12-1.28,6.73-2.08,10.92v.03c-.15,.72-.3,1.57-.41,2.3Zm-1.13-.83h0ZM100.36,52.22h0Z"></path>
  </g>
</svg>