<svg id="Layer_1" xmlns="http://www.w3.org/2000/svg" version="1.1" viewBox="0 0 500 375">
  <!-- Generator: Adobe Illustrator 30.1.0, SVG Export Plug-In . SVG Version: 2.1.1 Build 136)  -->
  <path d="M57.2,337.5c-11.8,0-14.4-8.1-16.5-18.6-1.4-7.3-2.6-13.7-3.8-20.6v-.3c-2.5-15.4-4.9-29.8-7.2-43.7-4.4-26.7-8.3-49.7-10.4-68.6-.4-3-1.3-5-2.7-6h0c-.9-.8-2.5-1.3-4.2-1.8-2.5-.8-5.4-1.6-7.7-3.9C.2,169.4,0,162.7,0,159.1c0-7.4,1.2-13.5,3.7-18.9,2.5-5.5,6.4-10.1,12.1-14.4,4.5-3.4,9.7-6.4,15.3-9.7,2.7-1.6,5.5-3.2,8.3-4.9,7.7-4.5,15.5-9.5,23.9-14.8,47-29.9,105.4-67.1,157.9-28.2,1.7,1.2,3,.9,6.6-.5.7-.3,1.3-.5,2-.7,2.8-1,5.8-1.4,8.6-1.7,1.8-.2,3.6-.5,5.4-.9,5.4-1.1,10.2-2.6,14.2-4.5,2.4-1.1,4.3-2.4,6.4-3.8,1.6-1.1,3.3-2.3,5.4-3.4,3.5-2,7.3-3.7,11.3-5,3.4-1.2,6.7-1.9,9.9-2.5,2.8-.6,5.4-1.1,8.1-2h.1c1.1-.3,2.2-.8,3.4-1.2,3.1-1.2,6.5-2.5,10.4-2.1h.1c3.6.5,5.9,2.7,7.8,4.5,1,1,2,2,3.1,2.5,1.7.9,4,1.1,7.1.8,1.6-.2,3.1-.5,4.4-1.1,1.7-.7,3.4-1.8,5.1-2.9,3.1-2,6.6-4.2,11.1-4.8h.1c24.5-2.7,59.1-1,86.9.3l7.4.4c6.1.4,12.4.8,18.8,2,20.1,3.5,33.3,17.7,35.1,38,.9,13.7-5.8,26.4-18.1,34.2-13.2,8.3-29.5,9.3-42.6,2.5-4.4-2.1-8.2-5-11.1-7.3-4.8-3.7-10.6-8.6-16.7-13.8-13.2-11.2-28.2-23.8-40-30.4-7.6-3.9-9.7-3.7-13.6,1.4h0c-2.8,3.6-5.7,7.7-8.5,11.7-3.6,5.1-7.3,10.3-11.1,14.7l-.3.3c-8.5,7.9-20.4,7.3-32,6.6-11.7-.6-22.7-1.3-30.6,6.1l-.2.2c-13.1,10.8-12.4,25.7-11.8,41.4,0,1.5.1,2.9.2,4.4h0c0,.1,0,1.2,0,1.2,0,3.3,0,6.3.9,9.1h0c.4,1.4,1,2.6,1.7,4,.7,1.4,1.4,2.9,1.9,4.4,2.4,8.9-7.3,13.8-11.4,15.8-2.2,1.1-4.5,2.2-6.9,3.3-10.6,4.9-22.5,10.5-29,20.1-3.2,5.5-.9,12.3,1.3,18.9l.6,1.6c2.6,7.9,1.8,16.2-2.4,23.3-4.7,8-13.2,13.9-23.1,16-9.4,1.9-24.8,4.3-39.7,6.6-10.6,1.6-20.7,3.2-28,4.5-2.2.5-3.4,1-4,1.4h0c.4.6.8,1.3,1.3,2,.4.7.9,1.3,1.3,2,3.2,5.1,4.4,13.4,5.2,19.5v.2c.8,8.6,1.8,18.4-12.6,21.8-12.2,3.6-27.2,5.7-40.4,7.6-3.2.5-6.3.9-9.1,1.3-.9.1-1.8.3-2.7.4-3.4.5-6.9,1.1-10.5,1.1-.2,0-.4,0-.6,0ZM44.7,296.8v.2c1.3,6.9,2.4,13.2,3.8,20.5,2.4,11.8,4.2,12.3,9.1,12.3,3,0,6.1-.5,9.4-1,.9-.1,1.9-.3,2.8-.4,2.8-.4,5.9-.9,9.2-1.3,13-1.8,27.7-3.9,39.3-7.3h.2c7.4-1.8,7.5-4.5,6.6-13.5-.7-5.1-1.8-12.7-4.1-16.4-.4-.6-.8-1.2-1.2-1.8-.5-.7-1-1.5-1.4-2.3-2-3-1.4-5.5-.9-6.8,1.2-3,4.6-5.1,10.1-6.3h.1c7.4-1.3,17.5-2.9,28.2-4.6,14.8-2.3,30.1-4.6,39.3-6.5,7.7-1.6,14.3-6.1,17.9-12.2,3.1-5.2,3.7-11.1,1.7-17l-.5-1.6c-2.5-7.5-5.7-16.8-.6-25.4v-.2c7.9-11.5,20.9-17.6,32.5-23,2.4-1.1,4.6-2.2,6.8-3.2,4.9-2.4,8-4.5,7.4-6.8-.2-.8-.8-1.9-1.3-3.1-.7-1.5-1.6-3.2-2.1-5.1-1.3-3.9-1.2-7.9-1.2-11.4v-1c0-1.4-.1-2.9-.2-4.3-.7-16.1-1.5-34.3,14.5-47.6,10.4-9.6,24.3-8.8,36.5-8.2,10.2.6,19.8,1.1,25.8-4.4,3.5-4,7-9,10.4-13.8,2.9-4.1,5.8-8.3,8.8-12,8.1-10.5,16.2-7.5,23.8-3.6h.1c12.5,7,27.8,20,41.3,31.4,6.1,5.1,11.8,10,16.5,13.6,2.7,2.2,6,4.6,9.7,6.5,10.5,5.4,24,4.6,34.6-2.1,9.9-6.3,15.2-16.1,14.4-27-1.5-16.7-11.9-28-28.6-30.9-6-1.2-11.8-1.5-17.8-1.9h-.5s-6.7-.4-6.7-.4c-27.5-1.3-61.7-2.9-85.6-.4-2.7.4-5.1,1.9-7.8,3.6-2,1.2-4,2.5-6.3,3.5h0c-2,.8-4.2,1.4-6.6,1.6-4.8.5-8.6,0-11.7-1.6-2.1-1.1-3.7-2.6-5-3.9-1.4-1.3-2.3-2.2-3.1-2.3-2-.2-4.3.7-6.7,1.6-1.3.5-2.6,1-4,1.4-3.1,1-6,1.6-8.9,2.2-3.1.6-6,1.2-8.9,2.2-3.5,1.2-6.8,2.6-9.8,4.3-1.8,1-3.3,2.1-4.8,3.1-2.2,1.5-4.5,3.1-7.5,4.5-4.5,2.1-9.9,3.8-15.9,5.1-2.1.4-4.1.7-6,1-2.6.4-5,.7-7.1,1.4-.5.2-1.1.4-1.7.6-3.8,1.5-8.9,3.4-14.3-.5-48-35.6-101.5-1.5-148.7,28.5-8.4,5.3-16.3,10.4-24.1,14.9-2.9,1.8-5.7,3.4-8.5,5-5.6,3.2-10.4,6-14.4,9.1-4.7,3.6-7.7,7.1-9.7,11.5-2,4.3-2.9,9.4-3,15.6,0,3.4.3,7.3,2.4,9.4.9.9,2.5,1.4,4.4,1.9,2.2.7,4.8,1.4,6.9,3.2,3,2.3,4.8,6.1,5.5,11h0c2.1,18.8,5.9,41.7,10.3,68.3,2.3,13.9,4.7,28.4,7.1,43.8Z"></path>
</svg>