<svg viewBox="0 0 500 375" class="f1-svg-track" xmlns="http://www.w3.org/2000/svg">
	<path class="f1-svg-track__outline" d="M25.7,267c-6.5,0-11.4-3.4-11.8-8.2c-0.4-4.7,1.9-10.2,3.8-14.9c0.5-1.3,1-2.5,1.5-3.7
		c0.8-2.2,0.8-4.7-0.2-6.7c-0.1-0.2-0.2-0.4-0.2-0.4c-4-4-4.7-10.3-1.6-15c2.9-4.4,5.9-8,8.7-10.7c5-4.7,11.7-4.3,17.6-4
		c4.3,0.2,8.3,0.5,11.7-0.9c3-1.2,3.8-5,4-7.1c0.6-5.4-1.4-9.9-2.3-10.5C45,179,39.1,173,39.1,166.4c0-8,8.9-12.3,9.9-12.7
		l73.6-33.8c5.8-3.1,109.7-58.9,147.1-37.4c36.4,20.9,87.8,20.4,115.3,18.2c30.3-2.4,66.5,2.7,85.9,5.4
		c20.4,2.9,25.1,8.2,28.1,13.3c3.3,5.6,5.6,17.2-15.7,32.1c-7.9,5.5-15.3,7.5-22.1,7.5c-18.2,0-31.3-14.8-32.5-16.2
		c-1.2-1.3-11.7-11.6-28.4,2.3c-21.8,18-38.1,8.9-38.8,8.5c-0.4-0.2-50.5-27.5-72.2-38.6c-12.9-6.6-38.1-5.6-56.1,2.1
		c-8.8,3.8-14.4,8.6-16,13.6c-2.2,7.3-2.7,13.4-3,18.3c-0.6,8-1.1,14.8-9.2,19c-5.6,2.9-8.7,6.1-8.6,8.8
		c0.1,4.8,8.7,10.2,13.1,12.2c2.5,0.5,15.1,3.1,30.5,8.4c22.8,7.7,39.9,17,50.8,27.4c22.4,21.6,50.8,18.6,51.1,18.6l0.2,0l0.2,0
		c0,0,0,0,0,0c0.1,0,11.9-0.1,38.3-12.2c15.6-7.1,26-5.5,32-2.8c5.2,2.3,8.1,5.7,9.3,7.3c6,3.4,22.1,13.1,25.3,18.2
		c1.3,2.1,1.2,4,0.9,5.2c-0.5,2.1-2,3.9-4.5,5.4c-2.7,1.6-5.9,2.5-9.2,2.5H26.5C26.2,267,26,267,25.7,267z M38.7,210.2
		c-3.2,0-6,0.4-7.9,2.3c-2.5,2.3-5.1,5.6-7.7,9.5c-1.3,1.9-1,4.5,0.8,6.2c0.6,0.6,1.1,1.3,1.6,2.4c1.7,3.7,1.8,8.1,0.3,12.1
		c-0.5,1.3-1,2.5-1.6,3.9c-1.7,4.1-3.6,8.7-3.3,11.7c0.1,0.7,2.2,1.9,5.4,1.8l0.2,0h408.2c2,0,3.9-0.5,5.5-1.5
		c0.7-0.4,1-0.7,1.2-0.9c-1.7-2.7-13.5-10.5-23.5-16.2l-0.8-0.5l-0.5-0.8c-0.3-0.5-8.5-13.6-32.9-2.5
		c-26.4,12.1-39.1,12.8-41.1,12.9c-3,0.3-32.5,2.7-56.6-20.5c-24.3-23.4-77.7-34-78.2-34.1l-0.4-0.1l-0.4-0.2
		c-1.8-0.8-17.3-7.9-17.6-18.6c-0.2-5.8,4-10.9,12.4-15.2c4.4-2.3,4.8-5.2,5.4-13.3c0.4-5.2,0.9-11.8,3.3-19.8
		c2.1-7.2,9-13.4,19.9-18c17.6-7.5,45.6-10.3,62.1-1.9c21.9,11.1,72,38.5,72.5,38.8c0.6,0.3,13.1,7,30.9-7.8
		c22.5-18.6,38-1.7,38.1-1.6l0.1,0.1c0.8,1,20.6,24.7,45.2,7.5c5.8-4,18.7-14.4,13.7-22.8c-1.8-3.1-4.3-7.3-23-9.9
		c-19.2-2.7-54.9-7.7-84.4-5.4c-28.2,2.2-81.3,2.7-119.3-19.1c-13.9-8-42.5-4.2-82.5,11.1c-30.8,11.8-57.6,26.3-57.9,26.4
		l-0.2,0.1L51.9,160c-1.5,0.7-5.8,3.4-5.8,6.4c0,1.6,1.4,6,14,12c4.3,2.1,6.5,9.4,6.3,15.6c-0.2,7.3-3.2,12.7-8.4,14.8
		c-4.9,2-10.1,1.7-14.8,1.5C41.7,210.2,40.2,210.2,38.7,210.2z M441.5,257.7L441.5,257.7L441.5,257.7z M19,233.2
		C19,233.2,19,233.2,19,233.2C19,233.2,19,233.2,19,233.2z M18.8,232.9C18.8,232.9,18.8,232.9,18.8,232.9S18.8,232.9,18.8,232.9z"></path>
</svg>