<svg viewBox="0 0 500 375" class="f1-svg-track" xmlns="http://www.w3.org/2000/svg"><path class="f1-svg-track__outline" d="m271.58 356.76v-4l-192.73-2.18a26.72 26.72 0 0 1 -15.47-5.07 27.14 27.14 0 0 1 -6.8-7.19 20.15 20.15 0 0 1 -2.2-4.53 15.33 15.33 0 0 1 -.8-4.76 14 14 0 0 1 .86-4.77 20.79 20.79 0 0 1 5.56-7.88 51.21 51.21 0 0 1 13-8.38c4.71-2.24 12.17-6 19.57-9.76s14.72-7.53 19.06-9.77a29.46 29.46 0 0 0 9.79-8.11 41.22 41.22 0 0 0 4.94-8.08 26.24 26.24 0 0 0 2.51-10.82 20.69 20.69 0 0 0 -3.28-11.2 31.29 31.29 0 0 0 -10.92-9.94c-26.48-15.55-36.79-20.15-37-20.23l-.1-.05h-.1l-.47 1.34.54-1.4-.54 1.4.54-1.4a46.89 46.89 0 0 1 -6.31-3.18 43.94 43.94 0 0 1 -5.46-3.8 28.47 28.47 0 0 1 -4.84-5c-2.74-3.73-5.07-9.2-7.33-16s-4.52-14.81-7.39-23.68c-6.52-20.23-17.74-54.39-25.37-77.55a21.32 21.32 0 0 1 3-19.23 21.25 21.25 0 0 1 10.93-7.86l17-5.34a22.89 22.89 0 0 1 28.59 14.66l19.46 58.78v.06s.72 2 1.69 4.38c.49 1.21 1 2.54 1.61 3.81s1.16 2.49 1.76 3.56c.48.82.92 1.67 1.41 2.54a21.46 21.46 0 0 0 1.28 2 10.84 10.84 0 0 0 1.34 1.51 8.8 8.8 0 0 0 2.92 1.83 10.15 10.15 0 0 0 3.61.62 14.8 14.8 0 0 0 1.61-.1c1.2-.13 2.46-.24 3.73-.36a27.09 27.09 0 0 0 5.69-1 9.82 9.82 0 0 0 2.86-1.46 7.07 7.07 0 0 0 2.32-3 7.19 7.19 0 0 0 .25-.74c.12-.43.23-.89.35-1.43.44-2 1-5.24 1.63-9 1.88-11.36 4.25-27.65 4.25-27.67l9.49-67a35.2 35.2 0 0 1 1.57-6.3 28.46 28.46 0 0 1 2.29-5 15.69 15.69 0 0 1 3.38-4.11 12.87 12.87 0 0 1 3.64-2.16 11.54 11.54 0 0 1 4.08-.74 16 16 0 0 1 8.14 2.52 36.57 36.57 0 0 1 9.73 9.07 22.59 22.59 0 0 1 4.22 8.9c.92 4 2.24 9.82 3.39 14.8a36.23 36.23 0 0 0 1.86 5.48 79.94 79.94 0 0 0 4.53 9c.85 1.47 1.73 2.87 2.61 4.16a39 39 0 0 0 2.65 3.48c1.08 1.22 2.66 2.91 4.52 4.83 2.79 2.89 6.18 6.27 9.23 9.18 1.52 1.45 3 2.79 4.2 3.89.63.56 1.2 1 1.73 1.48a18.72 18.72 0 0 0 1.51 1.14 23.59 23.59 0 0 1 5.92 5.77 22.25 22.25 0 0 1 2.93 5.61 23 23 0 0 1 1.25 7.63 33 33 0 0 1 -2 10.9c-7.42 20.9-12.53 39.14-12.54 39.14v.08.1a35.07 35.07 0 0 0 -.75 7.38 27.16 27.16 0 0 0 2.13 11 19.32 19.32 0 0 0 6.78 8.08 20.15 20.15 0 0 0 11.38 3.36 27.31 27.31 0 0 0 8.23-1.35c11.58-3.67 18.79-5.79 24.45-7.84a68 68 0 0 0 7.61-3.24 57 57 0 0 0 6.95-4.17c2.44-1.67 5.51-4.06 8.9-6.88 5.08-4.24 10.86-9.43 16-14.47 2.55-2.52 4.92-5 7-7.33a51.81 51.81 0 0 0 5-6.49c.47-.75.95-1.64 1.52-2.77 1.07-2.09 2.4-4.93 3.94-8.35 5.41-12 13.41-31 20.31-47.5 3.45-8.25 6.63-15.85 9.05-21.58 1.21-2.86 2.23-5.26 3-7 .38-.89.71-1.61.95-2.14.12-.27.22-.48.3-.64l.09-.18-.63-.35.63.36-.63-.35.63.36c.39-.69.71-1.38 1.12-2.18a28.5 28.5 0 0 1 8.29-10.33 29.31 29.31 0 0 1 8.82-4.58 46.1 46.1 0 0 1 14.05-2h2.51c20 .75 29 1 32.73 1.09a13.35 13.35 0 0 1 7.18 2.34 17.83 17.83 0 0 1 3.13 2.73 55.94 55.94 0 0 1 4.73 6.18 137 137 0 0 1 12.14 23.21l.09.23 9.22 16.72v.06l1.19-.72-1.2.71 1.19-.72-1.2.71a27.46 27.46 0 0 1 3.42 12.46 17.49 17.49 0 0 1 -.61 4.68 15.38 15.38 0 0 1 -2.11 4.62c-.89 1.35-2.2 3.11-3.77 5.11-2.75 3.51-6.33 7.77-10.13 12.16-5.69 6.59-11.9 13.49-16.67 18.73-2.39 2.62-4.42 4.82-5.85 6.38l-1.67 1.8-.59.64 2.92 2.73-2.76-2.9a145.35 145.35 0 0 0 -15.2 17.53 60.92 60.92 0 0 0 -6.81 11.52 34.26 34.26 0 0 0 -3.07 13.77 30 30 0 0 0 1.52 9.39 37.36 37.36 0 0 0 4.91 9.63c10.43 14.93 19.74 29.47 26.44 40.26 3.35 5.39 6.05 9.85 7.91 13l2.13 3.6.55.94.18.31.13.22.15.2.23.3c1.14 1.51 6.4 8.51 12.58 17.28s13.28 19.35 18.05 27.84a55.15 55.15 0 0 1 3.69 7.72 13.31 13.31 0 0 1 1 4.36 3.13 3.13 0 0 1 0 .59 19.82 19.82 0 0 1 -1.5 4.82 17.08 17.08 0 0 1 -5.48 6.86 17.79 17.79 0 0 1 -10.72 3.13h-2.83c-8.09 0-14.56.57-19.73.58h-14.83-7.45-2.12l-143.68 2 .06 4v-4 4l.05 4 143.63-2-.06-4-.05 4s2.34 0 9.57 0h14.86c5.7 0 12-.59 19.7-.58h2.83a27.53 27.53 0 0 0 11.08-2.22 23.77 23.77 0 0 0 10.46-8.94 27.86 27.86 0 0 0 4.05-10.34 12.36 12.36 0 0 0 .15-1.93 20.92 20.92 0 0 0 -1.47-7.11 63.79 63.79 0 0 0 -4.24-8.88c-5.36-9.55-13.19-21.07-19.72-30.28s-11.72-16.05-11.74-16.07l-3.19 2.42 3.46-2c0-.06-16.5-28.45-37.57-58.64a29.24 29.24 0 0 1 -3.87-7.54 22 22 0 0 1 -1.12-6.9 26.25 26.25 0 0 1 2.4-10.57 54 54 0 0 1 5.94-10 137.51 137.51 0 0 1 9.73-11.78c1.36-1.48 2.51-2.66 3.31-3.47l.92-.91.23-.23.06-.06.09-.08.08-.09s7.81-8.38 16.63-18.26c4.41-4.94 9.07-10.26 13.14-15.12 2-2.42 3.93-4.74 5.58-6.84s3.06-4 4.14-5.61a23.58 23.58 0 0 0 3.17-7 25.57 25.57 0 0 0 .89-6.79 35.58 35.58 0 0 0 -4.52-16.6l-3.43 2.06 3.5-1.93-9.07-16.43-3.5 1.93 3.72-1.49a153 153 0 0 0 -7.84-16.4c-1.58-2.86-3.27-5.68-5-8.3a62.86 62.86 0 0 0 -5.45-7.09 25.35 25.35 0 0 0 -4.56-4 21.35 21.35 0 0 0 -11.55-3.53c-3.71-.08-12.64-.33-32.61-1.09-1 0-1.89-.05-2.81-.05a52.55 52.55 0 0 0 -18.39 3 36.81 36.81 0 0 0 -9.43 5.13 34.65 34.65 0 0 0 -8.27 9 42.78 42.78 0 0 0 -2.13 3.73c-.27.52-.5 1-.69 1.36s-.35.67-.43.82-.28.53-.43.84c-.28.58-.63 1.36-1.07 2.36-1.64 3.7-4.49 10.51-7.93 18.7-5.17 12.34-11.67 27.93-17.35 41.19-2.85 6.63-5.48 12.68-7.64 17.42-1.08 2.37-2 4.42-2.82 6-.4.81-.75 1.51-1.06 2.07s-.55 1-.71 1.27a36.32 36.32 0 0 1 -2.5 3.41c-1.86 2.28-4.34 5-7.11 7.76-4.16 4.2-9 8.65-13.5 12.54-2.25 1.94-4.42 3.74-6.38 5.3s-3.71 2.87-5.08 3.81a51.4 51.4 0 0 1 -6 3.62 78.7 78.7 0 0 1 -11.09 4.36c-4.79 1.58-11.05 3.47-19.78 6.24a19.55 19.55 0 0 1 -5.81 1 12.15 12.15 0 0 1 -6.9-2 11.3 11.3 0 0 1 -4-4.74 19.32 19.32 0 0 1 -1.43-7.75 30.35 30.35 0 0 1 .28-4.07c.07-.51.14-.9.19-1.17s.05-.22.06-.28l-2.15-.49 2.15.5-2.15-.49 2.15.5-3.89-.91 3.85 1.09a1.47 1.47 0 0 1 .05-.2c.58-2 5.47-19.13 12.33-38.65a40.72 40.72 0 0 0 2.48-13.56 31.16 31.16 0 0 0 -1.7-10.27 30.63 30.63 0 0 0 -6.3-10.5 31.34 31.34 0 0 0 -5.68-4.92 15.24 15.24 0 0 1 -1.33-1c-1.11-.94-2.63-2.32-4.3-3.91-2.52-2.38-5.4-5.22-8-7.83-1.28-1.3-2.49-2.54-3.52-3.64s-1.9-2-2.5-2.71a34.91 34.91 0 0 1 -2.82-3.87 73.22 73.22 0 0 1 -4.43-8c-.64-1.35-1.21-2.67-1.67-3.85a24.59 24.59 0 0 1 -1-3c-1.15-5-2.46-10.73-3.38-14.76a30.54 30.54 0 0 0 -5.72-12.06 44.35 44.35 0 0 0 -11.93-11 23.89 23.89 0 0 0 -12.24-3.65 19.51 19.51 0 0 0 -6.91 1.26 20.87 20.87 0 0 0 -5.93 3.49 24 24 0 0 0 -5.15 6.45 41.61 41.61 0 0 0 -4.79 14.21l4 .49-4-.56-9.48 67s-.08.55-.22 1.51c-.49 3.38-1.75 11.86-3 19.79-.62 4-1.25 7.79-1.77 10.75-.26 1.48-.5 2.74-.7 3.67-.09.47-.18.85-.24 1.11s-.06.22-.08.27l1.34.43-1.31-.52v.09l1.34.43-1.31-.52 1 .39-.75-.72a1.25 1.25 0 0 0 -.21.33l1 .39-.75-.72.36.35-.31-.4v.05l.36.35-.31-.4a2.79 2.79 0 0 1 -.74.29 18.6 18.6 0 0 1 -3.12.55c-1.33.15-2.85.26-4.46.44a7.07 7.07 0 0 1 -.72.05 2 2 0 0 1 -.84-.13 1 1 0 0 1 -.26-.2 6.34 6.34 0 0 1 -1-1.34c-.42-.72-.92-1.69-1.56-2.81-.39-.68-.9-1.73-1.41-2.86-.77-1.71-1.55-3.65-2.13-5.14l-.7-1.83c-.08-.22-.15-.4-.19-.52v-.13l-3.75 1.37 3.79-1.25-19.57-58.82a30.88 30.88 0 0 0 -38.62-19.76l-17.02 5.32a29.36 29.36 0 0 0 -19.12 37.24c7.63 23.15 18.85 57.31 25.36 77.5 2.81 8.7 5 16.71 7.41 23.78s4.87 13.21 8.47 18.15a36.44 36.44 0 0 0 6.29 6.56 54.38 54.38 0 0 0 9.36 6.13 45 45 0 0 0 4.53 2.09l1.42-3.74-1.62 3.66.23-.52-.23.52.23-.52-.23.52c.13.06 10.3 4.62 36.18 19.81a23.63 23.63 0 0 1 8.22 7.34 12.58 12.58 0 0 1 2 6.91 18.39 18.39 0 0 1 -1.8 7.52 33 33 0 0 1 -4 6.48 21.59 21.59 0 0 1 -7.13 5.9c-4.34 2.23-11.65 6-19 9.75s-14.83 7.5-19.39 9.66c-8.52 4.07-14.46 8.53-18.36 13.35a26.11 26.11 0 0 0 -4.29 7.42 21.71 21.71 0 0 0 -1.31 7.49 23 23 0 0 0 1.21 7.27 29.68 29.68 0 0 0 5 9.1 35.56 35.56 0 0 0 6.88 6.63 34.8 34.8 0 0 0 20.09 6.6l192.82 2.18h.05z"></path></svg>