<?xml version="1.0" standalone="no"?>
<!DOCTYPE svg PUBLIC "-//W3C//DTD SVG 20010904//EN"
 "http://www.w3.org/TR/2001/REC-SVG-20010904/DTD/svg10.dtd">
<svg version="1.0" xmlns="http://www.w3.org/2000/svg"
 width="960.000000pt" height="720.000000pt" viewBox="0 0 960 720"
 preserveAspectRatio="xMidYMid meet">

  <g transform="translate(0.000000,720.000000) scale(0.100000,-0.100000)"
     stroke="black" stroke-width="25" fill="none" stroke-linecap="round" stroke-linejoin="round">
     
    <path d="M8783 6355 c-80 -22 -112 -41 -458 -270 -176 -117 -394 -259 -485
    -315 -375 -233 -496 -325 -1132 -861 -199 -169 -504 -425 -677 -570 -327 -275
    -371 -320 -404 -419 l-15 -45 -83 -17 c-136 -29 -221 -70 -556 -270 -175 -104
    -369 -214 -431 -244 -193 -93 -261 -184 -270 -361 -6 -122 -15 -130 -117 -103
    -86 23 -227 25 -312 5 -90 -21 -175 -63 -276 -136 -153 -109 -262 -248 -282
    -361 -7 -35 -10 -38 -79 -63 l-73 -27 -58 56 c-101 96 -243 156 -370 156 -33
    0 -107 -12 -165 -26 -80 -19 -149 -27 -290 -33 -312 -15 -418 -49 -1110 -356
    -190 -84 -409 -180 -486 -214 -164 -72 -247 -134 -312 -230 -61 -92 -87 -177
    -87 -291 0 -147 44 -255 146 -365 151 -161 388 -206 630 -119 157 57 263 143
    395 321 91 122 157 182 249 223 101 46 154 54 284 44 181 -14 376 -10 454 9
    l68 17 62 -52 c188 -157 411 -179 719 -72 123 43 257 109 356 176 41 27 165
    138 276 246 133 130 225 210 266 234 35 21 127 59 204 84 223 74 358 148 522
    285 92 76 134 124 257 290 98 131 147 180 248 245 168 109 340 169 574 200
    135 18 205 39 276 85 102 65 197 202 230 329 13 51 16 55 106 115 l93 62 112
    -13 c62 -8 172 -21 243 -31 189 -25 413 -23 538 5 220 49 362 111 565 249 482
    327 724 587 926 993 86 174 131 306 225 661 77 287 83 339 56 444 -22 81 -60
    148 -121 209 -117 117 -278 162 -431 121z" stroke="white" stroke-width="12"/>
    
    <path d="M8670 5832 c-113 -76 -306 -202 -430 -281 -585 -374 -636 -411 -1105
    -807 -143 -121 -452 -381 -688 -578 l-427 -358 28 -36 c15 -20 33 -48 39 -62
    7 -14 12 -18 12 -10 2 30 50 119 88 161 58 65 293 215 375 240 l68 21 188 -21
    c103 -12 246 -28 317 -37 284 -35 489 13 727 168 157 103 322 226 418 312 216
    194 404 477 500 751 31 90 170 597 170 622 0 19 -37 53 -57 53 -10 0 -110 -62
    -223 -138z" stroke="white" stroke-width="12"/>

  </g>
</svg>